<?xml version="1.0" standalone="no"?> <!DOCTYPE svg PUBLIC "-//W3C//DTD SVG 1.0//EN" "http://www.w3.org/TR/2001/REC-SVG-20010904/DTD/svg10.dtd" > <svg xmlns="http://www.w3.org/2000/svg" width="100%" height="100%">
<defs >
<font horiz-adv-x="505" ><font-face
    font-family="Duplex Serif Web"
    units-per-em="1000"
    panose-1="0 0 0 0 0 0 0 0 0 0"
    ascent="805"
    descent="-195"
    alphabetic="0" />
<missing-glyph horiz-adv-x="142" />
<glyph unicode=" " glyph-name="space" horiz-adv-x="142" />
<glyph unicode="!" glyph-name="exclam" horiz-adv-x="281" d="M140 693Q182 693 203 663T225 579Q225 546 216 499T194 399T168 293T146 196H134Q126 240 113 293T87 398T65 498T55 579Q55 632 76 662T140 693ZM230 70Q230 34 204 10T140 -14Q103 -14 77 10T50
70Q50 108 76 132T140 156Q178 156 204 132T230 70Z" />
<glyph unicode="&quot;" glyph-name="quotedbl" horiz-adv-x="430" d="M312 430Q304 457 293 496T270 573T250 641T238 683H398Q395 672 387 642T367 573T344 496T324 430H312ZM106 430Q98 457 87 496T64 573T44 641T32 683H192Q189 672 181 642T161 573T138 496T118
430H106Z" />
<glyph unicode="#" glyph-name="numbersign" horiz-adv-x="534" d="M177 481L213 693H252L216 481H359L395 693H434L398 481H510V446H392L361 263H483V228H355L317 0H279L317 228H173L135 0H97L135 228H24V263H141L171 446H51V481H177ZM179 263H323L353 446H210L179 263Z" />
<glyph unicode="$" glyph-name="dollar" horiz-adv-x="531" d="M179 -8Q134 -3 106 4T63 11Q49 11 41 5T30 -7H24V239H34Q41 201 55 166T88 102T132 51T184 18L231 287L197 302Q116 337 75 385T33 503Q33 550 51 584T102 640T177 673T272 684Q279 684 285 684T299
683L312 755H338L325 681Q354 679 378 676T417 672Q440 672 453 685H459V494H450Q435 553 399 595T320 655L281 430L330 410Q367 395 400 377T458 334T497 274T512 194Q512 145 491 107T433 43T346 3T238 -11Q229 -11 221 -11T205 -10L187 -115H161L179 -8ZM238
8Q302 8 338 42T375 133Q375 163 367 184T344 221T306 251T255 277L208 11Q223 8 238 8ZM163 562Q163 518 190 490T257 441L296 662Q284 665 272 665Q250 665 230 659T195 640T172 608T163 562Z" />
<glyph unicode="%" glyph-name="percent" horiz-adv-x="881" d="M866 196Q866 153 853 116T815 52T755 9T678 -7Q636 -7 600 6T538 45T498 105T483 185Q483 229 496 266T535 330T595 372T672 387Q714 387 750 373T811 334T851 274T866 196ZM672 370Q653 370 639
357T616 319T603 260T598 186Q598 108 620 59T680 10Q699 10 712 24T734 63T747 121T751 194Q751 275 731 322T672 370ZM130 501Q130 423 152 374T212 325Q231 325 244 339T266 378T279 436T283 509Q283 590 263 637T204 685Q185 685 171 672T148 634T135 575T130
501ZM398 511Q398 468 385 431T347 367T287 324T210 308Q168 308 132 321T70 360T30 420T15 500Q15 544 28 581T67 645T127 687T204 702Q246 702 282 688T343 649T383 589T398 511ZM669 713H709L203 -40H163L669 713Z" />
<glyph unicode="&amp;" glyph-name="ampersand" horiz-adv-x="688" d="M476 0L441 45Q409 18 373 4T294 -11Q232 -11 181 1T94 37T39 95T19 175Q19 217 36 247T80 298T139 334T202 359L200 363Q182 387 169 408T147 449T134 489T129 533Q129 568 147 597T196 648T265
682T345 694Q438 694 490 661T542 574Q542 544 530 521T494 479T435 444T354 411L518 195Q531 228 539 266T552 347L475 372V381H674V372Q653 364 641 360T621 352T609 343T602 327Q588 282 572 244T537 170L617 64Q635 40 647 28T673 13L688 10V0H476ZM314 27Q377
27 426 65L216 341Q209 332 202 319T188 288T178 244T174 183Q174 153 183 125T211 76T255 41T314 27ZM276 582Q276 560 280 541T293 504T313 468T342 428Q371 453 391 490T412 582Q412 631 393 655T346 679Q315 679 296 654T276 582Z" />
<glyph unicode="&apos;" glyph-name="quotesingle" horiz-adv-x="223" d="M106 430Q98 457 87 496T64 573T44 641T32 683H192Q189 672 181 642T161 573T138 496T118 430H106Z" />
<glyph unicode="(" glyph-name="parenleft" horiz-adv-x="371" d="M334 -139Q281 -106 232 -62T146 36T86 155T63 297V319Q63 394 85 460T144 581T231 681T334 757H347Q317 721 290 677T243 580T210 465T198 328V295Q198 227 210 166T242 51T290 -51T347 -139H334V-139Z" />
<glyph unicode=")" glyph-name="parenright" horiz-adv-x="371" d="M7 -139Q60 -106 109 -62T195 36T255 155T278 297V319Q278 394 256 460T197 581T110 681T7 757H-6Q24 721 51 677T98 580T131 465T143 328V295Q143 227 131 166T99 51T51 -51T-6 -139H7V-139Z" />
<glyph unicode="*" glyph-name="asterisk" horiz-adv-x="392" d="M29 412Q19 429 25 448T49 478Q58 483 68 486T93 492T127 498T175 508Q147 514 127 517T93 524T69 530T49 538Q32 548 26 567T29 604Q40 621 59 625T96 619Q105 613 112 606T129 588T151 563T184
528Q176 555 169 573T158 604T151 628T148 649Q148 669 161 684T195 699Q215 699 228 684T241 649Q241 638 239 628T232 604T221 572T206 527Q225 547 237 562T259 587T276 605T293 619Q310 629 330 625T360 603Q371 586 364 567T340 538Q331 533 321 530T297 524T265
518T220 508Q246 502 264 498T296 492T320 486T340 478Q357 468 364 449T360 413Q350 396 330 392T293 397Q284 402 277 409T260 427T238 453T206 489Q214 462 220 444T231 412T238 388T241 367Q241 347 228 332T195 317Q175 317 162 332T148 367Q148 377 150 387T157
411T168 443T184 487Q164 467 152 453T130 428T113 410T96 397Q79 387 60 391T29 412Z" />
<glyph unicode="+" glyph-name="plus" horiz-adv-x="495" d="M228 328H35V362H228V563H266V362H459V328H266V127H228V328Z" />
<glyph unicode="," glyph-name="comma" horiz-adv-x="245" d="M208 43Q208 5 195 -26T159 -82T105 -125T40 -153L30 -149Q48 -136 66 -118T98 -79T121 -35T130 9Q88 3 61 21T34 77Q34 112 56 133T113 154Q151 154 179 125T208 43Z" />
<glyph unicode="-" glyph-name="hyphen" horiz-adv-x="309" d="M31 318H278V196H31V318Z" />
<glyph unicode="." glyph-name="period" horiz-adv-x="243" d="M212 70Q212 34 186 10T122 -14Q85 -14 59 10T32 70Q32 108 58 132T122 156Q160 156 186 132T212 70Z" />
<glyph unicode="/" glyph-name="slash" horiz-adv-x="386" d="M327 745L360 737L43 -127L10 -119L327 745Z" />
<glyph unicode="0" glyph-name="zero" horiz-adv-x="598" d="M305 5Q337 5 358 31T392 100T410 199T415 318Q415 380 408 434T385 529T348 592T295 615Q264 615 243 591T209 524T189 425T183 304Q183 243 191 189T215 94T253 29T305 5ZM580 320Q580 248 558 187T497
82T410 12T305 -13Q248 -13 197 8T105 70T42 169T18 302Q18 376 40 437T100 542T188 610T294 634Q350 634 401 612T493 549T556 450T580 320Z" />
<glyph unicode="1" glyph-name="one" horiz-adv-x="364" d="M262 634V54Q262 31 269 25T300 14L326 10V0H35V10L62 14Q84 17 93 24T102 53V470Q102 500 91 514T51 539L36 544V556Q62 563 93 574T155 597T211 620T254 640L262 634Z" />
<glyph unicode="2" glyph-name="two" horiz-adv-x="468" d="M431 0H-2V11Q1 56 22 91T73 158T138 220T201 285T250 362T269 458Q269 535 257 575T205 615Q187 615 177 609T159 590T146 559T135 515Q127 479 109 464T64 449Q40 449 24 465T7 511Q7 538 21 560T62
599T126 625T210 634Q250 634 291 627T364 602T417 551T438 470Q438 423 415 384T357 313T280 256T200 209T134 171T97 138H360Q392 138 406 150T432 188L441 211H451L431 0Z" />
<glyph unicode="3" glyph-name="three" horiz-adv-x="490" d="M208 -63Q233 -63 251 -50T282 -12T300 44T306 115Q306 164 298 198T270 254T216 285T131 295V318Q177 318 204 330T247 365T266 418T271 484Q271 547 254 581T206 615Q188 615 177 612T159 600T148
575T138 532Q130 491 110 477T66 462Q43 462 29 479T15 523Q15 547 29 567T68 602T129 625T208 634Q260 634 302 624T374 594T420 547T436 485Q436 448 420 419T376 368T311 334T232 315V312Q280 310 323 300T401 267T455 210T475 124Q475 74 452 36T392 -29T306
-68T208 -82Q106 -82 48 -49T-10 43Q-10 74 7 92T52 110Q80 110 99 95T127 37Q133 10 136 -9T146 -40T167 -57T208 -63Z" />
<glyph unicode="4" glyph-name="four" horiz-adv-x="601" d="M328 -74V74H15V122L366 628H486V160H588V74H486V-74H328ZM72 160H328V529L72 160Z" />
<glyph unicode="5" glyph-name="five" horiz-adv-x="487" d="M199 -82Q108 -82 52 -52T-4 38Q-4 68 13 87T56 106Q92 106 108 81T132 14Q136 -6 138 -20T147 -42T164 -55T197 -59Q220 -59 239 -42T272 4T293 73T301 156Q301 194 296 226T278 281T245 318T197 331Q171
331 151 325T115 310T88 291T70 274H55L113 633H451L414 496H119L91 319Q101 329 131 343T212 358Q271 358 319 344T400 303T452 239T470 156Q470 103 448 60T389 -15T303 -64T199 -82Z" />
<glyph unicode="6" glyph-name="six" horiz-adv-x="572" d="M344 664Q315 664 290 643T245 583T212 492T192 380Q218 398 249 407T320 417Q365 417 407 406T482 372T535 311T555 220Q555 173 538 131T489 58T409 8T299 -11Q234 -11 183 11T95 75T40 176T21 311Q21
386 46 453T116 572T225 654T364 684Q399 684 430 678T486 658T524 625T538 577Q538 546 521 532T478 517Q457 517 445 528T425 555T412 590T398 626T378 653T344 664ZM189 304Q189 244 196 190T218 96T253 31T297 7Q318 7 335 23T365 65T384 127T391 200Q391 252
383 287T359 344T322 375T277 385Q250 385 229 379T191 361Q189 347 189 333T189 304Z" />
<glyph unicode="7" glyph-name="seven" horiz-adv-x="488" d="M108 501Q76 501 63 485T41 449L32 428H22L53 649H64Q73 635 96 629T172 623H470V600Q402 514 363 440T303 296T276 158T270 17Q270 -5 263 -23T243 -54T216 -74T184 -81Q147 -81 124 -57T100 8Q100
96 170 217T370 501H108V501Z" />
<glyph unicode="8" glyph-name="eight" horiz-adv-x="566" d="M514 545Q514 515 501 491T468 449T421 416T369 391Q408 368 439 345T493 296T526 237T538 166Q538 130 521 98T472 41T394 3T288 -11Q169 -11 104 32T39 149Q39 180 52 205T89 251T141 288T204 318Q135
360 95 408T54 523Q54 559 68 590T111 644T183 681T286 694Q394 694 454 655T514 545ZM396 115Q396 152 384 177T350 224T296 263T225 305Q205 282 192 249T179 153Q179 119 188 92T212 47T246 18T285 8Q306 8 326 15T361 37T386 71T396 115ZM195 576Q195 548 203
526T230 484T276 445T346 403Q361 424 371 456T381 545Q381 571 374 594T355 636T325 664T286 675Q269 675 253 668T224 649T203 618T195 576Z" />
<glyph unicode="9" glyph-name="nine" horiz-adv-x="573" d="M242 -41Q271 -41 295 -20T337 40T367 131T384 243Q334 206 256 206Q211 206 169 217T94 251T41 312T21 403Q21 450 38 492T87 565T167 615T277 634Q338 634 389 615T477 557T534 460T555 322Q555 247
532 178T465 56T360 -29T222 -61Q183 -61 150 -55T92 -35T53 -2T38 46Q38 77 55 91T98 106Q119 106 131 95T152 68T166 33T181 -3T204 -30T242 -41ZM387 319Q387 379 380 433T358 527T323 592T279 616Q258 616 241 602T211 563T192 505T185 433Q185 329 217 284T299
238Q325 238 346 244T385 262Q386 276 386 290T387 319Z" />
<glyph unicode=":" glyph-name="colon" horiz-adv-x="248" d="M214 372Q214 336 188 312T124 288Q87 288 61 312T34 372Q34 410 60 434T124 458Q162 458 188 434T214 372ZM214 70Q214 34 188 10T124 -14Q87 -14 61 10T34 70Q34 108 60 132T124 156Q162 156 188
132T214 70Z" />
<glyph unicode=";" glyph-name="semicolon" horiz-adv-x="249" d="M214 372Q214 336 188 312T124 288Q87 288 61 312T34 372Q34 410 60 434T124 458Q162 458 188 434T214 372ZM208 43Q208 5 195 -26T159 -82T105 -125T40 -153L30 -149Q48 -136 66 -118T98 -79T121
-35T130 9Q88 3 61 21T34 77Q34 112 56 133T113 154Q151 154 179 125T208 43Z" />
<glyph unicode="&lt;" glyph-name="less" horiz-adv-x="431" d="M30 306V337L397 509V474L71 322L397 168V134L30 306Z" />
<glyph unicode="=" glyph-name="equal" horiz-adv-x="477" d="M36 385V418H444V385H36ZM36 225V258H444V225H36Z" />
<glyph unicode="&gt;" glyph-name="greater" horiz-adv-x="431" d="M401 337V306L34 134V168L360 322L34 474V509L401 337Z" />
<glyph unicode="?" glyph-name="question" horiz-adv-x="430" d="M190 267Q190 250 193 233T202 197L191 193Q177 203 161 219T132 253T109 291T100 327Q100 342 107 356T127 384T157 413T196 447Q212 462 225 475T247 502T261 533T266 573Q266 625 246 650T190
675Q174 675 164 670T148 655T137 630T129 594Q121 558 106 544T66 529Q44 529 29 546T13 591Q13 638 60 666T193 694Q235 694 273 685T341 658T388 611T406 546Q406 489 376 448T289 365Q260 344 241 331T211 308T195 289T190 267ZM276 70Q276 34 250 10T186 -14Q149
-14 123 10T96 70Q96 108 122 132T186 156Q224 156 250 132T276 70Z" />
<glyph unicode="@" glyph-name="at" horiz-adv-x="870" d="M468 118Q463 106 452 91T424 61T386 37T341 27Q307 27 281 39T238 74T212 127T203 192Q203 256 226 312T288 409T379 474T491 498Q529 498 553 487T594 460H596L668 488L679 482Q675 463 671 443Q667
425 663 403T655 356L608 91Q605 74 606 66T622 58Q641 58 666 75T714 128T752 215T768 337Q768 403 750 460T697 560T610 626T487 650Q401 650 332 619T213 532T138 402T111 241Q111 160 132 92T195 -26T296 -103T430 -131Q485 -131 530 -121T610 -97T672 -66T718
-36L733 -57Q715 -71 687 -89T620 -123T531 -151T421 -163Q336 -163 264 -136T140 -57T59 66T30 229Q30 321 64 403T160 546T305 643T490 679Q568 679 633 654T746 585T819 483T845 358Q845 279 821 217T756 113T664 48T556 25Q523 25 504 34T475 57T466 87T468
118ZM403 99Q413 99 423 103T442 114T457 128T468 142L520 432Q517 445 508 458T488 472Q471 472 449 449T406 386T372 294T358 185Q358 139 370 119T403 99Z" />
<glyph unicode="A" glyph-name="A" horiz-adv-x="657" d="M367 251H152L77 43L166 8V0H6V8Q31 21 39 30T52 54L242 576L222 628Q240 630 258 639T292 661T321 686T342 710H357L605 54Q612 35 621 28T651 8V0H361V8L451 34L367 251ZM161 275H358L256 538L161 275Z" />
<glyph unicode="B" glyph-name="B" horiz-adv-x="616" d="M448 193Q448 243 430 274T381 323T313 346T233 351V21H298Q344 21 373 35T418 72T441 127T448 193ZM414 516Q414 558 400 586T362 631T304 656T233 662V376H256Q282 376 312 383T365 408Q385 424 399
451T414 516ZM13 10L33 14Q43 16 50 18T62 27T69 43T72 70V613Q72 630 70 640T62 656T50 664T33 669L13 673V683H318Q375 683 420 671T496 639T543 592T560 535Q560 474 515 433T380 378V372Q429 367 470 354T542 318T590 265T608 197Q608 153 588 109T524 37Q492
17 446 9T349 0H13V10Z" />
<glyph unicode="C" glyph-name="C" horiz-adv-x="565" d="M355 -11Q293 -11 233 6T126 63T51 169T22 335Q22 431 52 499T130 610T233 674T343 694Q377 694 401 692T443 686T473 680T495 677Q506 677 512 680T527 692H533V506H523Q488 595 444 634T349 674Q315
674 287 656T237 597T204 496T192 348Q192 259 204 195T239 89T292 27T358 7Q415 7 459 53T526 183H536V-6H530Q522 1 512 5T488 9Q479 9 469 6T444 -1T408 -8T355 -11Z" />
<glyph unicode="D" glyph-name="D" horiz-adv-x="661" d="M13 10L33 14Q43 16 50 18T62 27T69 43T72 70V613Q72 630 70 640T62 656T50 664T33 669L13 673V683H294Q362 683 424 663T533 603T609 501T638 355Q638 275 613 210T541 98T430 26T287 0H13V10ZM233 21H282Q374
21 422 102T470 336Q470 430 456 493T413 594T339 648T233 662V21Z" />
<glyph unicode="E" glyph-name="E" horiz-adv-x="539" d="M13 10L33 14Q43 16 50 18T62 27T69 43T72 70V613Q72 630 70 640T62 656T50 664T33 669L13 673V683H489V518H477Q452 587 430 624T381 662H233V363H334Q366 363 382 389T407 469H418V233H407Q399 281 383
310T334 339H233V21H394Q418 21 445 58T496 184H507V0H13V10Z" />
<glyph unicode="F" glyph-name="F" horiz-adv-x="520" d="M498 518H486Q461 587 444 624T400 662H229V375H344Q376 375 391 401T417 481H428V245H417Q409 293 393 322T344 351H229V70Q229 53 233 43T244 26T261 18T282 14L315 10V0H8V10L35 14Q49 16 54 23T60
53V630Q60 652 55 659T35 669L8 673V683H498V518Z" />
<glyph unicode="G" glyph-name="G" horiz-adv-x="627" d="M568 52Q568 39 574 36T603 36V26Q585 18 558 12T498 0T429 -8T355 -11Q293 -11 233 11T126 77T51 185T22 335Q22 417 51 483T126 596T232 668T352 694Q389 694 416 692T463 686T496 680T518 677Q529 677
535 680T550 692H556V493H546Q529 532 510 565T467 622T415 660T353 674Q314 674 284 650T233 583T201 480T190 348Q190 277 201 215T234 107T285 34T355 7Q378 7 394 7T424 9V216Q424 233 422 243T416 259T404 267T386 272L363 276V286H629V276L606 272Q595 270
588 268T577 260T570 244T568 216V52Z" />
<glyph unicode="H" glyph-name="H" horiz-adv-x="668" d="M287 0H11V10L36 14Q51 16 55 23T60 53V630Q60 652 56 659T36 669L11 673V683H287V673L256 669Q239 667 234 660T229 629V366H439V630Q439 652 434 659T412 669L381 673V683H657V673L632 669Q617 667 613
660T608 629V54Q608 31 612 24T632 14L657 10V0H381V10L412 14Q429 16 434 23T439 53V342H229V54Q229 31 234 24T256 14L287 10V0Z" />
<glyph unicode="I" glyph-name="I" horiz-adv-x="302" d="M69 630Q69 652 64 659T44 669L15 673V683H287V673L259 669Q244 667 239 660T234 629V54Q234 31 239 24T259 14L287 10V0H15V10L44 14Q58 16 63 23T69 53V630V630Z" />
<glyph unicode="J" glyph-name="J" horiz-adv-x="421" d="M161 8Q178 8 186 29T194 95V613Q194 630 191 640T181 656T166 664T146 669L123 673V683H409V673L388 669Q378 667 372 665T361 656T356 640T354 613V230Q354 162 335 116T285 42T216 1T139 -11Q-8 -11
-8 65Q-8 88 7 104T50 121Q77 121 93 104T119 65T139 26T161 8Z" />
<glyph unicode="K" glyph-name="K" horiz-adv-x="652" d="M67 630Q67 652 62 659T40 669L12 673V683H296V673L265 669Q248 667 242 660T236 629V54Q236 31 242 24T265 14L296 10V0H12V10L40 14Q56 16 61 23T67 53V630ZM645 0H572Q542 0 510 0T454 2Q440 18 420
48T381 108Q343 170 312 225T255 330V344L482 649L421 674V683H608V674Q582 668 565 663T534 649T508 630T483 601L368 449V443L530 164Q553 125 571 98T603 53T627 25T645 10V0Z" />
<glyph unicode="L" glyph-name="L" horiz-adv-x="501" d="M356 26Q375 26 391 35T421 65T448 120T474 207H485V0H16V10L40 14Q49 16 55 18T66 27T73 43T75 70V613Q75 630 73 640T67 656T56 664T40 669L16 673V683H306V673L276 669Q265 667 257 665T244 656T236
640T233 613V26H356V26Z" />
<glyph unicode="M" glyph-name="M" horiz-adv-x="838" d="M774 54Q774 31 778 24T798 14L826 10V0H547V10L578 14Q595 16 600 23T605 53V622H602L377 -5H315L100 641H94V54Q94 31 99 24T121 14L152 10V0H12V10L40 14Q55 16 59 23T64 54V630Q64 653 60 660T40 670L12
674V683H267L419 198H422L595 683H826V674L798 670Q783 668 779 661T774 630V54Z" />
<glyph unicode="N" glyph-name="N" horiz-adv-x="654" d="M548 613Q548 630 546 640T538 656T524 664T505 669L482 673V683H645V673L625 669Q615 667 606 665T591 656T580 640T576 613V165Q576 71 579 -1L504 -4L110 598H108V70Q108 53 110 43T118 27T132 19T151
14L174 10V0H11V10L31 14Q41 16 49 18T65 27T76 43T80 70V613Q80 630 76 640T65 656T50 664T31 669L11 673V683H232L544 205H548V613V613Z" />
<glyph unicode="O" glyph-name="O" horiz-adv-x="675" d="M484 349Q484 419 473 479T442 582T395 650T334 675Q300 675 274 649T229 577T202 469T192 335Q192 266 204 206T237 102T286 32T348 7Q382 7 407 34T450 108T475 217T484 349ZM653 351Q653 271 629 205T562
90T464 16T342 -11Q277 -11 219 12T117 79T48 187T22 333Q22 415 46 481T113 595T211 668T333 694Q398 694 456 671T558 603T627 495T653 351Z" />
<glyph unicode="P" glyph-name="P" horiz-adv-x="590" d="M219 70Q219 53 222 43T231 28T246 20T267 15L295 10V0H11V10L31 14Q41 16 48 18T60 27T67 43T70 70V613Q70 630 68 640T60 656T48 664T31 669L11 673V683H288Q368 683 423 669T513 630T563 571T579 498Q579
444 556 401T492 328T395 280T273 260V277Q316 285 345 304T393 352T420 414T429 485Q429 523 420 555T388 611T323 648T219 662V70V70Z" />
<glyph unicode="Q" glyph-name="Q" horiz-adv-x="675" d="M653 351Q653 289 638 235T597 137T533 61T452 10Q513 -25 569 -55T685 -109T808 -153T948 -185V-195Q826 -213 726 -206T538 -171T371 -95T213 14Q171 32 136 61T76 130T36 221T22 333Q22 415 46 481T113
595T211 668T333 694Q398 694 456 671T558 603T627 495T653 351ZM486 349Q486 419 475 479T443 582T395 650T334 675Q300 675 274 649T229 577T200 469T190 335Q190 266 202 206T235 102T286 32T348 7Q382 7 408 34T451 108T477 217T486 349Z" />
<glyph unicode="R" glyph-name="R" horiz-adv-x="626" d="M564 507Q564 451 528 408T437 341Q455 304 474 265T513 189T549 119T579 62Q593 37 608 27T638 10V0H448Q433 17 413 53T371 133T328 225T289 314Q272 316 260 318T238 322V70Q238 53 240 43T248 27T262
19T281 14L311 10V0H11V10L38 14Q48 16 55 18T67 27T74 43T77 70V613Q77 647 67 656T38 669L11 673V683H299Q370 683 420 669T502 630T549 573T564 507ZM409 497Q409 547 396 579T360 631T306 656T238 662V347Q250 344 266 342T297 340Q318 340 338 349T374 377T399
425T409 497Z" />
<glyph unicode="S" glyph-name="S" horiz-adv-x="519" d="M236 8Q293 8 328 42T363 133Q363 170 351 195T317 240T263 276T195 312Q159 331 130 351T81 395T50 450T39 518Q39 565 58 598T111 653T188 684T280 694Q315 694 349 688T405 682Q428 682 441 695H447V504H438Q428
542 411 573T372 627T326 662T280 675Q260 675 240 670T205 652T179 622T169 577Q169 545 183 522T221 482T272 452T326 424Q359 407 390 388T445 342T485 280T500 194Q500 145 479 107T422 43T338 3T236 -11Q202 -11 175 -8T128 0T93 7T69 11Q55 11 47 5T36 -7H30V239H40Q49
193 67 151T111 78T169 27T236 8Z" />
<glyph unicode="T" glyph-name="T" horiz-adv-x="563" d="M471 680Q501 680 516 684T550 695V511H540Q530 547 519 574T494 618T459 645T411 654H360V70Q360 53 362 43T370 27T384 19T403 14L433 10V0H129V10L159 14Q170 16 178 18T191 27T199 43T202 70V654H151Q121
654 101 645T66 619T42 574T22 511H12V695Q30 688 45 684T91 680H471V680Z" />
<glyph unicode="U" glyph-name="U" horiz-adv-x="643" d="M545 613Q545 630 543 640T535 656T521 664T502 669L479 673V683H632V673L612 669Q602 667 595 665T583 656T576 640T573 613V258Q573 186 555 135T506 52T432 6T339 -9Q288 -9 240 3T154 45T93 122T70
241V613Q70 630 68 640T60 656T48 664T31 669L11 673V683H297V673L274 669Q263 667 255 665T242 656T234 640T231 613V238Q231 140 269 89T386 37Q416 37 445 47T496 83T531 147T545 246V613V613Z" />
<glyph unicode="V" glyph-name="V" horiz-adv-x="625" d="M352 -12H268L55 617Q46 643 33 654T-4 674V683H309V674L219 649L378 150L549 643L460 674V683H629V674Q614 666 604 661T588 649T577 636T569 616L352 -12Z" />
<glyph unicode="W" glyph-name="W" horiz-adv-x="906" d="M910 674Q893 665 883 659T867 647T858 633T852 612L680 -12H600L457 519L330 -12H250L56 607Q52 621 49 630T39 645T23 658T-4 674V683H308V674L218 649L349 202H355L443 574L436 601Q431 617 426 627T412
644T390 658T357 674V683H676V674L596 649L704 202H710L830 642L735 674V683H910V674V674Z" />
<glyph unicode="X" glyph-name="X" horiz-adv-x="644" d="M450 674V683H614V674Q600 668 590 663T571 653T555 639T539 618L404 381L571 69Q587 42 605 31T646 8V0H337V8L416 34L261 313L100 35L178 8V0H12V8Q35 18 54 30T94 73L248 337L92 619Q78 644 60 653T18
674V683H341V674L261 649L391 406L530 647L450 674Z" />
<glyph unicode="Y" glyph-name="Y" horiz-adv-x="594" d="M377 341V54Q377 31 389 26T427 16L460 10V0H133V10L167 16Q192 21 204 26T217 53V326L63 617Q56 631 50 640T36 655T19 665T0 674V683H312V674L222 649L359 378H365L514 643L426 674V683H594V674Q576
665 566 659T550 646T541 634T532 619L377 341Z" />
<glyph unicode="Z" glyph-name="Z" horiz-adv-x="546" d="M38 701Q48 696 59 692Q69 688 83 686T116 683H515L523 673L201 23H398Q416 23 430 30T458 58T484 116T513 212H523V-5Q511 -4 494 -3Q480 -2 460 -1T413 0H34L23 10L340 660H166Q145 660 130 654T101
632T76 586T49 510H38V701V701Z" />
<glyph unicode="[" glyph-name="bracketleft" horiz-adv-x="360" d="M105 737H337V715H225V-96H337V-118H105V737Z" />
<glyph unicode="\" glyph-name="backslash" horiz-adv-x="386" d="M343 -127L26 737L59 745L376 -119L343 -127Z" />
<glyph unicode="]" glyph-name="bracketright" horiz-adv-x="360" d="M271 -118H24V-96H132V715H24V737H271V-118Z" />
<glyph unicode="^" glyph-name="asciicircum" horiz-adv-x="457" d="M223 688H233L420 300L412 295L228 479L43 295L36 300L223 688Z" />
<glyph unicode="_" glyph-name="underscore" horiz-adv-x="374" d="M-3 -80H378V-120H-3V-80Z" />
<glyph unicode="`" glyph-name="grave" horiz-adv-x="458" d="M329 558L321 553L184 619Q124 648 124 696Q124 722 140 737T181 753Q209 753 227 732T263 678L329 558Z" />
<glyph unicode="a" glyph-name="a" horiz-adv-x="508" d="M527 40Q522 30 512 21T487 5T456 -7T421 -12Q394 -12 375 -6T344 10T323 34T310 63H306Q301 54 291 41T264 17T223 -3T167 -12Q130 -12 103 -2T57 25T30 64T21 111Q21 141 35 172T83 216Q93 220 120 228T182
247T249 268T304 286V360Q304 423 287 448T233 474Q203 474 189 456T162 415T135 374T91 355Q68 355 55 370T42 406Q42 423 51 440T83 471T142 493T233 502Q280 502 320 495T391 472T438 429T455 363V88Q455 67 462 53T495 38Q506 38 514 42T527 48V40ZM304 81Q304
90 304 111T304 159T304 214T304 264Q282 256 263 251T223 236Q204 228 191 203T178 144Q178 101 197 79T248 57Q268 57 283 66T304 81Z" />
<glyph unicode="b" glyph-name="b" horiz-adv-x="565" d="M389 239Q389 327 357 371T271 415Q240 415 221 404T197 388V46Q200 34 217 25T260 15Q291 15 315 32T355 80T380 151T389 239ZM-7 638V650Q5 652 28 659T80 675T137 694T189 714L197 708V407Q203 419
216 435T249 465T295 490T356 500Q399 500 434 483T493 435T530 360T543 262Q543 193 519 142T456 57T366 5T263 -12Q200 -12 141 -4T43 22V617L-7 638Z" />
<glyph unicode="c" glyph-name="c" horiz-adv-x="438" d="M249 469Q234 469 217 456T186 419T162 362T152 287Q152 251 160 217T188 155T237 112T311 95Q358 95 391 115T442 154V131Q435 108 420 83T380 37T320 2T238 -12Q190 -12 149 5T79 55T33 132T16 233Q16
296 37 346T92 430T171 482T261 500Q345 500 384 474T423 407Q423 383 408 368T366 352Q348 352 337 360T317 382T303 410T290 439T274 460T249 469Z" />
<glyph unicode="d" glyph-name="d" horiz-adv-x="564" d="M316 638V650Q329 652 353 659T405 675T462 694T514 714L522 708V49L575 43V33Q557 30 529 24T472 10T417 -4T377 -15L368 -9V82Q363 72 351 56T321 25T277 -1T221 -12Q176 -12 140 4T77 51T37 126T22
226Q22 299 47 351T112 436T201 484T301 500Q321 500 341 499T368 496V617L316 638ZM176 268Q176 180 207 129T295 77Q322 77 342 89T368 109V432Q364 446 346 459T301 473Q277 473 254 459T214 419T187 354T176 268Z" />
<glyph unicode="e" glyph-name="e" horiz-adv-x="516" d="M169 280Q171 191 215 143T344 95Q371 95 396 101T441 117T477 138T501 159V136Q496 118 480 93T436 45T368 5T274 -12Q216 -12 170 5T90 54T39 133T21 236Q21 297 43 346T101 429T183 482T277 501Q319
501 358 488T427 448T475 380T497 280H169ZM275 473Q257 473 239 461T206 428T181 375T169 305L318 313Q332 314 336 319T340 339Q340 409 321 441T275 473Z" />
<glyph unicode="f" glyph-name="f" horiz-adv-x="350" d="M235 54Q235 43 236 36T242 25T255 19T276 14L299 10V0H30V10L51 14Q68 17 74 24T81 54V447H3V450L18 490H81V539Q81 566 93 597T132 654T198 698T293 716Q346 716 374 701T402 659Q402 637 389 625T357
613Q335 613 322 622T300 646Q292 658 284 673T262 688Q248 688 242 666T235 594V490H359L344 447H235V54Z" />
<glyph unicode="g" glyph-name="g" horiz-adv-x="525" d="M35 338Q35 381 56 411T110 461T182 490T256 500Q319 500 375 475Q381 491 389 508T410 539T439 563T475 573Q504 573 519 558T534 522Q534 499 519 485T481 471Q470 471 459 473T436 475T413 474T393
465Q431 444 454 412T478 338Q478 295 457 265T402 215T330 186T256 177Q232 177 206 181T154 194Q147 186 140 176T128 157Q126 143 136 133T179 122H389Q423 122 448 111T490 82T515 40T523 -11Q523 -52 505 -86T450 -145T362 -185T244 -199Q134 -199 75 -177T16
-122Q16 -107 27 -93T55 -65T96 -40T143 -21V-16Q109 -14 87 0T52 35T38 77T44 117Q51 125 63 136T89 160T114 182T135 201Q93 220 64 253T35 338ZM420 -66Q420 -39 404 -30T346 -21H171Q153 -37 143 -57T132 -100Q132 -128 158 -149T245 -171Q279 -171 310 -165T366
-147T405 -114T420 -66ZM334 338Q334 399 313 435T256 472Q222 472 201 436T179 338Q179 276 200 241T256 205Q291 205 312 240T334 338Z" />
<glyph unicode="h" glyph-name="h" horiz-adv-x="556" d="M364 500Q396 500 420 493T464 467Q484 449 496 420T508 353V54Q508 31 512 24T530 14L549 10V0H303V10L329 14Q345 17 349 24T353 54V322Q353 374 332 393T278 413Q251 413 232 399T208 376V54Q208 31
212 24T232 14L258 10V0H13V10L32 14Q46 17 50 24T54 54V615L4 636V648Q20 651 46 658T101 675T157 694T201 712L209 706V406Q217 418 231 434T265 465T310 490T364 500Z" />
<glyph unicode="i" glyph-name="i" horiz-adv-x="263" d="M7 431V443Q19 445 41 452T91 468T148 487T200 507L208 501V54Q208 31 211 24T228 14L249 10V0H13V10L32 14Q46 17 50 24T54 54V409L7 431ZM209 615Q209 581 185 559T126 537Q91 537 67 559T43 615Q43
650 67 672T126 694Q161 694 185 672T209 615Z" />
<glyph unicode="j" glyph-name="j" horiz-adv-x="264" d="M7 431V443Q19 445 41 452T91 468T148 487T200 507L208 501V50Q208 -2 192 -43T147 -112T80 -156T-2 -172Q-69 -172 -94 -155T-119 -112Q-119 -92 -106 -80T-73 -67Q-49 -67 -35 -79T-11 -105T7 -132T27
-144Q54 -144 54 -58V409L7 431ZM209 615Q209 581 185 559T126 537Q91 537 67 559T43 615Q43 650 67 672T126 694Q161 694 185 672T209 615Z" />
<glyph unicode="k" glyph-name="k" horiz-adv-x="546" d="M7 636V648Q23 651 48 658T102 675T156 694T200 712L208 706V225L412 460L355 483V490H529V483Q510 477 495 473T465 461T436 443T406 414L349 350L467 122Q482 93 492 74T509 42T523 24T537 13L545 9V-1Q531
-1 508 -1T458 -1T408 -1T366 0Q358 8 343 33T309 97L243 232L208 193V54Q208 31 212 24T230 14L253 10V0H13V10L32 14Q46 17 50 24T54 54V615L7 636Z" />
<glyph unicode="l" glyph-name="l" horiz-adv-x="258" d="M4 638V650Q16 652 39 659T90 675T147 694T200 714L208 708V54Q208 31 212 24T230 14L253 10V0H13V10L32 14Q46 17 50 24T54 54V617L4 638Z" />
<glyph unicode="m" glyph-name="m" horiz-adv-x="832" d="M492 400Q499 412 513 429T548 462T592 489T646 500Q677 500 701 493T746 466Q766 448 775 420T784 353V54Q784 31 788 24T806 14L825 10V0H579V10L605 14Q621 17 625 24T629 54V322Q629 374 611 393T561
413Q548 413 538 409T519 398T505 385T496 374V54Q496 31 500 25T525 14L546 10V0H291V10L317 14Q333 17 337 24T341 54V322Q341 374 323 393T273 413Q260 413 250 409T231 398T217 385T208 374V54Q208 31 212 24T232 14L258 10V0H13V10L32 14Q46 17 50 24T54 54V409L8
431V443Q19 445 41 452T91 468T147 487T199 507L207 501V405Q214 416 227 432T260 463T304 489T358 500Q389 500 413 493T458 466Q471 455 479 437T492 400Z" />
<glyph unicode="n" glyph-name="n" horiz-adv-x="556" d="M13 0V10L32 14Q46 17 50 24T54 54V409L7 431V443Q19 445 41 452T91 468T147 487T199 507L207 501V406Q214 418 227 434T259 464T305 489T364 500Q396 500 420 493T464 467Q484 449 496 420T508 353V54Q508
31 512 24T530 14L549 10V0H303V10L329 14Q345 17 349 24T353 54V322Q353 374 332 393T278 413Q251 413 232 400T208 377V54Q208 31 212 24T232 14L258 10V0H13Z" />
<glyph unicode="o" glyph-name="o" horiz-adv-x="559" d="M543 245Q543 186 522 139T466 58T383 6T283 -12Q230 -12 182 5T97 56T38 135T16 240Q16 298 37 346T94 428T177 481T278 500Q331 500 379 482T463 431T521 350T543 245ZM378 237Q378 287 372 330T354
404T324 454T281 472Q256 472 238 455T207 408T189 336T183 247Q183 199 189 157T207 84T238 34T284 16Q311 16 329 33T358 81T373 152T378 237Z" />
<glyph unicode="p" glyph-name="p" horiz-adv-x="564" d="M-1 431V443Q11 446 33 452T83 468T140 487T192 507L200 501V408Q207 420 220 435T253 465T299 490T359 500Q402 500 437 483T496 434T533 359T546 262Q546 193 522 142T459 57T369 5T266 -12Q243 -12
226 -10T200 -6V-131Q200 -154 205 -160T234 -171L260 -175V-185H6V-175L24 -171Q38 -168 42 -161T46 -131V409L-1 431ZM392 241Q392 327 361 371T276 415Q246 415 227 405T200 387V46Q206 38 222 27T265 15Q295 15 319 31T359 78T383 149T392 241Z" />
<glyph unicode="q" glyph-name="q" horiz-adv-x="564" d="M518 523L526 521Q525 503 524 485Q523 469 523 451T522 417V-131Q522 -154 526 -161T544 -171L563 -175V-185H308V-175L334 -171Q357 -167 362 -161T368 -131V83H365Q357 68 344 52T313 21T271 -3T216
-12Q176 -12 141 2T80 45T38 119T22 226Q22 295 45 346T108 431T197 483T301 500Q360 500 400 492T456 476L518 523ZM176 272Q176 178 207 128T294 78Q322 78 341 89T368 107V431Q360 446 343 459T292 473Q266 473 245 458T208 417T185 353T176 272Z" />
<glyph unicode="r" glyph-name="r" horiz-adv-x="383" d="M205 360Q218 393 233 419T263 465T294 495T324 506Q340 506 352 503T371 495V361Q361 364 349 366T320 369Q284 369 253 358T208 335V54Q208 31 216 24T243 14L269 10V0H13V10L32 14Q46 17 50 24T54 54V409L7
431V443Q19 445 41 452T90 468T145 487T197 507L205 501V360V360Z" />
<glyph unicode="s" glyph-name="s" horiz-adv-x="431" d="M198 13Q240 13 265 34T291 87Q291 125 263 146T173 188Q141 198 114 212T65 245T32 291T20 354Q20 396 37 424T83 469T148 494T222 501Q246 501 266 498T304 493T337 492T366 502H372V363H363Q355 384
342 404T311 439T271 465T222 475Q178 475 159 458T140 415Q140 403 144 393T158 373T188 354T239 333Q275 320 307 305T363 269T401 220T415 153Q415 111 397 80T349 29T280 -2T197 -12Q152 -12 121 -6T68 0Q48 0 32 -10H26V153H35Q42 129 54 104T86 59T133 26T198
13Z" />
<glyph unicode="t" glyph-name="t" horiz-adv-x="371" d="M378 96Q373 85 362 67T330 31T279 1T209 -12Q174 -12 146 -2T97 24T67 63T56 110V447H-3V473Q50 493 101 528T199 623H210V490H378L357 447H210V146Q210 133 213 120T224 97T248 80T290 73Q307 73 321
77T347 87T366 99T378 109V96V96Z" />
<glyph unicode="u" glyph-name="u" horiz-adv-x="552" d="M299 431V443Q311 445 334 452T385 468T442 487T494 507L502 501V63L554 52V39Q537 36 511 29T456 13T400 -3T355 -17L347 -11V85Q340 71 326 55T291 23T246 -2T192 -12Q161 -12 135 -3T89 22T59 62T48
115V409L1 431V443Q13 445 36 452T86 468T143 487T195 507L203 501V173Q203 121 224 103T279 84Q305 84 322 93T348 110V409L299 431Z" />
<glyph unicode="v" glyph-name="v" horiz-adv-x="510" d="M46 447Q43 455 40 459T32 467T18 473T-7 480V490H267V480L210 468L322 142L441 465L366 480V490H517V480Q500 474 491 471T477 464T470 454T463 437L299 -6H217L46 447Z" />
<glyph unicode="w" glyph-name="w" horiz-adv-x="758" d="M44 447Q40 457 38 462T30 471T15 477T-12 483V490H265V483L207 470L294 174L368 421L361 447Q357 457 355 462T347 471T332 477T305 483V490H574V483L516 470L599 173L691 463L616 483V490H770V483Q751
476 741 472T727 464T720 454T713 437L572 -6H496L383 372L267 -6H191L44 447Z" />
<glyph unicode="x" glyph-name="x" horiz-adv-x="526" d="M522 0H246V7L308 20L210 188L85 26L164 7V0H4V7Q20 14 29 18T45 26T57 35T68 50L194 215L55 455Q47 467 38 471T9 483V490H277V483L218 473L303 320L412 465L339 483V490H501V483Q483 477 472 473T455
466T445 460T437 451L318 294L458 45Q463 36 467 31T478 22T495 15T522 7V0Z" />
<glyph unicode="y" glyph-name="y" horiz-adv-x="519" d="M150 -119Q162 -119 172 -117T193 -106T216 -77T243 -23L53 451Q50 457 47 461T37 469T19 476T-11 483V490H266V483L211 463L318 162L432 463L369 483V490H518V483Q499 476 488 471T471 462T461 452T454
438L308 59Q300 39 288 11T261 -45T234 -97T211 -135Q164 -203 102 -203Q69 -203 53 -189T37 -152Q37 -131 50 -118T87 -105Q106 -105 119 -112T150 -119Z" />
<glyph unicode="z" glyph-name="z" horiz-adv-x="462" d="M441 490V467L184 23H352L431 160H441V0H18V20L274 467H121L46 342H35V490H441Z" />
<glyph unicode="{" glyph-name="braceleft" horiz-adv-x="379" d="M47 317Q89 317 113 324T151 344T167 370T171 400Q171 423 161 450T138 505T116 561T105 612Q105 669 167 702T361 740V729Q292 718 265 690T237 615Q237 594 242 570T255 519T267 468T273 420Q273
394 262 375T231 342T185 321T129 312V309Q159 307 185 299T230 277T261 243T273 197Q273 171 268 145T255 94T243 46T237 2Q237 -44 265 -72T361 -112V-123Q230 -119 173 -85T115 11Q115 36 123 61T142 113T162 165T171 217Q171 232 168 246T152 273T114 292T47
300V317Z" />
<glyph unicode="|" glyph-name="bar" horiz-adv-x="259" d="M113 737H147V-120H113V737Z" />
<glyph unicode="}" glyph-name="braceright" horiz-adv-x="379" d="M333 317Q291 317 267 324T229 344T213 370T209 400Q209 423 219 450T242 505T264 561T275 612Q275 669 213 702T19 740V729Q88 718 115 690T143 615Q143 594 138 570T125 519T113 468T107 420Q107
394 118 375T149 342T195 321T251 312V309Q221 307 195 299T150 277T119 243T107 197Q107 171 112 145T125 94T137 46T143 2Q143 -44 115 -72T19 -112V-123Q150 -119 207 -85T265 11Q265 36 257 61T238 113T218 165T209 217Q209 232 212 246T228 273T266 292T333
300V317Z" />
<glyph unicode="~" glyph-name="asciitilde" horiz-adv-x="431" d="M16 200Q19 253 31 291T61 355T100 392T144 404Q164 404 185 394T228 372T269 350T308 340Q327 340 343 349T371 373T392 404T406 432H414Q411 379 400 341T371 278T332 241T287 229Q266 229
244 239T200 260T158 282T120 292Q102 292 87 284T61 263T40 233T24 200H16V200Z" />
<glyph unicode="&#xa0;" glyph-name="uni00A0" horiz-adv-x="142" />
<glyph unicode="&#xa1;" glyph-name="exclamdown" horiz-adv-x="281" d="M140 -147Q98 -147 77 -117T55 -33Q55 0 64 47T86 147T112 253T134 350H146Q154 306 167 253T193 148T215 48T225 -33Q225 -86 204 -116T140 -147ZM230 476Q230 438 204 414T140 390Q102
390 76 414T50 476Q50 512 76 536T140 560Q177 560 203 536T230 476Z" />
<glyph unicode="&#xa2;" glyph-name="cent" horiz-adv-x="455" d="M205 -109L218 -11Q174 -8 137 11T73 61T31 136T16 233Q16 296 37 346T95 430T180 482T281 500H288L297 564H320L311 499Q382 494 414 469T447 407Q447 383 432 368T390 352Q369 352 357 362T337
388T321 421T304 450L257 103Q283 95 311 95Q358 95 391 115T442 154V131Q435 108 420 83T381 37T322 3T241 -12L228 -109H205ZM269 469Q247 469 226 456T189 419T162 362T152 287Q152 260 156 234T171 185T197 143T235 112L284 466Q276 469 269 469Z" />
<glyph unicode="&#xa3;" glyph-name="sterling" horiz-adv-x="527" d="M208 157Q233 157 255 153T299 144T340 135T382 131Q429 131 462 158T515 218L524 214Q518 172 507 131T477 59T428 8T356 -12Q334 -12 310 -4T261 15T209 35T156 44Q118 44 77 30T6 -4L-2
4Q15 44 36 70T76 118T107 164T120 223Q120 248 116 272T104 319H18V343H97Q85 380 74 416T63 488Q63 533 82 569T136 630T219 670T326 684Q350 684 366 682T394 678T415 674T436 672Q459 672 472 685H478V494H469Q459 531 445 562T412 616T372 652T326 665Q288
665 260 630T231 525Q231 484 242 438T260 343H404V319H263Q264 311 264 304T265 288Q265 262 257 241T236 204T206 174T171 151Q189 157 208 157Z" />
<glyph unicode="&#xa5;" glyph-name="yen" horiz-adv-x="616" d="M390 362H537V337H388V255H537V231H388V54Q388 31 400 26T438 16L471 10V0H144V10L178 16Q203 21 215 26T228 53V231H79V255H228V337H79V362H218L74 607Q67 621 61 630T47 645T30 655T11 664V673H323V664L233
639L370 394H376L525 633L437 664V673H605V664Q587 655 577 649T561 636T552 624T543 609L390 362Z" />
<glyph unicode="&#xa6;" glyph-name="brokenbar" horiz-adv-x="284" d="M125 283H159V-120H125V283ZM125 737H159V365H125V737Z" />
<glyph unicode="&#xa7;" glyph-name="section" horiz-adv-x="539" d="M258 -132Q213 -132 173 -125T103 -104T56 -69T39 -18Q39 12 55 28T98 45Q125 45 142 29T170 -27Q176 -47 180 -62T193 -89T217 -107T258 -113Q297 -113 325 -88T354 -17Q354 10 343 28T313
59T268 83T212 104Q171 119 138 134T80 170T43 218T30 283Q30 312 42 334T74 373T116 401T160 420Q125 445 108 475T90 548Q90 585 106 612T150 658T211 684T283 693Q371 693 425 672T479 605Q479 579 464 564T425 548Q402 548 385 561T353 615Q342 646 329 660T285
674Q251 674 227 656T203 600Q203 577 212 561T240 532T283 508T338 484Q378 467 409 452T463 416T498 369T510 304Q510 277 500 255T473 216T435 187T394 167Q426 145 446 114T467 31Q467 -10 450 -40T403 -91T336 -122T258 -132ZM270 364Q215 385 179 407Q162
396 153 379T143 335Q143 312 153 297T181 271T223 249T275 226Q299 215 323 205T369 182Q382 195 389 212T397 252Q397 273 389 288T365 316T325 340T270 364Z" />
<glyph unicode="&#xa8;" glyph-name="dieresis" horiz-adv-x="459" d="M200 627Q200 598 178 579T127 559Q97 559 76 578T54 627Q54 657 75 676T127 696Q156 696 178 677T200 627ZM394 627Q394 598 372 579T320 559Q291 559 270 578T248 627Q248 657 269 676T320
696Q350 696 372 677T394 627Z" />
<glyph unicode="&#xa9;" glyph-name="copyright" horiz-adv-x="713" d="M386 125Q337 125 294 138T219 178T169 246T150 343Q150 400 169 442T221 513T294 554T378 568Q402 568 418 567T446 563T465 559T480 557Q492 557 501 567H506V435H496Q472 496 445 524T379
552Q348 552 330 537T301 495T287 431T283 350Q283 307 287 269T302 202T333 157T386 140Q424 140 452 174T498 273H508V128H503Q497 133 491 135T474 138Q468 138 462 136T447 132T423 127T386 125ZM357 -12Q285 -12 224 14T117 87T47 199T22 345Q22 424 47 489T117
602T223 675T357 701Q429 701 490 675T595 602T665 490T691 345Q691 267 666 201T595 88T489 15T357 -12ZM357 16Q422 16 477 39T573 106T635 210T658 345Q658 420 636 480T573 583T478 649T357 673Q290 673 235 650T139 584T77 481T55 345Q55 271 77 210T140 106T236
40T357 16Z" />
<glyph unicode="&#xaa;" glyph-name="ordfeminine" horiz-adv-x="458" d="M263 329Q263 337 263 356T263 398T263 446T263 491Q243 484 226 479T191 466Q174 459 163 437T151 385Q151 347 168 327T213 307Q230 307 244 315T263 329ZM461 292Q451 275 425 261T367
246Q343 246 326 251T298 266T280 288T268 313H264Q260 305 251 294T226 272T190 254T141 246Q108 246 84 255T44 279T19 313T11 355Q11 382 24 410T66 449Q75 452 99 460T154 477T214 496T263 511V577Q263 633 247 655T199 678Q173 678 160 662T136 625T112 589T73
572Q53 572 42 586T30 618Q30 633 38 648T67 676T119 695T199 703Q241 703 277 697T340 677T382 638T397 579V335Q397 316 403 303T432 290Q442 290 449 293T461 299V292Z" />
<glyph unicode="&#xab;" glyph-name="guillemotleft" horiz-adv-x="503" d="M254 248V258L443 446L452 442L378 253L452 63L443 59L254 248ZM38 248V258L231 446L240 442L162 253L240 63L231 59L38 248Z" />
<glyph unicode="&#xae;" glyph-name="registered" horiz-adv-x="420" d="M211 301Q170 301 135 316T74 357T34 421T19 504Q19 548 33 585T74 648T134 690T210 705Q251 705 286 690T347 649T387 585T402 504Q402 460 388 423T347 358T286 316T211 301ZM210 326Q246
326 275 339T325 375T357 431T369 504Q369 543 358 575T326 631T276 667T210 680Q174 680 145 667T96 631T64 576T53 504Q53 424 95 375T210 326ZM312 562Q312 526 275 509Q285 486 295 465T314 427Q319 419 322 415T333 408V400H253Q241 424 229 450T208 499Q200
499 196 501V428Q196 417 201 414T212 410L223 409V400H104V409L113 410Q121 411 124 414T128 428V591Q128 602 123 605T113 609L104 610V619H207Q266 619 289 603T312 562ZM242 557Q242 584 231 594T196 604V515Q200 513 208 513Q222 513 232 523T242 557Z" />
<glyph unicode="&#xaf;" glyph-name="macron" horiz-adv-x="458" d="M110 664H345V579H110V664Z" />
<glyph unicode="&#xb0;" glyph-name="degree" horiz-adv-x="383" d="M191 451Q238 451 263 481T288 554Q288 597 263 626T190 656Q143 656 118 626T93 554Q93 512 118 482T191 451ZM191 418Q160 418 135 428T91 457T63 501T53 554Q53 582 63 606T91 649T134 678T190
689Q221 689 246 679T290 650T318 607T328 554Q328 526 318 501T290 458T247 429T191 418Z" />
<glyph unicode="&#xb4;" glyph-name="acute" horiz-adv-x="458" d="M202 678Q219 710 237 731T284 753Q309 753 325 738T341 696Q341 648 281 619L144 553L136 558L202 678Z" />
<glyph unicode="&#xb6;" glyph-name="paragraph" horiz-adv-x="565" d="M267 306Q145 306 84 355T22 493Q22 582 82 632T260 683H535V673L509 669Q494 667 489 660T484 629V54Q484 31 489 24T509 14L535 10V0H412V661H339V0H216V10L242 14Q257 16 262 23T267 54V306Z" />
<glyph unicode="&#xb7;" glyph-name="periodcentered" horiz-adv-x="242" d="M211 307Q211 271 185 247T121 223Q84 223 58 247T31 307Q31 345 57 369T121 393Q159 393 185 369T211 307Z" />
<glyph unicode="&#xb8;" glyph-name="cedilla" horiz-adv-x="458" d="M263 -217Q240 -217 221 -211T186 -197T161 -178T145 -158L153 -149Q169 -161 188 -168T233 -175Q252 -175 271 -165T291 -129Q291 -100 272 -90T224 -79V0H247V-59Q312 -50 350 -70T389 -134Q389
-169 355 -193T263 -217Z" />
<glyph unicode="&#xba;" glyph-name="ordmasculine" horiz-adv-x="497" d="M336 468Q336 513 331 551T316 617T289 662T250 678Q227 678 211 663T184 621T168 557T162 477Q162 434 167 397T183 331T212 287T253 271Q277 271 292 286T318 329T332 392T336 468ZM483
475Q483 423 465 381T414 308T340 262T252 246Q204 246 161 261T85 306T33 377T13 471Q13 523 32 566T83 639T157 686T247 703Q294 703 337 687T412 641T464 569T483 475Z" />
<glyph unicode="&#xbb;" glyph-name="guillemotright" horiz-adv-x="503" d="M60 59L51 63L125 253L51 442L60 446L249 258V248L60 59ZM272 59L263 63L341 253L263 442L272 446L465 258V248L272 59Z" />
<glyph unicode="&#xbc;" glyph-name="onequarter" horiz-adv-x="823" d="M227 699V326Q227 302 238 296T264 287L278 284V274H51V284L65 287Q85 291 97 296T109 326V586Q109 611 103 623T73 640L54 644V655Q73 659 95 665T140 677T184 690T221 703L227 699ZM659
713H690L157 -40H126L659 713ZM615 13Q630 16 637 22T645 52V103H454V145L660 420H759V158H827V103H759V52Q759 28 766 22T788 13L809 10V0H594V10L615 13ZM645 158V358L495 158H645Z" />
<glyph unicode="&#xbd;" glyph-name="onehalf" horiz-adv-x="849" d="M648 713H679L146 -40H115L648 713ZM224 699V326Q224 302 235 296T261 287L275 284V274H48V284L62 287Q82 291 94 296T106 326V586Q106 611 100 623T70 640L51 644V655Q70 659 92 665T137 677T181
690T218 703L224 699ZM815 0H508V8Q513 36 528 60T565 107T609 152T652 198T684 250T697 310Q697 339 694 358T686 388T674 404T659 409Q645 409 638 405T627 392T619 370T612 337Q607 312 594 300T560 288Q540 288 529 302T517 335Q517 375 556 400T660 425Q693
425 722 418T773 397T807 360T820 307Q820 272 804 246T764 200T710 166T655 141T610 120T585 101H767Q790 101 799 109T817 135L823 151H833L815 0Z" />
<glyph unicode="&#xbe;" glyph-name="threequarters" horiz-adv-x="856" d="M187 281Q210 281 225 310T240 384Q240 445 213 466T127 487V509Q180 509 200 537T220 611Q220 648 209 666T181 684Q158 684 152 668T139 621Q134 598 121 590T93 582Q77 582 67 594T57
622Q57 658 92 678T183 699Q213 699 241 695T290 681T324 654T337 610Q337 563 301 538T208 505V503Q236 501 263 495T311 477T346 443T359 392Q359 359 345 336T306 297T251 274T187 266Q123 266 83 289T43 352Q43 372 55 384T86 396Q126 396 135 347Q138 332
141 320T149 299T162 286T187 281ZM700 712H731L198 -41H167L700 712ZM650 13Q665 16 672 22T680 52V103H489V145L695 420H794V158H862V103H794V52Q794 28 801 22T823 13L844 10V0H629V10L650 13ZM680 158V358L530 158H680Z" />
<glyph unicode="&#xbf;" glyph-name="questiondown" horiz-adv-x="430" d="M239 299Q239 316 236 333T227 369L238 373Q252 362 268 347T297 313T320 275T329 239Q329 224 322 210T302 182T272 153T233 119Q216 104 203 91T181 64T168 33T163 -7Q163 -59 183 -84T239
-109Q270 -109 281 -89T300 -28Q308 8 323 22T363 37Q385 37 400 20T416 -25Q416 -72 369 -100T236 -128Q194 -128 156 -119T88 -92T41 -46T23 20Q23 77 53 118T140 201Q169 222 188 235T218 258T234 277T239 299ZM153 496Q153 532 179 556T243 580Q280 580 306
556T333 496Q333 458 307 434T243 410Q205 410 179 434T153 496Z" />
<glyph unicode="&#xc0;" glyph-name="Agrave" horiz-adv-x="657" d="M367 251H152L77 43L166 8V0H6V8Q31 21 39 30T52 54L242 576L222 628Q240 630 258 639T292 661T321 686T342 710H357L605 54Q612 35 621 28T651 8V0H361V8L451 34L367 251ZM161 275H358L256
538L161 275ZM407 736L403 728L246 743Q204 748 187 766T169 808Q169 832 184 848T229 865Q242 865 254 860T277 848T297 832T314 817L407 736Z" />
<glyph unicode="&#xc1;" glyph-name="Aacute" horiz-adv-x="657" d="M367 251H152L77 43L166 8V0H6V8Q31 21 39 30T52 54L242 576L222 628Q240 630 258 639T292 661T321 686T342 710H357L605 54Q612 35 621 28T651 8V0H361V8L451 34L367 251ZM161 275H358L256
538L161 275ZM277 817Q284 824 293 832T314 847T337 860T362 865Q392 865 407 849T422 808Q422 785 405 767T345 743L188 728L184 736L277 817Z" />
<glyph unicode="&#xc2;" glyph-name="Acircumflex" horiz-adv-x="657" d="M367 251H152L77 43L166 8V0H6V8Q31 21 39 30T52 54L242 576L222 628Q240 630 258 639T292 661T321 686T342 710H357L605 54Q612 35 621 28T651 8V0H361V8L451 34L367 251ZM161 275H358L256
538L161 275ZM286 871H296L442 718L434 715L291 756L148 715L140 718L286 871Z" />
<glyph unicode="&#xc3;" glyph-name="Atilde" horiz-adv-x="657" d="M367 251H152L77 43L166 8V0H6V8Q31 21 39 30T52 54L242 576L222 628Q240 630 258 639T292 661T321 686T342 710H357L605 54Q612 35 621 28T651 8V0H361V8L451 34L367 251ZM161 275H358L256
538L161 275ZM147 705Q149 732 157 760T178 812T208 849T246 864Q262 864 279 858T313 845T348 831T380 825Q393 825 405 831T427 846T444 866T457 887L464 885Q462 853 454 824T433 773T404 738T369 725Q352 725 334 731T299 744T264 757T232 763Q220 763 209
758T187 743T169 724T154 703L147 705V705Z" />
<glyph unicode="&#xc4;" glyph-name="Adieresis" horiz-adv-x="657" d="M367 251H152L77 43L166 8V0H6V8Q31 21 39 30T52 54L242 576L222 628Q240 630 258 639T292 661T321 686T342 710H357L605 54Q612 35 621 28T651 8V0H361V8L451 34L367 251ZM161 275H358L256
538L161 275ZM470 792Q470 763 448 744T396 724Q367 724 346 743T324 792Q324 822 345 841T396 861Q426 861 448 842T470 792ZM268 792Q268 763 246 744T195 724Q165 724 144 743T122 792Q122 822 143 841T195 861Q224 861 246 842T268 792Z" />
<glyph unicode="&#xc5;" glyph-name="Aring" horiz-adv-x="657" d="M367 251H152L77 43L166 8V0H6V8Q31 21 39 30T52 54L242 576L222 628Q240 630 258 639T292 661T321 686T342 710H357L605 54Q612 35 621 28T651 8V0H361V8L451 34L367 251ZM161 275H358L256 538L161
275ZM293 880Q273 880 259 863T244 817Q244 788 258 771T293 753Q313 753 327 770T342 817Q342 846 327 863T293 880ZM293 726Q248 726 221 752T194 817Q194 856 221 881T293 907Q338 907 365 882T392 817Q392 778 365 752T293 726Z" />
<glyph unicode="&#xc6;" glyph-name="AE" horiz-adv-x="890" d="M840 683V518H828Q803 587 781 624T732 662H578V363H685Q717 363 733 389T758 469H769V233H758Q750 281 734 310T685 339H578V21H745Q769 21 796 58T847 184H858V0H358V10L378 14Q388 16 395 18T407
27T414 43T417 70V297H221L72 43L161 8V0H-4V8Q13 18 23 25T44 49L373 612Q390 641 388 652T358 669L338 673V683H840ZM417 321V630L235 321H417Z" />
<glyph unicode="&#xc7;" glyph-name="Ccedilla" horiz-adv-x="565" d="M280 -59Q345 -50 383 -70T422 -134Q422 -169 388 -193T296 -217Q273 -217 254 -211T219 -197T194 -178T178 -158L186 -149Q202 -161 221 -168T266 -175Q285 -175 304 -165T324 -129Q324 -100
305 -90T257 -79V0Q209 11 167 35T92 99T41 198T22 335Q22 431 52 499T130 610T233 674T343 694Q377 694 401 692T443 686T473 680T495 677Q506 677 512 680T527 692H533V506H523Q488 595 444 634T349 674Q315 674 287 656T237 597T204 496T192 348Q192 259 204
195T239 89T292 27T358 7Q415 7 459 53T526 183H536V-6H530Q522 1 512 5T488 9Q479 9 469 6T444 -1T408 -8T355 -11Q317 -11 280 -5V-59Z" />
<glyph unicode="&#xc8;" glyph-name="Egrave" horiz-adv-x="539" d="M13 10L33 14Q43 16 50 18T62 27T69 43T72 70V613Q72 630 70 640T62 656T50 664T33 669L13 673V683H489V518H477Q452 587 430 624T381 662H233V363H334Q366 363 382 389T407 469H418V233H407Q399
281 383 310T334 339H233V21H394Q418 21 445 58T496 184H507V0H13V10ZM382 736L378 728L221 743Q179 748 162 766T144 808Q144 832 159 848T204 865Q217 865 229 860T252 848T272 832T289 817L382 736Z" />
<glyph unicode="&#xc9;" glyph-name="Eacute" horiz-adv-x="539" d="M13 10L33 14Q43 16 50 18T62 27T69 43T72 70V613Q72 630 70 640T62 656T50 664T33 669L13 673V683H489V518H477Q452 587 430 624T381 662H233V363H334Q366 363 382 389T407 469H418V233H407Q399
281 383 310T334 339H233V21H394Q418 21 445 58T496 184H507V0H13V10ZM251 817Q258 824 267 832T288 847T311 860T336 865Q366 865 381 849T396 808Q396 785 379 767T319 743L162 728L158 736L251 817Z" />
<glyph unicode="&#xca;" glyph-name="Ecircumflex" horiz-adv-x="539" d="M13 10L33 14Q43 16 50 18T62 27T69 43T72 70V613Q72 630 70 640T62 656T50 664T33 669L13 673V683H489V518H477Q452 587 430 624T381 662H233V363H334Q366 363 382 389T407 469H418V233H407Q399
281 383 310T334 339H233V21H394Q418 21 445 58T496 184H507V0H13V10ZM264 871H274L420 718L412 715L269 756L126 715L118 718L264 871Z" />
<glyph unicode="&#xcb;" glyph-name="Edieresis" horiz-adv-x="539" d="M13 10L33 14Q43 16 50 18T62 27T69 43T72 70V613Q72 630 70 640T62 656T50 664T33 669L13 673V683H489V518H477Q452 587 430 624T381 662H233V363H334Q366 363 382 389T407 469H418V233H407Q399
281 383 310T334 339H233V21H394Q418 21 445 58T496 184H507V0H13V10ZM443 792Q443 763 421 744T369 724Q340 724 319 743T297 792Q297 822 318 841T369 861Q399 861 421 842T443 792ZM241 792Q241 763 219 744T168 724Q138 724 117 743T95 792Q95 822 116 841T168
861Q197 861 219 842T241 792Z" />
<glyph unicode="&#xcc;" glyph-name="Igrave" horiz-adv-x="302" d="M69 630Q69 652 64 659T44 669L15 673V683H287V673L259 669Q244 667 239 660T234 629V54Q234 31 239 24T259 14L287 10V0H15V10L44 14Q58 16 63 23T69 53V630V630ZM519 736L515 728L358 743Q316
748 299 766T281 808Q281 832 296 848T341 865Q354 865 366 860T389 848T409 832T426 817L519 736Z" />
<glyph unicode="&#xcd;" glyph-name="Iacute" horiz-adv-x="302" d="M69 630Q69 652 64 659T44 669L15 673V683H287V673L259 669Q244 667 239 660T234 629V54Q234 31 239 24T259 14L287 10V0H15V10L44 14Q58 16 63 23T69 53V630V630ZM389 817Q396 824 405 832T426
847T449 860T474 865Q504 865 519 849T534 808Q534 785 517 767T457 743L300 728L296 736L389 817Z" />
<glyph unicode="&#xce;" glyph-name="Icircumflex" horiz-adv-x="302" d="M69 630Q69 652 64 659T44 669L15 673V683H287V673L259 669Q244 667 239 660T234 629V54Q234 31 239 24T259 14L287 10V0H15V10L44 14Q58 16 63 23T69 53V630V630ZM403 871H413L559 718L551
715L408 756L265 715L257 718L403 871Z" />
<glyph unicode="&#xcf;" glyph-name="Idieresis" horiz-adv-x="302" d="M69 630Q69 652 64 659T44 669L15 673V683H287V673L259 669Q244 667 239 660T234 629V54Q234 31 239 24T259 14L287 10V0H15V10L44 14Q58 16 63 23T69 53V630V630ZM582 792Q582 763 560 744T508
724Q479 724 458 743T436 792Q436 822 457 841T508 861Q538 861 560 842T582 792ZM380 792Q380 763 358 744T307 724Q277 724 256 743T234 792Q234 822 255 841T307 861Q336 861 358 842T380 792Z" />
<glyph unicode="&#xd0;" glyph-name="Eth" horiz-adv-x="666" d="M18 10L38 14Q48 16 55 18T67 27T74 43T77 70V338H9V362H77V613Q77 630 75 640T67 656T55 664T38 669L18 673V683H299Q367 683 429 663T538 603T614 501T643 355Q643 275 618 210T546 98T435 26T292
0H18V10ZM238 362H352V338H238V21H287Q379 21 427 102T475 336Q475 430 461 493T418 594T344 648T238 662V362Z" />
<glyph unicode="&#xd1;" glyph-name="Ntilde" horiz-adv-x="654" d="M548 613Q548 630 546 640T538 656T524 664T505 669L482 673V683H645V673L625 669Q615 667 606 665T591 656T580 640T576 613V165Q576 71 579 -1L504 -4L110 598H108V70Q108 53 110 43T118 27T132
19T151 14L174 10V0H11V10L31 14Q41 16 49 18T65 27T76 43T80 70V613Q80 630 76 640T65 656T50 664T31 669L11 673V683H232L544 205H548V613V613ZM197 705Q199 732 207 760T228 812T258 849T296 864Q312 864 329 858T363 845T398 831T430 825Q443 825 455 831T477
846T494 866T507 887L514 885Q512 853 504 824T483 773T454 738T419 725Q402 725 384 731T349 744T314 757T282 763Q270 763 259 758T237 743T219 724T204 703L197 705V705Z" />
<glyph unicode="&#xd2;" glyph-name="Ograve" horiz-adv-x="675" d="M484 349Q484 419 473 479T442 582T395 650T334 675Q300 675 274 649T229 577T202 469T192 335Q192 266 204 206T237 102T286 32T348 7Q382 7 407 34T450 108T475 217T484 349ZM653 351Q653
271 629 205T562 90T464 16T342 -11Q277 -11 219 12T117 79T48 187T22 333Q22 415 46 481T113 595T211 668T333 694Q398 694 456 671T558 603T627 495T653 351ZM448 736L444 728L287 743Q245 748 228 766T210 808Q210 832 225 848T270 865Q283 865 295 860T318
848T338 832T355 817L448 736Z" />
<glyph unicode="&#xd3;" glyph-name="Oacute" horiz-adv-x="675" d="M484 349Q484 419 473 479T442 582T395 650T334 675Q300 675 274 649T229 577T202 469T192 335Q192 266 204 206T237 102T286 32T348 7Q382 7 407 34T450 108T475 217T484 349ZM653 351Q653
271 629 205T562 90T464 16T342 -11Q277 -11 219 12T117 79T48 187T22 333Q22 415 46 481T113 595T211 668T333 694Q398 694 456 671T558 603T627 495T653 351ZM318 817Q325 824 334 832T355 847T378 860T403 865Q433 865 448 849T463 808Q463 785 446 767T386
743L229 728L225 736L318 817Z" />
<glyph unicode="&#xd4;" glyph-name="Ocircumflex" horiz-adv-x="675" d="M484 349Q484 419 473 479T442 582T395 650T334 675Q300 675 274 649T229 577T202 469T192 335Q192 266 204 206T237 102T286 32T348 7Q382 7 407 34T450 108T475 217T484 349ZM653 351Q653
271 629 205T562 90T464 16T342 -11Q277 -11 219 12T117 79T48 187T22 333Q22 415 46 481T113 595T211 668T333 694Q398 694 456 671T558 603T627 495T653 351ZM332 871H342L488 718L480 715L337 756L194 715L186 718L332 871Z" />
<glyph unicode="&#xd5;" glyph-name="Otilde" horiz-adv-x="675" d="M484 349Q484 419 473 479T442 582T395 650T334 675Q300 675 274 649T229 577T202 469T192 335Q192 266 204 206T237 102T286 32T348 7Q382 7 407 34T450 108T475 217T484 349ZM653 351Q653
271 629 205T562 90T464 16T342 -11Q277 -11 219 12T117 79T48 187T22 333Q22 415 46 481T113 595T211 668T333 694Q398 694 456 671T558 603T627 495T653 351ZM186 705Q188 732 196 760T217 812T247 849T285 864Q301 864 318 858T352 845T387 831T419 825Q432
825 444 831T466 846T483 866T496 887L503 885Q501 853 493 824T472 773T443 738T408 725Q391 725 373 731T338 744T303 757T271 763Q259 763 248 758T226 743T208 724T193 703L186 705V705Z" />
<glyph unicode="&#xd6;" glyph-name="Odieresis" horiz-adv-x="675" d="M484 349Q484 419 473 479T442 582T395 650T334 675Q300 675 274 649T229 577T202 469T192 335Q192 266 204 206T237 102T286 32T348 7Q382 7 407 34T450 108T475 217T484 349ZM653 351Q653
271 629 205T562 90T464 16T342 -11Q277 -11 219 12T117 79T48 187T22 333Q22 415 46 481T113 595T211 668T333 694Q398 694 456 671T558 603T627 495T653 351ZM511 792Q511 763 489 744T437 724Q408 724 387 743T365 792Q365 822 386 841T437 861Q467 861 489
842T511 792ZM309 792Q309 763 287 744T236 724Q206 724 185 743T163 792Q163 822 184 841T236 861Q265 861 287 842T309 792Z" />
<glyph unicode="&#xd7;" glyph-name="multiply" horiz-adv-x="515" d="M76 177L232 335L77 491L103 518L258 361L412 517L437 492L283 336L439 178L414 153L257 310L101 152L76 177Z" />
<glyph unicode="&#xd8;" glyph-name="Oslash" horiz-adv-x="675" d="M654 351Q654 271 630 205T563 90T465 16T343 -11Q289 -11 240 4T150 51L89 -38L66 -23L129 68Q80 113 52 179T23 333Q23 415 47 481T114 595T212 668T334 694Q386 694 434 679T522 634L574
709L597 694L543 617Q594 572 624 505T654 351ZM485 349Q485 393 480 433T467 508L219 150Q239 84 273 46T349 7Q383 7 408 34T451 108T476 217T485 349ZM193 335Q193 293 197 256T209 184L458 542Q438 604 407 639T335 675Q301 675 275 649T230 577T203 469T193
335Z" />
<glyph unicode="&#xd9;" glyph-name="Ugrave" horiz-adv-x="643" d="M545 613Q545 630 543 640T535 656T521 664T502 669L479 673V683H632V673L612 669Q602 667 595 665T583 656T576 640T573 613V258Q573 186 555 135T506 52T432 6T339 -9Q288 -9 240 3T154 45T93
122T70 241V613Q70 630 68 640T60 656T48 664T31 669L11 673V683H297V673L274 669Q263 667 255 665T242 656T234 640T231 613V238Q231 140 269 89T386 37Q416 37 445 47T496 83T531 147T545 246V613V613ZM470 736L466 728L309 743Q267 748 250 766T232 808Q232
832 247 848T292 865Q305 865 317 860T340 848T360 832T377 817L470 736Z" />
<glyph unicode="&#xda;" glyph-name="Uacute" horiz-adv-x="643" d="M545 613Q545 630 543 640T535 656T521 664T502 669L479 673V683H632V673L612 669Q602 667 595 665T583 656T576 640T573 613V258Q573 186 555 135T506 52T432 6T339 -9Q288 -9 240 3T154 45T93
122T70 241V613Q70 630 68 640T60 656T48 664T31 669L11 673V683H297V673L274 669Q263 667 255 665T242 656T234 640T231 613V238Q231 140 269 89T386 37Q416 37 445 47T496 83T531 147T545 246V613V613ZM343 817Q350 824 359 832T380 847T403 860T428 865Q458
865 473 849T488 808Q488 785 471 767T411 743L254 728L250 736L343 817Z" />
<glyph unicode="&#xdb;" glyph-name="Ucircumflex" horiz-adv-x="643" d="M545 613Q545 630 543 640T535 656T521 664T502 669L479 673V683H632V673L612 669Q602 667 595 665T583 656T576 640T573 613V258Q573 186 555 135T506 52T432 6T339 -9Q288 -9 240 3T154
45T93 122T70 241V613Q70 630 68 640T60 656T48 664T31 669L11 673V683H297V673L274 669Q263 667 255 665T242 656T234 640T231 613V238Q231 140 269 89T386 37Q416 37 445 47T496 83T531 147T545 246V613V613ZM350 871H360L506 718L498 715L355 756L212 715L204
718L350 871Z" />
<glyph unicode="&#xdc;" glyph-name="Udieresis" horiz-adv-x="643" d="M545 613Q545 630 543 640T535 656T521 664T502 669L479 673V683H632V673L612 669Q602 667 595 665T583 656T576 640T573 613V258Q573 186 555 135T506 52T432 6T339 -9Q288 -9 240 3T154
45T93 122T70 241V613Q70 630 68 640T60 656T48 664T31 669L11 673V683H297V673L274 669Q263 667 255 665T242 656T234 640T231 613V238Q231 140 269 89T386 37Q416 37 445 47T496 83T531 147T545 246V613V613ZM529 792Q529 763 507 744T455 724Q426 724 405 743T383
792Q383 822 404 841T455 861Q485 861 507 842T529 792ZM327 792Q327 763 305 744T254 724Q224 724 203 743T181 792Q181 822 202 841T254 861Q283 861 305 842T327 792Z" />
<glyph unicode="&#xdd;" glyph-name="Yacute" horiz-adv-x="594" d="M377 341V54Q377 31 389 26T427 16L460 10V0H133V10L167 16Q192 21 204 26T217 53V326L63 617Q56 631 50 640T36 655T19 665T0 674V683H312V674L222 649L359 378H365L514 643L426 674V683H594V674Q576
665 566 659T550 646T541 634T532 619L377 341ZM316 817Q323 824 332 832T353 847T376 860T401 865Q431 865 446 849T461 808Q461 785 444 767T384 743L227 728L223 736L316 817Z" />
<glyph unicode="&#xde;" glyph-name="Thorn" horiz-adv-x="610" d="M229 54Q229 31 234 24T256 14L287 10V0H11V10L36 14Q51 16 55 23T60 53V630Q60 652 56 659T36 669L11 673V683H287V673L256 669Q239 667 234 660T229 629V545H298Q453 545 525 498T598 370Q598
272 510 220T262 162V179Q362 194 405 245T448 367Q448 400 439 429T406 479T339 512T229 524V54V54Z" />
<glyph unicode="&#xdf;" glyph-name="germandbls" horiz-adv-x="626" d="M558 601Q558 564 533 540T478 497T422 460T397 417Q397 403 404 392T425 370T461 344T511 311Q536 294 555 277T588 241T609 197T616 140Q616 104 600 76T556 28T496 -2T429 -12Q390 -12
370 -4T334 4Q326 4 319 1T309 -5H303V154H313Q331 85 362 49T429 13Q462 13 479 34T496 83Q496 115 476 137T413 191Q384 211 361 228T322 264T297 302T288 349Q288 373 298 390T323 423T356 454T389 489T415 535T425 597Q425 635 403 661T330 688Q286 688 261
661T235 584V54Q235 31 241 24T263 14L286 10V0H30V10L51 14Q68 17 74 24T81 54V447H3V450L18 490H81V537Q81 567 95 599T141 657T220 699T334 716Q449 716 503 687T558 601Z" />
<glyph unicode="&#xe0;" glyph-name="agrave" horiz-adv-x="508" d="M527 40Q522 30 512 21T487 5T456 -7T421 -12Q394 -12 375 -6T344 10T323 34T310 63H306Q301 54 291 41T264 17T223 -3T167 -12Q130 -12 103 -2T57 25T30 64T21 111Q21 141 35 172T83 216Q93
220 120 228T182 247T249 268T304 286V360Q304 423 287 448T233 474Q203 474 189 456T162 415T135 374T91 355Q68 355 55 370T42 406Q42 423 51 440T83 471T142 493T233 502Q280 502 320 495T391 472T438 429T455 363V88Q455 67 462 53T495 38Q506 38 514 42T527
48V40ZM304 81Q304 90 304 111T304 159T304 214T304 264Q282 256 263 251T223 236Q204 228 191 203T178 144Q178 101 197 79T248 57Q268 57 283 66T304 81ZM341 558L333 553L196 619Q136 648 136 696Q136 722 152 737T193 753Q221 753 239 732T275 678L341 558Z"
/>
<glyph unicode="&#xe1;" glyph-name="aacute" horiz-adv-x="508" d="M527 40Q522 30 512 21T487 5T456 -7T421 -12Q394 -12 375 -6T344 10T323 34T310 63H306Q301 54 291 41T264 17T223 -3T167 -12Q130 -12 103 -2T57 25T30 64T21 111Q21 141 35 172T83 216Q93
220 120 228T182 247T249 268T304 286V360Q304 423 287 448T233 474Q203 474 189 456T162 415T135 374T91 355Q68 355 55 370T42 406Q42 423 51 440T83 471T142 493T233 502Q280 502 320 495T391 472T438 429T455 363V88Q455 67 462 53T495 38Q506 38 514 42T527
48V40ZM304 81Q304 90 304 111T304 159T304 214T304 264Q282 256 263 251T223 236Q204 228 191 203T178 144Q178 101 197 79T248 57Q268 57 283 66T304 81ZM218 678Q235 710 253 731T300 753Q325 753 341 738T357 696Q357 648 297 619L160 553L152 558L218 678Z"
/>
<glyph unicode="&#xe2;" glyph-name="acircumflex" horiz-adv-x="508" d="M527 40Q522 30 512 21T487 5T456 -7T421 -12Q394 -12 375 -6T344 10T323 34T310 63H306Q301 54 291 41T264 17T223 -3T167 -12Q130 -12 103 -2T57 25T30 64T21 111Q21 141 35 172T83 216Q93
220 120 228T182 247T249 268T304 286V360Q304 423 287 448T233 474Q203 474 189 456T162 415T135 374T91 355Q68 355 55 370T42 406Q42 423 51 440T83 471T142 493T233 502Q280 502 320 495T391 472T438 429T455 363V88Q455 67 462 53T495 38Q506 38 514 42T527
48V40ZM304 81Q304 90 304 111T304 159T304 214T304 264Q282 256 263 251T223 236Q204 228 191 203T178 144Q178 101 197 79T248 57Q268 57 283 66T304 81ZM242 748H252L388 551L380 548L247 613L114 548L106 551L242 748Z" />
<glyph unicode="&#xe3;" glyph-name="atilde" horiz-adv-x="508" d="M527 40Q522 30 512 21T487 5T456 -7T421 -12Q394 -12 375 -6T344 10T323 34T310 63H306Q301 54 291 41T264 17T223 -3T167 -12Q130 -12 103 -2T57 25T30 64T21 111Q21 141 35 172T83 216Q93
220 120 228T182 247T249 268T304 286V360Q304 423 287 448T233 474Q203 474 189 456T162 415T135 374T91 355Q68 355 55 370T42 406Q42 423 51 440T83 471T142 493T233 502Q280 502 320 495T391 472T438 429T455 363V88Q455 67 462 53T495 38Q506 38 514 42T527
48V40ZM304 81Q304 90 304 111T304 159T304 214T304 264Q282 256 263 251T223 236Q204 228 191 203T178 144Q178 101 197 79T248 57Q268 57 283 66T304 81ZM99 546Q101 573 108 601T128 653T157 691T193 706Q208 706 223 700T255 686T287 672T317 666Q329 666 340
672T360 687T376 707T389 728L396 726Q394 694 386 665T366 613T339 578T306 565Q290 565 274 571T241 584T209 598T179 604Q168 604 158 599T138 584T120 565T106 544L99 546V546Z" />
<glyph unicode="&#xe4;" glyph-name="adieresis" horiz-adv-x="508" d="M527 40Q522 30 512 21T487 5T456 -7T421 -12Q394 -12 375 -6T344 10T323 34T310 63H306Q301 54 291 41T264 17T223 -3T167 -12Q130 -12 103 -2T57 25T30 64T21 111Q21 141 35 172T83 216Q93
220 120 228T182 247T249 268T304 286V360Q304 423 287 448T233 474Q203 474 189 456T162 415T135 374T91 355Q68 355 55 370T42 406Q42 423 51 440T83 471T142 493T233 502Q280 502 320 495T391 472T438 429T455 363V88Q455 67 462 53T495 38Q506 38 514 42T527
48V40ZM304 81Q304 90 304 111T304 159T304 214T304 264Q282 256 263 251T223 236Q204 228 191 203T178 144Q178 101 197 79T248 57Q268 57 283 66T304 81ZM223 627Q223 598 201 579T150 559Q120 559 99 578T77 627Q77 657 98 676T150 696Q179 696 201 677T223
627ZM417 627Q417 598 395 579T343 559Q314 559 293 578T271 627Q271 657 292 676T343 696Q373 696 395 677T417 627Z" />
<glyph unicode="&#xe5;" glyph-name="aring" horiz-adv-x="508" d="M527 40Q522 30 512 21T487 5T456 -7T421 -12Q394 -12 375 -6T344 10T323 34T310 63H306Q301 54 291 41T264 17T223 -3T167 -12Q130 -12 103 -2T57 25T30 64T21 111Q21 141 35 172T83 216Q93
220 120 228T182 247T249 268T304 286V360Q304 423 287 448T233 474Q203 474 189 456T162 415T135 374T91 355Q68 355 55 370T42 406Q42 423 51 440T83 471T142 493T233 502Q280 502 320 495T391 472T438 429T455 363V88Q455 67 462 53T495 38Q506 38 514 42T527
48V40ZM304 81Q304 90 304 111T304 159T304 214T304 264Q282 256 263 251T223 236Q204 228 191 203T178 144Q178 101 197 79T248 57Q268 57 283 66T304 81ZM247 551Q202 551 175 577T148 642Q148 681 175 706T247 732Q292 732 319 707T346 642Q346 603 319 577T247
551ZM247 578Q267 578 281 595T296 642Q296 671 281 688T247 705Q227 705 213 688T198 642Q198 613 212 596T247 578Z" />
<glyph unicode="&#xe6;" glyph-name="ae" horiz-adv-x="781" d="M445 280Q447 191 489 143T613 95Q639 95 663 101T707 117T743 138T766 159V136Q761 118 745 93T702 45T636 5T543 -12Q474 -12 423 12T340 83Q332 69 319 53T285 22T235 -2T168 -12Q132 -12 105
-2T59 25T31 64T21 111Q21 141 35 172T83 216Q93 220 119 228T178 247T243 268T297 286V360Q297 423 281 448T229 474Q209 474 197 465T176 443T160 415T144 386T123 364T91 355Q68 355 55 370T42 406Q42 423 51 440T82 471T139 493T229 502Q286 502 331 492T406
456Q471 501 546 501Q587 501 625 488T692 448T740 380T762 280H445ZM297 236Q297 243 297 249T298 263Q279 256 260 250T223 235Q204 227 191 202T178 144Q178 101 197 79T248 57Q279 57 300 72T329 100Q297 156 297 236ZM544 473Q527 473 510 461T479 428T456
375T445 306L583 313Q597 314 601 319T605 339Q605 409 587 441T544 473Z" />
<glyph unicode="&#xe7;" glyph-name="ccedilla" horiz-adv-x="438" d="M220 -217Q197 -217 178 -211T143 -197T118 -178T102 -158L110 -149Q126 -161 145 -168T190 -175Q209 -175 228 -165T248 -129Q248 -100 229 -90T181 -79V-5Q144 4 114 24T62 76T28 146T16
233Q16 296 37 346T92 430T171 482T261 500Q345 500 384 474T423 407Q423 383 408 368T366 352Q348 352 337 360T317 382T303 410T290 439T274 460T249 469Q234 469 217 456T186 419T162 362T152 287Q152 251 160 217T188 155T237 112T311 95Q358 95 391 115T442
154V131Q435 108 420 83T380 37T320 2T238 -12Q229 -12 221 -12T204 -10V-59Q269 -50 307 -70T346 -134Q346 -169 312 -193T220 -217Z" />
<glyph unicode="&#xe8;" glyph-name="egrave" horiz-adv-x="516" d="M169 280Q171 191 215 143T344 95Q371 95 396 101T441 117T477 138T501 159V136Q496 118 480 93T436 45T368 5T274 -12Q216 -12 170 5T90 54T39 133T21 236Q21 297 43 346T101 429T183 482T277
501Q319 501 358 488T427 448T475 380T497 280H169ZM275 473Q257 473 239 461T206 428T181 375T169 305L318 313Q332 314 336 319T340 339Q340 409 321 441T275 473ZM364 558L356 553L219 619Q159 648 159 696Q159 722 175 737T216 753Q244 753 262 732T298 678L364
558Z" />
<glyph unicode="&#xe9;" glyph-name="eacute" horiz-adv-x="516" d="M169 280Q171 191 215 143T344 95Q371 95 396 101T441 117T477 138T501 159V136Q496 118 480 93T436 45T368 5T274 -12Q216 -12 170 5T90 54T39 133T21 236Q21 297 43 346T101 429T183 482T277
501Q319 501 358 488T427 448T475 380T497 280H169ZM275 473Q257 473 239 461T206 428T181 375T169 305L318 313Q332 314 336 319T340 339Q340 409 321 441T275 473ZM241 678Q258 710 276 731T323 753Q348 753 364 738T380 696Q380 648 320 619L183 553L175 558L241
678Z" />
<glyph unicode="&#xea;" glyph-name="ecircumflex" horiz-adv-x="516" d="M169 280Q171 191 215 143T344 95Q371 95 396 101T441 117T477 138T501 159V136Q496 118 480 93T436 45T368 5T274 -12Q216 -12 170 5T90 54T39 133T21 236Q21 297 43 346T101 429T183
482T277 501Q319 501 358 488T427 448T475 380T497 280H169ZM275 473Q257 473 239 461T206 428T181 375T169 305L318 313Q332 314 336 319T340 339Q340 409 321 441T275 473ZM265 748H275L411 551L403 548L270 613L137 548L129 551L265 748Z" />
<glyph unicode="&#xeb;" glyph-name="edieresis" horiz-adv-x="516" d="M169 280Q171 191 215 143T344 95Q371 95 396 101T441 117T477 138T501 159V136Q496 118 480 93T436 45T368 5T274 -12Q216 -12 170 5T90 54T39 133T21 236Q21 297 43 346T101 429T183 482T277
501Q319 501 358 488T427 448T475 380T497 280H169ZM275 473Q257 473 239 461T206 428T181 375T169 305L318 313Q332 314 336 319T340 339Q340 409 321 441T275 473ZM246 627Q246 598 224 579T173 559Q143 559 122 578T100 627Q100 657 121 676T173 696Q202 696
224 677T246 627ZM440 627Q440 598 418 579T366 559Q337 559 316 578T294 627Q294 657 315 676T366 696Q396 696 418 677T440 627Z" />
<glyph unicode="&#xec;" glyph-name="igrave" horiz-adv-x="263" d="M208 54Q208 31 211 24T228 14L249 10V0H13V10L32 14Q46 17 50 24T54 54V409L7 431V443Q19 445 41 452T91 468T148 487T200 507L208 501V54V54ZM482 558L474 553L337 619Q277 648 277 696Q277
722 293 737T334 753Q362 753 380 732T416 678L482 558Z" />
<glyph unicode="&#xed;" glyph-name="iacute" horiz-adv-x="263" d="M208 54Q208 31 211 24T228 14L249 10V0H13V10L32 14Q46 17 50 24T54 54V409L7 431V443Q19 445 41 452T91 468T148 487T200 507L208 501V54V54ZM359 678Q376 710 394 731T441 753Q466 753 482
738T498 696Q498 648 438 619L301 553L293 558L359 678Z" />
<glyph unicode="&#xee;" glyph-name="icircumflex" horiz-adv-x="263" d="M208 54Q208 31 211 24T228 14L249 10V0H13V10L32 14Q46 17 50 24T54 54V409L7 431V443Q19 445 41 452T91 468T148 487T200 507L208 501V54V54ZM383 748H393L529 551L521 548L388 613L255
548L247 551L383 748Z" />
<glyph unicode="&#xef;" glyph-name="idieresis" horiz-adv-x="263" d="M208 54Q208 31 211 24T228 14L249 10V0H13V10L32 14Q46 17 50 24T54 54V409L7 431V443Q19 445 41 452T91 468T148 487T200 507L208 501V54V54ZM364 627Q364 598 342 579T291 559Q261 559
240 578T218 627Q218 657 239 676T291 696Q320 696 342 677T364 627ZM558 627Q558 598 536 579T484 559Q455 559 434 578T412 627Q412 657 433 676T484 696Q514 696 536 677T558 627Z" />
<glyph unicode="&#xf0;" glyph-name="eth" horiz-adv-x="561" d="M363 623Q399 599 432 569T489 501T529 417T544 314Q544 237 525 177T471 74T389 10T284 -12Q230 -12 182 5T97 56T40 135T18 239Q18 295 37 341T91 419T174 470T282 488Q305 488 321 485T349 476Q324
539 287 587L147 520L135 546L268 609Q241 641 213 664T162 705L180 710Q213 699 252 682T334 641L438 691L450 665L363 623ZM378 306Q378 345 373 380T359 445Q335 458 302 458Q274 458 253 442T216 397T193 327T185 236Q185 182 195 141T220 73T252 31T285 16Q325
16 351 87T378 306Z" />
<glyph unicode="&#xf1;" glyph-name="ntilde" horiz-adv-x="556" d="M13 0V10L32 14Q46 17 50 24T54 54V409L7 431V443Q19 445 41 452T91 468T147 487T199 507L207 501V406Q214 418 227 434T259 464T305 489T364 500Q396 500 420 493T464 467Q484 449 496 420T508
353V54Q508 31 512 24T530 14L549 10V0H303V10L329 14Q345 17 349 24T353 54V322Q353 374 332 393T278 413Q251 413 232 400T208 377V54Q208 31 212 24T232 14L258 10V0H13ZM139 546Q141 573 148 601T168 653T197 691T233 706Q248 706 263 700T295 686T327 672T357
666Q369 666 380 672T400 687T416 707T429 728L436 726Q434 694 426 665T406 613T379 578T346 565Q330 565 314 571T281 584T249 598T219 604Q208 604 198 599T178 584T160 565T146 544L139 546V546Z" />
<glyph unicode="&#xf2;" glyph-name="ograve" horiz-adv-x="559" d="M543 245Q543 186 522 139T466 58T383 6T283 -12Q230 -12 182 5T97 56T38 135T16 240Q16 298 37 346T94 428T177 481T278 500Q331 500 379 482T463 431T521 350T543 245ZM378 237Q378 287 372
330T354 404T324 454T281 472Q256 472 238 455T207 408T189 336T183 247Q183 199 189 157T207 84T238 34T284 16Q311 16 329 33T358 81T373 152T378 237ZM375 558L367 553L230 619Q170 648 170 696Q170 722 186 737T227 753Q255 753 273 732T309 678L375 558Z"
/>
<glyph unicode="&#xf3;" glyph-name="oacute" horiz-adv-x="559" d="M543 245Q543 186 522 139T466 58T383 6T283 -12Q230 -12 182 5T97 56T38 135T16 240Q16 298 37 346T94 428T177 481T278 500Q331 500 379 482T463 431T521 350T543 245ZM378 237Q378 287 372
330T354 404T324 454T281 472Q256 472 238 455T207 408T189 336T183 247Q183 199 189 157T207 84T238 34T284 16Q311 16 329 33T358 81T373 152T378 237ZM252 678Q269 710 287 731T334 753Q359 753 375 738T391 696Q391 648 331 619L194 553L186 558L252 678Z"
/>
<glyph unicode="&#xf4;" glyph-name="ocircumflex" horiz-adv-x="559" d="M543 245Q543 186 522 139T466 58T383 6T283 -12Q230 -12 182 5T97 56T38 135T16 240Q16 298 37 346T94 428T177 481T278 500Q331 500 379 482T463 431T521 350T543 245ZM378 237Q378 287
372 330T354 404T324 454T281 472Q256 472 238 455T207 408T189 336T183 247Q183 199 189 157T207 84T238 34T284 16Q311 16 329 33T358 81T373 152T378 237ZM276 748H286L422 551L414 548L281 613L148 548L140 551L276 748Z" />
<glyph unicode="&#xf5;" glyph-name="otilde" horiz-adv-x="559" d="M543 245Q543 186 522 139T466 58T383 6T283 -12Q230 -12 182 5T97 56T38 135T16 240Q16 298 37 346T94 428T177 481T278 500Q331 500 379 482T463 431T521 350T543 245ZM378 237Q378 287 372
330T354 404T324 454T281 472Q256 472 238 455T207 408T189 336T183 247Q183 199 189 157T207 84T238 34T284 16Q311 16 329 33T358 81T373 152T378 237ZM133 546Q135 573 142 601T162 653T191 691T227 706Q242 706 257 700T289 686T321 672T351 666Q363 666 374
672T394 687T410 707T423 728L430 726Q428 694 420 665T400 613T373 578T340 565Q324 565 308 571T275 584T243 598T213 604Q202 604 192 599T172 584T154 565T140 544L133 546V546Z" />
<glyph unicode="&#xf6;" glyph-name="odieresis" horiz-adv-x="559" d="M543 245Q543 186 522 139T466 58T383 6T283 -12Q230 -12 182 5T97 56T38 135T16 240Q16 298 37 346T94 428T177 481T278 500Q331 500 379 482T463 431T521 350T543 245ZM378 237Q378 287
372 330T354 404T324 454T281 472Q256 472 238 455T207 408T189 336T183 247Q183 199 189 157T207 84T238 34T284 16Q311 16 329 33T358 81T373 152T378 237ZM257 627Q257 598 235 579T184 559Q154 559 133 578T111 627Q111 657 132 676T184 696Q213 696 235 677T257
627ZM451 627Q451 598 429 579T377 559Q348 559 327 578T305 627Q305 657 326 676T377 696Q407 696 429 677T451 627Z" />
<glyph unicode="&#xf7;" glyph-name="divide" horiz-adv-x="484" d="M33 328V362H453V328H33ZM298 176Q298 153 282 137T243 121Q220 121 204 137T188 176Q188 199 204 215T243 231Q266 231 282 215T298 176ZM298 509Q298 486 282 470T243 454Q220 454 204 470T188
509Q188 532 204 548T243 564Q266 564 282 548T298 509Z" />
<glyph unicode="&#xf8;" glyph-name="oslash" horiz-adv-x="559" d="M543 245Q543 186 522 139T466 58T383 6T283 -12Q248 -12 215 -4T151 18L113 -43L89 -30L128 32Q77 64 47 117T16 240Q16 298 37 346T94 428T177 481T278 500Q345 500 403 471L439 528L463 514L427
458Q479 425 511 371T543 245ZM378 237Q378 307 366 361L201 98Q213 60 233 38T284 16Q311 16 329 33T358 81T373 152T378 237ZM183 247Q183 184 192 135L357 397Q345 432 326 452T281 472Q256 472 238 455T207 408T189 336T183 247Z" />
<glyph unicode="&#xf9;" glyph-name="ugrave" horiz-adv-x="552" d="M299 431V443Q311 445 334 452T385 468T442 487T494 507L502 501V63L554 52V39Q537 36 511 29T456 13T400 -3T355 -17L347 -11V85Q340 71 326 55T291 23T246 -2T192 -12Q161 -12 135 -3T89 22T59
62T48 115V409L1 431V443Q13 445 36 452T86 468T143 487T195 507L203 501V173Q203 121 224 103T279 84Q305 84 322 93T348 110V409L299 431ZM372 558L364 553L227 619Q167 648 167 696Q167 722 183 737T224 753Q252 753 270 732T306 678L372 558Z" />
<glyph unicode="&#xfa;" glyph-name="uacute" horiz-adv-x="552" d="M299 431V443Q311 445 334 452T385 468T442 487T494 507L502 501V63L554 52V39Q537 36 511 29T456 13T400 -3T355 -17L347 -11V85Q340 71 326 55T291 23T246 -2T192 -12Q161 -12 135 -3T89 22T59
62T48 115V409L1 431V443Q13 445 36 452T86 468T143 487T195 507L203 501V173Q203 121 224 103T279 84Q305 84 322 93T348 110V409L299 431ZM249 678Q266 710 284 731T331 753Q356 753 372 738T388 696Q388 648 328 619L191 553L183 558L249 678Z" />
<glyph unicode="&#xfb;" glyph-name="ucircumflex" horiz-adv-x="552" d="M299 431V443Q311 445 334 452T385 468T442 487T494 507L502 501V63L554 52V39Q537 36 511 29T456 13T400 -3T355 -17L347 -11V85Q340 71 326 55T291 23T246 -2T192 -12Q161 -12 135 -3T89
22T59 62T48 115V409L1 431V443Q13 445 36 452T86 468T143 487T195 507L203 501V173Q203 121 224 103T279 84Q305 84 322 93T348 110V409L299 431ZM273 748H283L419 551L411 548L278 613L145 548L137 551L273 748Z" />
<glyph unicode="&#xfc;" glyph-name="udieresis" horiz-adv-x="552" d="M299 431V443Q311 445 334 452T385 468T442 487T494 507L502 501V63L554 52V39Q537 36 511 29T456 13T400 -3T355 -17L347 -11V85Q340 71 326 55T291 23T246 -2T192 -12Q161 -12 135 -3T89
22T59 62T48 115V409L1 431V443Q13 445 36 452T86 468T143 487T195 507L203 501V173Q203 121 224 103T279 84Q305 84 322 93T348 110V409L299 431ZM254 627Q254 598 232 579T181 559Q151 559 130 578T108 627Q108 657 129 676T181 696Q210 696 232 677T254 627ZM448
627Q448 598 426 579T374 559Q345 559 324 578T302 627Q302 657 323 676T374 696Q404 696 426 677T448 627Z" />
<glyph unicode="&#xfd;" glyph-name="yacute" horiz-adv-x="519" d="M150 -119Q162 -119 172 -117T193 -106T216 -77T243 -23L53 451Q50 457 47 461T37 469T19 476T-11 483V490H266V483L211 463L318 162L432 463L369 483V490H518V483Q499 476 488 471T471 462T461
452T454 438L308 59Q300 39 288 11T261 -45T234 -97T211 -135Q164 -203 102 -203Q69 -203 53 -189T37 -152Q37 -131 50 -118T87 -105Q106 -105 119 -112T150 -119ZM247 678Q264 710 282 731T329 753Q354 753 370 738T386 696Q386 648 326 619L189 553L181 558L247
678Z" />
<glyph unicode="&#xfe;" glyph-name="thorn" horiz-adv-x="566" d="M392 241Q392 327 361 371T276 415Q246 415 227 405T200 387V46Q206 38 222 27T265 15Q295 15 319 31T359 78T383 149T392 241ZM46 617L-4 638V650Q8 652 31 659T83 675T140 694T192 714L200
708V412H203Q210 423 222 438T254 467T300 490T359 500Q402 500 437 483T496 434T533 359T546 262Q546 193 522 142T459 57T369 5T266 -12Q243 -12 226 -10T200 -6V-131Q200 -154 205 -160T234 -171L260 -175V-185H6V-175L24 -171Q38 -168 42 -161T46 -131V617Z"
/>
<glyph unicode="&#xff;" glyph-name="ydieresis" horiz-adv-x="519" d="M150 -119Q162 -119 172 -117T193 -106T216 -77T243 -23L53 451Q50 457 47 461T37 469T19 476T-11 483V490H266V483L211 463L318 162L432 463L369 483V490H518V483Q499 476 488 471T471 462T461
452T454 438L308 59Q300 39 288 11T261 -45T234 -97T211 -135Q164 -203 102 -203Q69 -203 53 -189T37 -152Q37 -131 50 -118T87 -105Q106 -105 119 -112T150 -119ZM252 627Q252 598 230 579T179 559Q149 559 128 578T106 627Q106 657 127 676T179 696Q208 696 230
677T252 627ZM446 627Q446 598 424 579T372 559Q343 559 322 578T300 627Q300 657 321 676T372 696Q402 696 424 677T446 627Z" />
<glyph unicode="&#x100;" glyph-name="Amacron" horiz-adv-x="657" d="M367 251H152L77 43L166 8V0H6V8Q31 21 39 30T52 54L242 576L222 628Q240 630 258 639T292 661T321 686T342 710H357L605 54Q612 35 621 28T651 8V0H361V8L451 34L367 251ZM161 275H358L256
538L161 275ZM174 829H419V738H174V829Z" />
<glyph unicode="&#x101;" glyph-name="amacron" horiz-adv-x="508" d="M527 40Q522 30 512 21T487 5T456 -7T421 -12Q394 -12 375 -6T344 10T323 34T310 63H306Q301 54 291 41T264 17T223 -3T167 -12Q130 -12 103 -2T57 25T30 64T21 111Q21 141 35 172T83 216Q93
220 120 228T182 247T249 268T304 286V360Q304 423 287 448T233 474Q203 474 189 456T162 415T135 374T91 355Q68 355 55 370T42 406Q42 423 51 440T83 471T142 493T233 502Q280 502 320 495T391 472T438 429T455 363V88Q455 67 462 53T495 38Q506 38 514 42T527
48V40ZM304 81Q304 90 304 111T304 159T304 214T304 264Q282 256 263 251T223 236Q204 228 191 203T178 144Q178 101 197 79T248 57Q268 57 283 66T304 81ZM130 664H365V579H130V664Z" />
<glyph unicode="&#x102;" glyph-name="Abreve" horiz-adv-x="657" d="M367 251H152L77 43L166 8V0H6V8Q31 21 39 30T52 54L242 576L222 628Q240 630 258 639T292 661T321 686T342 710H357L605 54Q612 35 621 28T651 8V0H361V8L451 34L367 251ZM161 275H358L256
538L161 275ZM293 720Q258 720 234 735T193 773T169 825T161 883L169 885Q183 856 215 837T293 818Q339 818 371 837T417 885L426 883Q426 854 419 825T395 773T353 735T293 720Z" />
<glyph unicode="&#x103;" glyph-name="abreve" horiz-adv-x="508" d="M527 40Q522 30 512 21T487 5T456 -7T421 -12Q394 -12 375 -6T344 10T323 34T310 63H306Q301 54 291 41T264 17T223 -3T167 -12Q130 -12 103 -2T57 25T30 64T21 111Q21 141 35 172T83 216Q93
220 120 228T182 247T249 268T304 286V360Q304 423 287 448T233 474Q203 474 189 456T162 415T135 374T91 355Q68 355 55 370T42 406Q42 423 51 440T83 471T142 493T233 502Q280 502 320 495T391 472T438 429T455 363V88Q455 67 462 53T495 38Q506 38 514 42T527
48V40ZM304 81Q304 90 304 111T304 159T304 214T304 264Q282 256 263 251T223 236Q204 228 191 203T178 144Q178 101 197 79T248 57Q268 57 283 66T304 81ZM247 555Q211 555 187 569T147 607T126 659T120 718L128 720Q139 691 171 672T247 653Q291 653 323 672T366
720L375 718Q376 689 370 660T348 608T308 570T247 555Z" />
<glyph unicode="&#x104;" glyph-name="Aogonek" horiz-adv-x="657" d="M256 539L161 275H358L256 539ZM367 251H152L77 43L166 8V0H6V8Q31 21 39 30T52 54L242 576L222 628Q240 630 258 639T292 661T321 686T342 710H357L605 54Q612 35 621 28T651 8V0H486Q468
-17 453 -37T438 -83Q438 -97 446 -106T469 -115Q491 -115 509 -109T537 -97V-104Q533 -113 522 -128T492 -157T449 -182T393 -193Q355 -193 331 -175T307 -127Q307 -103 320 -83T356 -47T405 -18T462 5L367 251Z" />
<glyph unicode="&#x105;" glyph-name="aogonek" horiz-adv-x="508" d="M384 -193Q346 -193 322 -175T298 -127Q298 -107 308 -90T336 -58T376 -33T423 -12H421Q394 -12 375 -6T344 10T323 34T310 63H306Q301 54 291 41T264 17T223 -3T167 -12Q130 -12 103 -2T57
25T30 64T21 111Q21 141 35 172T83 216Q93 220 120 228T182 247T249 268T304 286V360Q304 423 287 448T233 474Q203 474 189 456T162 415T135 374T91 355Q68 355 55 370T42 406Q42 423 51 440T83 471T142 493T233 502Q280 502 320 495T391 472T438 429T455 363V88Q455
67 462 53T495 38Q506 38 514 42T527 48V40Q520 27 507 18T478 -2Q458 -16 444 -38T429 -83Q429 -97 437 -106T460 -115Q482 -115 500 -109T528 -97V-104Q524 -113 513 -128T483 -157T440 -182T384 -193ZM304 81Q304 90 304 111T304 159T304 214T304 264Q282 256
263 251T223 236Q204 228 191 203T178 144Q178 101 197 79T248 57Q268 57 283 66T304 81Z" />
<glyph unicode="&#x106;" glyph-name="Cacute" horiz-adv-x="565" d="M355 -11Q293 -11 233 6T126 63T51 169T22 335Q22 431 52 499T130 610T233 674T343 694Q377 694 401 692T443 686T473 680T495 677Q506 677 512 680T527 692H533V506H523Q488 595 444 634T349
674Q315 674 287 656T237 597T204 496T192 348Q192 259 204 195T239 89T292 27T358 7Q415 7 459 53T526 183H536V-6H530Q522 1 512 5T488 9Q479 9 469 6T444 -1T408 -8T355 -11ZM304 817Q311 824 320 832T341 847T364 860T389 865Q419 865 434 849T449 808Q449
785 432 767T372 743L215 728L211 736L304 817Z" />
<glyph unicode="&#x107;" glyph-name="cacute" horiz-adv-x="438" d="M249 469Q234 469 217 456T186 419T162 362T152 287Q152 251 160 217T188 155T237 112T311 95Q358 95 391 115T442 154V131Q435 108 420 83T380 37T320 2T238 -12Q190 -12 149 5T79 55T33 132T16
233Q16 296 37 346T92 430T171 482T261 500Q345 500 384 474T423 407Q423 383 408 368T366 352Q348 352 337 360T317 382T303 410T290 439T274 460T249 469ZM227 678Q244 710 262 731T309 753Q334 753 350 738T366 696Q366 648 306 619L169 553L161 558L227 678Z"
/>
<glyph unicode="&#x108;" glyph-name="Ccircumflex" horiz-adv-x="565" d="M355 -11Q293 -11 233 6T126 63T51 169T22 335Q22 431 52 499T130 610T233 674T343 694Q377 694 401 692T443 686T473 680T495 677Q506 677 512 680T527 692H533V506H523Q488 595 444
634T349 674Q315 674 287 656T237 597T204 496T192 348Q192 259 204 195T239 89T292 27T358 7Q415 7 459 53T526 183H536V-6H530Q522 1 512 5T488 9Q479 9 469 6T444 -1T408 -8T355 -11ZM318 871H328L474 718L466 715L323 756L180 715L172 718L318 871Z" />
<glyph unicode="&#x109;" glyph-name="ccircumflex" horiz-adv-x="438" d="M249 469Q234 469 217 456T186 419T162 362T152 287Q152 251 160 217T188 155T237 112T311 95Q358 95 391 115T442 154V131Q435 108 420 83T380 37T320 2T238 -12Q190 -12 149 5T79 55T33
132T16 233Q16 296 37 346T92 430T171 482T261 500Q345 500 384 474T423 407Q423 383 408 368T366 352Q348 352 337 360T317 382T303 410T290 439T274 460T249 469ZM251 748H261L397 551L389 548L256 613L123 548L115 551L251 748Z" />
<glyph unicode="&#x10a;" glyph-name="Cdotaccent" horiz-adv-x="565" d="M355 -11Q293 -11 233 6T126 63T51 169T22 335Q22 431 52 499T130 610T233 674T343 694Q377 694 401 692T443 686T473 680T495 677Q506 677 512 680T527 692H533V506H523Q488 595 444 634T349
674Q315 674 287 656T237 597T204 496T192 348Q192 259 204 195T239 89T292 27T358 7Q415 7 459 53T526 183H536V-6H530Q522 1 512 5T488 9Q479 9 469 6T444 -1T408 -8T355 -11ZM413 794Q413 760 389 738T330 716Q295 716 271 738T247 794Q247 829 271 851T330
873Q365 873 389 851T413 794Z" />
<glyph unicode="&#x10b;" glyph-name="cdotaccent" horiz-adv-x="438" d="M249 469Q234 469 217 456T186 419T162 362T152 287Q152 251 160 217T188 155T237 112T311 95Q358 95 391 115T442 154V131Q435 108 420 83T380 37T320 2T238 -12Q190 -12 149 5T79 55T33
132T16 233Q16 296 37 346T92 430T171 482T261 500Q345 500 384 474T423 407Q423 383 408 368T366 352Q348 352 337 360T317 382T303 410T290 439T274 460T249 469ZM339 615Q339 581 315 559T256 537Q221 537 197 559T173 615Q173 650 197 672T256 694Q291 694
315 672T339 615Z" />
<glyph unicode="&#x10c;" glyph-name="Ccaron" horiz-adv-x="565" d="M355 -11Q293 -11 233 6T126 63T51 169T22 335Q22 431 52 499T130 610T233 674T343 694Q377 694 401 692T443 686T473 680T495 677Q506 677 512 680T527 692H533V506H523Q488 595 444 634T349
674Q315 674 287 656T237 597T204 496T192 348Q192 259 204 195T239 89T292 27T358 7Q415 7 459 53T526 183H536V-6H530Q522 1 512 5T488 9Q479 9 469 6T444 -1T408 -8T355 -11ZM172 864L180 867L323 826L466 867L474 864L328 711H318L172 864Z" />
<glyph unicode="&#x10d;" glyph-name="ccaron" horiz-adv-x="438" d="M249 469Q234 469 217 456T186 419T162 362T152 287Q152 251 160 217T188 155T237 112T311 95Q358 95 391 115T442 154V131Q435 108 420 83T380 37T320 2T238 -12Q190 -12 149 5T79 55T33 132T16
233Q16 296 37 346T92 430T171 482T261 500Q345 500 384 474T423 407Q423 383 408 368T366 352Q348 352 337 360T317 382T303 410T290 439T274 460T249 469ZM123 748L256 683L389 748L397 745L261 548H251L115 745L123 748Z" />
<glyph unicode="&#x10e;" glyph-name="Dcaron" horiz-adv-x="661" d="M13 10L33 14Q43 16 50 18T62 27T69 43T72 70V613Q72 630 70 640T62 656T50 664T33 669L13 673V683H294Q362 683 424 663T533 603T609 501T638 355Q638 275 613 210T541 98T430 26T287 0H13V10ZM233
21H282Q374 21 422 102T470 336Q470 430 456 493T413 594T339 648T233 662V21ZM156 864L164 867L307 826L450 867L458 864L312 711H302L156 864Z" />
<glyph unicode="&#x10f;" glyph-name="dcaron" horiz-adv-x="564" d="M316 638V650Q329 652 353 659T405 675T462 694T514 714L522 708V49L575 43V33Q557 30 529 24T472 10T417 -4T377 -15L368 -9V82Q363 72 351 56T321 25T277 -1T221 -12Q176 -12 140 4T77 51T37
126T22 226Q22 299 47 351T112 436T201 484T301 500Q321 500 341 499T368 496V617L316 638ZM176 268Q176 180 207 129T295 77Q322 77 342 89T368 109V432Q364 446 346 459T301 473Q277 473 254 459T214 419T187 354T176 268ZM568 530L575 710H694L576 530H568Z"
/>
<glyph unicode="&#x110;" glyph-name="Dcroat" horiz-adv-x="666" d="M18 10L38 14Q48 16 55 18T67 27T74 43T77 70V338H9V362H77V613Q77 630 75 640T67 656T55 664T38 669L18 673V683H299Q367 683 429 663T538 603T614 501T643 355Q643 275 618 210T546 98T435
26T292 0H18V10ZM238 362H352V338H238V21H287Q379 21 427 102T475 336Q475 430 461 493T418 594T344 648T238 662V362Z" />
<glyph unicode="&#x111;" glyph-name="dcroat" horiz-adv-x="564" d="M245 574H579V554H245V574ZM316 638V650Q329 652 353 659T405 675T462 694T514 714L522 708V49L575 43V33Q557 30 529 24T472 10T417 -4T377 -15L368 -9V82Q363 72 351 56T321 25T277 -1T221
-12Q176 -12 140 4T77 51T37 126T22 226Q22 299 47 351T112 436T201 484T301 500Q321 500 341 499T368 496V617L316 638ZM176 268Q176 180 207 129T295 77Q322 77 342 89T368 109V432Q364 446 346 459T301 473Q277 473 254 459T214 419T187 354T176 268Z" />
<glyph unicode="&#x112;" glyph-name="Emacron" horiz-adv-x="539" d="M13 10L33 14Q43 16 50 18T62 27T69 43T72 70V613Q72 630 70 640T62 656T50 664T33 669L13 673V683H489V518H477Q452 587 430 624T381 662H233V363H334Q366 363 382 389T407 469H418V233H407Q399
281 383 310T334 339H233V21H394Q418 21 445 58T496 184H507V0H13V10ZM150 829H395V738H150V829Z" />
<glyph unicode="&#x113;" glyph-name="emacron" horiz-adv-x="516" d="M169 280Q171 191 215 143T344 95Q371 95 396 101T441 117T477 138T501 159V136Q496 118 480 93T436 45T368 5T274 -12Q216 -12 170 5T90 54T39 133T21 236Q21 297 43 346T101 429T183 482T277
501Q319 501 358 488T427 448T475 380T497 280H169ZM275 473Q257 473 239 461T206 428T181 375T169 305L318 313Q332 314 336 319T340 339Q340 409 321 441T275 473ZM153 664H388V579H153V664Z" />
<glyph unicode="&#x114;" glyph-name="Ebreve" horiz-adv-x="539" d="M13 10L33 14Q43 16 50 18T62 27T69 43T72 70V613Q72 630 70 640T62 656T50 664T33 669L13 673V683H489V518H477Q452 587 430 624T381 662H233V363H334Q366 363 382 389T407 469H418V233H407Q399
281 383 310T334 339H233V21H394Q418 21 445 58T496 184H507V0H13V10ZM273 720Q238 720 214 735T173 773T149 825T141 883L149 885Q163 856 195 837T273 818Q319 818 351 837T397 885L406 883Q406 854 399 825T375 773T333 735T273 720Z" />
<glyph unicode="&#x115;" glyph-name="ebreve" horiz-adv-x="516" d="M169 280Q171 191 215 143T344 95Q371 95 396 101T441 117T477 138T501 159V136Q496 118 480 93T436 45T368 5T274 -12Q216 -12 170 5T90 54T39 133T21 236Q21 297 43 346T101 429T183 482T277
501Q319 501 358 488T427 448T475 380T497 280H169ZM275 473Q257 473 239 461T206 428T181 375T169 305L318 313Q332 314 336 319T340 339Q340 409 321 441T275 473ZM257 555Q221 555 197 569T157 607T136 659T130 718L138 720Q149 691 181 672T257 653Q301 653
333 672T376 720L385 718Q386 689 380 660T358 608T318 570T257 555Z" />
<glyph unicode="&#x116;" glyph-name="Edotaccent" horiz-adv-x="539" d="M13 10L33 14Q43 16 50 18T62 27T69 43T72 70V613Q72 630 70 640T62 656T50 664T33 669L13 673V683H489V518H477Q452 587 430 624T381 662H233V363H334Q366 363 382 389T407 469H418V233H407Q399
281 383 310T334 339H233V21H394Q418 21 445 58T496 184H507V0H13V10ZM355 794Q355 760 331 738T272 716Q237 716 213 738T189 794Q189 829 213 851T272 873Q307 873 331 851T355 794Z" />
<glyph unicode="&#x117;" glyph-name="edotaccent" horiz-adv-x="516" d="M169 280Q171 191 215 143T344 95Q371 95 396 101T441 117T477 138T501 159V136Q496 118 480 93T436 45T368 5T274 -12Q216 -12 170 5T90 54T39 133T21 236Q21 297 43 346T101 429T183
482T277 501Q319 501 358 488T427 448T475 380T497 280H169ZM275 473Q257 473 239 461T206 428T181 375T169 305L318 313Q332 314 336 319T340 339Q340 409 321 441T275 473ZM353 615Q353 581 329 559T270 537Q235 537 211 559T187 615Q187 650 211 672T270 694Q305
694 329 672T353 615Z" />
<glyph unicode="&#x118;" glyph-name="Eogonek" horiz-adv-x="539" d="M13 10L33 14Q43 16 50 18T62 27T69 43T72 70V613Q72 630 70 640T62 656T50 664T33 669L13 673V683H489V518H477Q452 587 430 624T381 662H233V363H334Q366 363 382 389T407 469H418V233H407Q399
281 383 310T334 339H233V21H394Q418 21 445 58T496 184H507V0H13V10ZM340 -193Q302 -193 278 -175T254 -127Q254 -103 268 -83T306 -48T359 -20T417 0H433Q415 -17 400 -37T385 -83Q385 -97 393 -106T416 -115Q438 -115 456 -109T484 -97V-104Q480 -113 469 -128T439
-157T396 -182T340 -193Z" />
<glyph unicode="&#x119;" glyph-name="eogonek" horiz-adv-x="516" d="M275 473Q257 473 239 461T206 428T181 375T169 305L318 313Q332 314 336 319T340 339Q340 409 321 441T275 473ZM452 -104Q448 -113 437 -128T407 -157T364 -182T308 -193Q270 -193 246 -175T222
-127Q222 -107 231 -90T256 -58T292 -30T333 -6Q306 -12 274 -12Q216 -12 170 5T90 54T39 133T21 236Q21 297 43 346T101 429T183 482T277 501Q319 501 358 488T427 448T475 380T497 280H169Q171 191 216 143T344 95Q371 95 396 101T441 117T477 138T501 159V136Q495
116 476 87T423 32Q413 24 401 13T378 -13T360 -43T352 -78Q352 -94 360 -104T384 -115Q406 -115 424 -109T452 -97V-104Z" />
<glyph unicode="&#x11a;" glyph-name="Ecaron" horiz-adv-x="539" d="M13 10L33 14Q43 16 50 18T62 27T69 43T72 70V613Q72 630 70 640T62 656T50 664T33 669L13 673V683H489V518H477Q452 587 430 624T381 662H233V363H334Q366 363 382 389T407 469H418V233H407Q399
281 383 310T334 339H233V21H394Q418 21 445 58T496 184H507V0H13V10ZM122 864L130 867L273 826L416 867L424 864L278 711H268L122 864Z" />
<glyph unicode="&#x11b;" glyph-name="ecaron" horiz-adv-x="516" d="M169 280Q171 191 215 143T344 95Q371 95 396 101T441 117T477 138T501 159V136Q496 118 480 93T436 45T368 5T274 -12Q216 -12 170 5T90 54T39 133T21 236Q21 297 43 346T101 429T183 482T277
501Q319 501 358 488T427 448T475 380T497 280H169ZM275 473Q257 473 239 461T206 428T181 375T169 305L318 313Q332 314 336 319T340 339Q340 409 321 441T275 473ZM137 748L270 683L403 748L411 745L275 548H265L129 745L137 748Z" />
<glyph unicode="&#x11c;" glyph-name="Gcircumflex" horiz-adv-x="627" d="M568 52Q568 39 574 36T603 36V26Q585 18 558 12T498 0T429 -8T355 -11Q293 -11 233 11T126 77T51 185T22 335Q22 417 51 483T126 596T232 668T352 694Q389 694 416 692T463 686T496 680T518
677Q529 677 535 680T550 692H556V493H546Q529 532 510 565T467 622T415 660T353 674Q314 674 284 650T233 583T201 480T190 348Q190 277 201 215T234 107T285 34T355 7Q378 7 394 7T424 9V216Q424 233 422 243T416 259T404 267T386 272L363 276V286H629V276L606
272Q595 270 588 268T577 260T570 244T568 216V52ZM332 871H342L488 718L480 715L337 756L194 715L186 718L332 871Z" />
<glyph unicode="&#x11d;" glyph-name="gcircumflex" horiz-adv-x="525" d="M35 338Q35 381 56 411T110 461T182 490T256 500Q319 500 375 475Q381 491 389 508T410 539T439 563T475 573Q504 573 519 558T534 522Q534 499 519 485T481 471Q470 471 459 473T436
475T413 474T393 465Q431 444 454 412T478 338Q478 295 457 265T402 215T330 186T256 177Q232 177 206 181T154 194Q147 186 140 176T128 157Q126 143 136 133T179 122H389Q423 122 448 111T490 82T515 40T523 -11Q523 -52 505 -86T450 -145T362 -185T244 -199Q134
-199 75 -177T16 -122Q16 -107 27 -93T55 -65T96 -40T143 -21V-16Q109 -14 87 0T52 35T38 77T44 117Q51 125 63 136T89 160T114 182T135 201Q93 220 64 253T35 338ZM420 -66Q420 -39 404 -30T346 -21H171Q153 -37 143 -57T132 -100Q132 -128 158 -149T245 -171Q279
-171 310 -165T366 -147T405 -114T420 -66ZM334 338Q334 399 313 435T256 472Q222 472 201 436T179 338Q179 276 200 241T256 205Q291 205 312 240T334 338ZM250 748H260L396 551L388 548L255 613L122 548L114 551L250 748Z" />
<glyph unicode="&#x11e;" glyph-name="Gbreve" horiz-adv-x="627" d="M568 52Q568 39 574 36T603 36V26Q585 18 558 12T498 0T429 -8T355 -11Q293 -11 233 11T126 77T51 185T22 335Q22 417 51 483T126 596T232 668T352 694Q389 694 416 692T463 686T496 680T518
677Q529 677 535 680T550 692H556V493H546Q529 532 510 565T467 622T415 660T353 674Q314 674 284 650T233 583T201 480T190 348Q190 277 201 215T234 107T285 34T355 7Q378 7 394 7T424 9V216Q424 233 422 243T416 259T404 267T386 272L363 276V286H629V276L606
272Q595 270 588 268T577 260T570 244T568 216V52ZM337 720Q302 720 278 735T237 773T213 825T205 883L213 885Q227 856 259 837T337 818Q383 818 415 837T461 885L470 883Q470 854 463 825T439 773T397 735T337 720Z" />
<glyph unicode="&#x11f;" glyph-name="gbreve" horiz-adv-x="525" d="M35 338Q35 381 56 411T110 461T182 490T256 500Q319 500 375 475Q381 491 389 508T410 539T439 563T475 573Q504 573 519 558T534 522Q534 499 519 485T481 471Q470 471 459 473T436 475T413
474T393 465Q431 444 454 412T478 338Q478 295 457 265T402 215T330 186T256 177Q232 177 206 181T154 194Q147 186 140 176T128 157Q126 143 136 133T179 122H389Q423 122 448 111T490 82T515 40T523 -11Q523 -52 505 -86T450 -145T362 -185T244 -199Q134 -199
75 -177T16 -122Q16 -107 27 -93T55 -65T96 -40T143 -21V-16Q109 -14 87 0T52 35T38 77T44 117Q51 125 63 136T89 160T114 182T135 201Q93 220 64 253T35 338ZM420 -66Q420 -39 404 -30T346 -21H171Q153 -37 143 -57T132 -100Q132 -128 158 -149T245 -171Q279 -171
310 -165T366 -147T405 -114T420 -66ZM334 338Q334 399 313 435T256 472Q222 472 201 436T179 338Q179 276 200 241T256 205Q291 205 312 240T334 338ZM255 555Q219 555 195 569T155 607T134 659T128 718L136 720Q147 691 179 672T255 653Q299 653 331 672T374
720L383 718Q384 689 378 660T356 608T316 570T255 555Z" />
<glyph unicode="&#x120;" glyph-name="Gdotaccent" horiz-adv-x="627" d="M568 52Q568 39 574 36T603 36V26Q585 18 558 12T498 0T429 -8T355 -11Q293 -11 233 11T126 77T51 185T22 335Q22 417 51 483T126 596T232 668T352 694Q389 694 416 692T463 686T496 680T518
677Q529 677 535 680T550 692H556V493H546Q529 532 510 565T467 622T415 660T353 674Q314 674 284 650T233 583T201 480T190 348Q190 277 201 215T234 107T285 34T355 7Q378 7 394 7T424 9V216Q424 233 422 243T416 259T404 267T386 272L363 276V286H629V276L606
272Q595 270 588 268T577 260T570 244T568 216V52ZM420 794Q420 760 396 738T337 716Q302 716 278 738T254 794Q254 829 278 851T337 873Q372 873 396 851T420 794Z" />
<glyph unicode="&#x121;" glyph-name="gdotaccent" horiz-adv-x="525" d="M35 338Q35 381 56 411T110 461T182 490T256 500Q319 500 375 475Q381 491 389 508T410 539T439 563T475 573Q504 573 519 558T534 522Q534 499 519 485T481 471Q470 471 459 473T436 475T413
474T393 465Q431 444 454 412T478 338Q478 295 457 265T402 215T330 186T256 177Q232 177 206 181T154 194Q147 186 140 176T128 157Q126 143 136 133T179 122H389Q423 122 448 111T490 82T515 40T523 -11Q523 -52 505 -86T450 -145T362 -185T244 -199Q134 -199
75 -177T16 -122Q16 -107 27 -93T55 -65T96 -40T143 -21V-16Q109 -14 87 0T52 35T38 77T44 117Q51 125 63 136T89 160T114 182T135 201Q93 220 64 253T35 338ZM420 -66Q420 -39 404 -30T346 -21H171Q153 -37 143 -57T132 -100Q132 -128 158 -149T245 -171Q279 -171
310 -165T366 -147T405 -114T420 -66ZM334 338Q334 399 313 435T256 472Q222 472 201 436T179 338Q179 276 200 241T256 205Q291 205 312 240T334 338ZM338 615Q338 581 314 559T255 537Q220 537 196 559T172 615Q172 650 196 672T255 694Q290 694 314 672T338
615Z" />
<glyph unicode="&#x122;" glyph-name="Gcommaaccent" horiz-adv-x="627" d="M568 52Q568 39 574 36T603 36V26Q585 18 558 12T498 0T429 -8T355 -11Q293 -11 233 11T126 77T51 185T22 335Q22 417 51 483T126 596T232 668T352 694Q389 694 416 692T463 686T496
680T518 677Q529 677 535 680T550 692H556V493H546Q529 532 510 565T467 622T415 660T353 674Q314 674 284 650T233 583T201 480T190 348Q190 277 201 215T234 107T285 34T355 7Q378 7 394 7T424 9V216Q424 233 422 243T416 259T404 267T386 272L363 276V286H629V276L606
272Q595 270 588 268T577 260T570 244T568 216V52ZM417 -118Q417 -145 405 -167T374 -206T331 -234T284 -252L273 -249Q293 -228 308 -202T331 -155Q300 -157 276 -143T252 -97Q252 -68 273 -50T332 -32Q374 -32 395 -57T417 -118Z" />
<glyph unicode="&#x123;" glyph-name="gcommaaccent" horiz-adv-x="525" d="M35 338Q35 381 56 411T110 461T182 490T256 500Q319 500 375 475Q381 491 389 508T410 539T439 563T475 573Q504 573 519 558T534 522Q534 499 519 485T481 471Q470 471 459 473T436
475T413 474T393 465Q431 444 454 412T478 338Q478 295 457 265T402 215T330 186T256 177Q232 177 206 181T154 194Q147 186 140 176T128 157Q126 143 136 133T179 122H389Q423 122 448 111T490 82T515 40T523 -11Q523 -52 505 -86T450 -145T362 -185T244 -199Q134
-199 75 -177T16 -122Q16 -107 27 -93T55 -65T96 -40T143 -21V-16Q109 -14 87 0T52 35T38 77T44 117Q51 125 63 136T89 160T114 182T135 201Q93 220 64 253T35 338ZM420 -66Q420 -39 404 -30T346 -21H171Q153 -37 143 -57T132 -100Q132 -128 158 -149T245 -171Q279
-171 310 -165T366 -147T405 -114T420 -66ZM334 338Q334 399 313 435T256 472Q222 472 201 436T179 338Q179 276 200 241T256 205Q291 205 312 240T334 338ZM168 611Q168 638 180 660T211 699T254 727T301 745L312 742Q292 721 277 695T254 648Q285 650 309 636T333
590Q333 561 312 543T253 525Q211 525 190 550T168 611Z" />
<glyph unicode="&#x124;" glyph-name="Hcircumflex" horiz-adv-x="668" d="M287 0H11V10L36 14Q51 16 55 23T60 53V630Q60 652 56 659T36 669L11 673V683H287V673L256 669Q239 667 234 660T229 629V366H439V630Q439 652 434 659T412 669L381 673V683H657V673L632
669Q617 667 613 660T608 629V54Q608 31 612 24T632 14L657 10V0H381V10L412 14Q429 16 434 23T439 53V342H229V54Q229 31 234 24T256 14L287 10V0ZM329 871H339L485 718L477 715L334 756L191 715L183 718L329 871Z" />
<glyph unicode="&#x125;" glyph-name="hcircumflex" horiz-adv-x="556" d="M364 500Q396 500 420 493T464 467Q484 449 496 420T508 353V54Q508 31 512 24T530 14L549 10V0H303V10L329 14Q345 17 349 24T353 54V322Q353 374 332 393T278 413Q251 413 232 399T208
376V54Q208 31 212 24T232 14L258 10V0H13V10L32 14Q46 17 50 24T54 54V615L4 636V648Q20 651 46 658T101 675T157 694T201 712L209 706V406Q217 418 231 434T265 465T310 490T364 500ZM271 871H281L427 718L419 715L276 756L133 715L125 718L271 871Z" />
<glyph unicode="&#x126;" glyph-name="Hbar" horiz-adv-x="668" d="M-1 524H668V502H-1V524ZM287 0H11V10L36 14Q51 16 55 23T60 53V630Q60 652 56 659T36 669L11 673V683H287V673L256 669Q239 667 234 660T229 629V366H439V630Q439 652 434 659T412 669L381 673V683H657V673L632
669Q617 667 613 660T608 629V54Q608 31 612 24T632 14L657 10V0H381V10L412 14Q429 16 434 23T439 53V342H229V54Q229 31 234 24T256 14L287 10V0Z" />
<glyph unicode="&#x127;" glyph-name="hbar" horiz-adv-x="556" d="M-3 574H333V554H-3V574ZM364 500Q396 500 420 493T464 467Q484 449 496 420T508 353V54Q508 31 512 24T530 14L549 10V0H303V10L329 14Q345 17 349 24T353 54V322Q353 374 332 393T278 413Q251
413 232 399T208 376V54Q208 31 212 24T232 14L258 10V0H13V10L32 14Q46 17 50 24T54 54V615L4 636V648Q20 651 46 658T101 675T157 694T201 712L209 706V406Q217 418 231 434T265 465T310 490T364 500Z" />
<glyph unicode="&#x128;" glyph-name="Itilde" horiz-adv-x="302" d="M69 630Q69 652 64 659T44 669L15 673V683H287V673L259 669Q244 667 239 660T234 629V54Q234 31 239 24T259 14L287 10V0H15V10L44 14Q58 16 63 23T69 53V630V630ZM257 705Q259 732 267 760T288
812T318 849T356 864Q372 864 389 858T423 845T458 831T490 825Q503 825 515 831T537 846T554 866T567 887L574 885Q572 853 564 824T543 773T514 738T479 725Q462 725 444 731T409 744T374 757T342 763Q330 763 319 758T297 743T279 724T264 703L257 705V705Z"
/>
<glyph unicode="&#x129;" glyph-name="itilde" horiz-adv-x="263" d="M208 54Q208 31 211 24T228 14L249 10V0H13V10L32 14Q46 17 50 24T54 54V409L7 431V443Q19 445 41 452T91 468T148 487T200 507L208 501V54V54ZM240 546Q242 573 249 601T269 653T298 691T334
706Q349 706 364 700T396 686T428 672T458 666Q470 666 481 672T501 687T517 707T530 728L537 726Q535 694 527 665T507 613T480 578T447 565Q431 565 415 571T382 584T350 598T320 604Q309 604 299 599T279 584T261 565T247 544L240 546V546Z" />
<glyph unicode="&#x12a;" glyph-name="Imacron" horiz-adv-x="302" d="M69 630Q69 652 64 659T44 669L15 673V683H287V673L259 669Q244 667 239 660T234 629V54Q234 31 239 24T259 14L287 10V0H15V10L44 14Q58 16 63 23T69 53V630V630ZM286 829H531V738H286V829Z" />
<glyph unicode="&#x12b;" glyph-name="imacron" horiz-adv-x="263" d="M208 54Q208 31 211 24T228 14L249 10V0H13V10L32 14Q46 17 50 24T54 54V409L7 431V443Q19 445 41 452T91 468T148 487T200 507L208 501V54V54ZM271 664H506V579H271V664Z" />
<glyph unicode="&#x12c;" glyph-name="Ibreve" horiz-adv-x="302" d="M69 630Q69 652 64 659T44 669L15 673V683H287V673L259 669Q244 667 239 660T234 629V54Q234 31 239 24T259 14L287 10V0H15V10L44 14Q58 16 63 23T69 53V630V630ZM408 720Q373 720 349 735T308
773T284 825T276 883L284 885Q298 856 330 837T408 818Q454 818 486 837T532 885L541 883Q541 854 534 825T510 773T468 735T408 720Z" />
<glyph unicode="&#x12d;" glyph-name="ibreve" horiz-adv-x="263" d="M208 54Q208 31 211 24T228 14L249 10V0H13V10L32 14Q46 17 50 24T54 54V409L7 431V443Q19 445 41 452T91 468T148 487T200 507L208 501V54V54ZM388 555Q352 555 328 569T288 607T267 659T261
718L269 720Q280 691 312 672T388 653Q432 653 464 672T507 720L516 718Q517 689 511 660T489 608T449 570T388 555Z" />
<glyph unicode="&#x12e;" glyph-name="Iogonek" horiz-adv-x="302" d="M69 630Q69 652 64 659T44 669L15 673V683H287V673L259 669Q244 667 239 660T234 629V54Q234 31 239 24T259 14L287 10V0H15V10L44 14Q58 16 63 23T69 53V630V630ZM397 -193Q359 -193 335
-175T311 -127Q311 -103 325 -83T363 -48T416 -20T474 0H490Q472 -17 457 -37T442 -83Q442 -97 450 -106T473 -115Q495 -115 513 -109T541 -97V-104Q537 -113 526 -128T496 -157T453 -182T397 -193Z" />
<glyph unicode="&#x12f;" glyph-name="iogonek" horiz-adv-x="263" d="M7 431V443Q19 445 41 452T91 468T148 487T200 507L208 501V54Q208 31 211 24T228 14L249 10V0H13V10L32 14Q46 17 50 24T54 54V409L7 431ZM209 615Q209 581 185 559T126 537Q91 537 67 559T43
615Q43 650 67 672T126 694Q161 694 185 672T209 615ZM379 -193Q341 -193 317 -175T293 -127Q293 -103 307 -83T345 -48T398 -20T456 0H472Q454 -17 439 -37T424 -83Q424 -97 432 -106T455 -115Q477 -115 495 -109T523 -97V-104Q519 -113 508 -128T478 -157T435
-182T379 -193Z" />
<glyph unicode="&#x130;" glyph-name="Idotaccent" horiz-adv-x="302" d="M69 630Q69 652 64 659T44 669L15 673V683H287V673L259 669Q244 667 239 660T234 629V54Q234 31 239 24T259 14L287 10V0H15V10L44 14Q58 16 63 23T69 53V630V630ZM491 794Q491 760 467
738T408 716Q373 716 349 738T325 794Q325 829 349 851T408 873Q443 873 467 851T491 794Z" />
<glyph unicode="&#x131;" glyph-name="dotlessi" horiz-adv-x="262" d="M208 54Q208 31 211 24T228 14L249 10V0H13V10L32 14Q46 17 50 24T54 54V409L7 431V443Q19 445 41 452T91 468T148 487T200 507L208 501V54V54Z" />
<glyph unicode="&#x134;" glyph-name="Jcircumflex" horiz-adv-x="421" d="M161 8Q178 8 186 29T194 95V613Q194 630 191 640T181 656T166 664T146 669L123 673V683H409V673L388 669Q378 667 372 665T361 656T356 640T354 613V230Q354 162 335 116T285 42T216
1T139 -11Q-8 -11 -8 65Q-8 88 7 104T50 121Q77 121 93 104T119 65T139 26T161 8ZM257 871H267L413 718L405 715L262 756L119 715L111 718L257 871Z" />
<glyph unicode="&#x135;" glyph-name="jcircumflex" horiz-adv-x="264" d="M7 431V443Q19 445 41 452T91 468T148 487T200 507L208 501V50Q208 -2 192 -43T147 -112T80 -156T-2 -172Q-69 -172 -94 -155T-119 -112Q-119 -92 -106 -80T-73 -67Q-49 -67 -35 -79T-11
-105T7 -132T27 -144Q54 -144 54 -58V409L7 431ZM373 748H383L519 551L511 548L378 613L245 548L237 551L373 748Z" />
<glyph unicode="&#x136;" glyph-name="Kcommaaccent" horiz-adv-x="652" d="M67 630Q67 652 62 659T40 669L12 673V683H296V673L265 669Q248 667 242 660T236 629V54Q236 31 242 24T265 14L296 10V0H12V10L40 14Q56 16 61 23T67 53V630ZM645 0H572Q542 0 510 0T454
2Q440 18 420 48T381 108Q343 170 312 225T255 330V344L482 649L421 674V683H608V674Q582 668 565 663T534 649T508 630T483 601L368 449V443L530 164Q553 125 571 98T603 53T627 25T645 10V0ZM416 -118Q416 -145 404 -167T373 -206T330 -234T283 -252L272 -249Q292
-228 307 -202T330 -155Q299 -157 275 -143T251 -97Q251 -68 272 -50T331 -32Q373 -32 394 -57T416 -118Z" />
<glyph unicode="&#x137;" glyph-name="kcommaaccent" horiz-adv-x="546" d="M7 636V648Q23 651 48 658T102 675T156 694T200 712L208 706V225L412 460L355 483V490H529V483Q510 477 495 473T465 461T436 443T406 414L349 350L467 122Q482 93 492 74T509 42T523
24T537 13L545 9V-1Q531 -1 508 -1T458 -1T408 -1T366 0Q358 8 343 33T309 97L243 232L208 193V54Q208 31 212 24T230 14L253 10V0H13V10L32 14Q46 17 50 24T54 54V615L7 636ZM367 -118Q367 -145 355 -167T324 -206T281 -234T234 -252L223 -249Q243 -228 258 -202T281
-155Q250 -157 226 -143T202 -97Q202 -68 223 -50T282 -32Q324 -32 345 -57T367 -118Z" />
<glyph unicode="&#x139;" glyph-name="Lacute" horiz-adv-x="501" d="M356 26Q375 26 391 35T421 65T448 120T474 207H485V0H16V10L40 14Q49 16 55 18T66 27T73 43T75 70V613Q75 630 73 640T67 656T56 664T40 669L16 673V683H306V673L276 669Q265 667 257 665T244
656T236 640T233 613V26H356V26ZM394 817Q401 824 410 832T431 847T454 860T479 865Q509 865 524 849T539 808Q539 785 522 767T462 743L305 728L301 736L394 817Z" />
<glyph unicode="&#x13a;" glyph-name="lacute" horiz-adv-x="258" d="M4 638V650Q16 652 39 659T90 675T147 694T200 714L208 708V54Q208 31 212 24T230 14L253 10V0H13V10L32 14Q46 17 50 24T54 54V617L4 638ZM362 817Q369 824 378 832T399 847T422 860T447 865Q477
865 492 849T507 808Q507 785 490 767T430 743L273 728L269 736L362 817Z" />
<glyph unicode="&#x13b;" glyph-name="Lcommaaccent" horiz-adv-x="501" d="M356 26Q375 26 391 35T421 65T448 120T474 207H485V0H16V10L40 14Q49 16 55 18T66 27T73 43T75 70V613Q75 630 73 640T67 656T56 664T40 669L16 673V683H306V673L276 669Q265 667 257
665T244 656T236 640T233 613V26H356V26ZM351 -118Q351 -145 339 -167T308 -206T265 -234T218 -252L207 -249Q227 -228 242 -202T265 -155Q234 -157 210 -143T186 -97Q186 -68 207 -50T266 -32Q308 -32 329 -57T351 -118Z" />
<glyph unicode="&#x13c;" glyph-name="lcommaaccent" horiz-adv-x="258" d="M4 638V650Q16 652 39 659T90 675T147 694T200 714L208 708V54Q208 31 212 24T230 14L253 10V0H13V10L32 14Q46 17 50 24T54 54V617L4 638ZM467 -118Q467 -145 455 -167T424 -206T381
-234T334 -252L323 -249Q343 -228 358 -202T381 -155Q350 -157 326 -143T302 -97Q302 -68 323 -50T382 -32Q424 -32 445 -57T467 -118Z" />
<glyph unicode="&#x13d;" glyph-name="Lcaron" horiz-adv-x="501" d="M356 26Q375 26 391 35T421 65T448 120T474 207H485V0H16V10L40 14Q49 16 55 18T66 27T73 43T75 70V613Q75 630 73 640T67 656T56 664T40 669L16 673V683H306V673L276 669Q265 667 257 665T244
656T236 640T233 613V26H356V26ZM326 503L333 683H452L334 503H326Z" />
<glyph unicode="&#x13e;" glyph-name="lcaron" horiz-adv-x="258" d="M4 638V650Q16 652 39 659T90 675T147 694T200 714L208 708V54Q208 31 212 24T230 14L253 10V0H13V10L32 14Q46 17 50 24T54 54V617L4 638ZM254 530L261 710H380L262 530H254Z" />
<glyph unicode="&#x13f;" glyph-name="Ldot" horiz-adv-x="501" d="M356 26Q375 26 391 35T421 65T448 120T474 207H485V0H16V10L40 14Q49 16 55 18T66 27T73 43T75 70V613Q75 630 73 640T67 656T56 664T40 669L16 673V683H306V673L276 669Q265 667 257 665T244
656T236 640T233 613V26H356V26ZM492 347Q492 311 466 287T402 263Q365 263 339 287T312 347Q312 385 338 409T402 433Q440 433 466 409T492 347Z" />
<glyph unicode="&#x140;" glyph-name="ldot" horiz-adv-x="409" d="M4 638V650Q16 652 39 659T90 675T147 694T200 714L208 708V54Q208 31 212 24T230 14L253 10V0H13V10L32 14Q46 17 50 24T54 54V617L4 638ZM424 347Q424 311 398 287T334 263Q297 263 271 287T244
347Q244 385 270 409T334 433Q372 433 398 409T424 347Z" />
<glyph unicode="&#x141;" glyph-name="Lslash" horiz-adv-x="501" d="M378 442V415L2 179V205L378 442ZM356 26Q375 26 391 35T421 65T448 120T474 207H485V0H16V10L40 14Q49 16 55 18T66 27T73 43T75 70V613Q75 630 73 640T67 656T56 664T40 669L16 673V683H306V673L276
669Q265 667 257 665T244 656T236 640T233 613V26H356V26Z" />
<glyph unicode="&#x142;" glyph-name="lslash" horiz-adv-x="293" d="M294 495V472L7 298V321L294 495ZM26 638V650Q38 652 61 659T112 675T169 694T222 714L230 708V54Q230 31 234 24T252 14L275 10V0H35V10L54 14Q68 17 72 24T76 54V617L26 638Z" />
<glyph unicode="&#x143;" glyph-name="Nacute" horiz-adv-x="654" d="M548 613Q548 630 546 640T538 656T524 664T505 669L482 673V683H645V673L625 669Q615 667 606 665T591 656T580 640T576 613V165Q576 71 579 -1L504 -4L110 598H108V70Q108 53 110 43T118
27T132 19T151 14L174 10V0H11V10L31 14Q41 16 49 18T65 27T76 43T80 70V613Q80 630 76 640T65 656T50 664T31 669L11 673V683H232L544 205H548V613V613ZM328 817Q335 824 344 832T365 847T388 860T413 865Q443 865 458 849T473 808Q473 785 456 767T396 743L239
728L235 736L328 817Z" />
<glyph unicode="&#x144;" glyph-name="nacute" horiz-adv-x="556" d="M13 0V10L32 14Q46 17 50 24T54 54V409L7 431V443Q19 445 41 452T91 468T147 487T199 507L207 501V406Q214 418 227 434T259 464T305 489T364 500Q396 500 420 493T464 467Q484 449 496 420T508
353V54Q508 31 512 24T530 14L549 10V0H303V10L329 14Q345 17 349 24T353 54V322Q353 374 332 393T278 413Q251 413 232 400T208 377V54Q208 31 212 24T232 14L258 10V0H13ZM258 678Q275 710 293 731T340 753Q365 753 381 738T397 696Q397 648 337 619L200 553L192
558L258 678Z" />
<glyph unicode="&#x145;" glyph-name="Ncommaaccent" horiz-adv-x="654" d="M548 613Q548 630 546 640T538 656T524 664T505 669L482 673V683H645V673L625 669Q615 667 606 665T591 656T580 640T576 613V165Q576 71 579 -1L504 -4L110 598H108V70Q108 53 110 43T118
27T132 19T151 14L174 10V0H11V10L31 14Q41 16 49 18T65 27T76 43T80 70V613Q80 630 76 640T65 656T50 664T31 669L11 673V683H232L544 205H548V613V613ZM404 -118Q404 -145 392 -167T361 -206T318 -234T271 -252L260 -249Q280 -228 295 -202T318 -155Q287 -157
263 -143T239 -97Q239 -68 260 -50T319 -32Q361 -32 382 -57T404 -118Z" />
<glyph unicode="&#x146;" glyph-name="ncommaaccent" horiz-adv-x="556" d="M13 0V10L32 14Q46 17 50 24T54 54V409L7 431V443Q19 445 41 452T91 468T147 487T199 507L207 501V406Q214 418 227 434T259 464T305 489T364 500Q396 500 420 493T464 467Q484 449 496
420T508 353V54Q508 31 512 24T530 14L549 10V0H303V10L329 14Q345 17 349 24T353 54V322Q353 374 332 393T278 413Q251 413 232 400T208 377V54Q208 31 212 24T232 14L258 10V0H13ZM367 -118Q367 -145 355 -167T324 -206T281 -234T234 -252L223 -249Q243 -228
258 -202T281 -155Q250 -157 226 -143T202 -97Q202 -68 223 -50T282 -32Q324 -32 345 -57T367 -118Z" />
<glyph unicode="&#x147;" glyph-name="Ncaron" horiz-adv-x="654" d="M548 613Q548 630 546 640T538 656T524 664T505 669L482 673V683H645V673L625 669Q615 667 606 665T591 656T580 640T576 613V165Q576 71 579 -1L504 -4L110 598H108V70Q108 53 110 43T118
27T132 19T151 14L174 10V0H11V10L31 14Q41 16 49 18T65 27T76 43T80 70V613Q80 630 76 640T65 656T50 664T31 669L11 673V683H232L544 205H548V613V613ZM200 864L208 867L351 826L494 867L502 864L356 711H346L200 864Z" />
<glyph unicode="&#x148;" glyph-name="ncaron" horiz-adv-x="556" d="M13 0V10L32 14Q46 17 50 24T54 54V409L7 431V443Q19 445 41 452T91 468T147 487T199 507L207 501V406Q214 418 227 434T259 464T305 489T364 500Q396 500 420 493T464 467Q484 449 496 420T508
353V54Q508 31 512 24T530 14L549 10V0H303V10L329 14Q345 17 349 24T353 54V322Q353 374 332 393T278 413Q251 413 232 400T208 377V54Q208 31 212 24T232 14L258 10V0H13ZM154 748L287 683L420 748L428 745L292 548H282L146 745L154 748Z" />
<glyph unicode="&#x149;" glyph-name="napostrophe" horiz-adv-x="659" d="M392 611Q392 573 380 544T346 492T299 454T244 428L234 432Q250 446 264 463T288 498T305 533T313 566Q276 562 251 579T226 630Q226 662 248 681T305 700Q342 700 367 678T392 611ZM116
0V10L135 14Q149 17 153 24T157 54V409L110 431V443Q122 445 144 452T194 468T250 487T302 507L310 501V406Q317 418 330 434T362 464T408 489T467 500Q499 500 523 493T567 467Q587 449 599 420T611 353V54Q611 31 615 24T633 14L652 10V0H406V10L432 14Q448 17
452 24T456 54V322Q456 374 435 393T381 413Q354 413 335 400T311 377V54Q311 31 315 24T335 14L361 10V0H116Z" />
<glyph unicode="&#x14a;" glyph-name="Eng" horiz-adv-x="663" d="M478 -33Q478 -11 475 7T465 42T450 75T430 108L110 598H108V70Q108 53 110 43T118 27T132 19T151 14L174 10V0H11V10L31 14Q41 16 49 18T65 27T76 43T80 70V613Q80 630 76 640T65 656T50 664T31
669L11 673V683H232L544 205H548V613Q548 630 546 640T538 656T524 664T505 669L482 673V683H645V673L625 669Q615 667 606 665T591 656T580 640T576 613V50Q576 5 565 -37T533 -111T481 -162T411 -181Q345 -181 314 -163T282 -117Q282 -93 296 -80T331 -67Q353
-67 367 -79T391 -107T411 -134T435 -147Q455 -147 466 -115T478 -33Z" />
<glyph unicode="&#x14b;" glyph-name="eng" horiz-adv-x="556" d="M353 322Q353 374 332 393T278 413Q264 413 253 409T232 398T217 385T208 374V54Q208 31 212 24T232 14L258 10V0H13V10L32 14Q46 17 50 24T54 54V409L7 431V443Q19 445 41 452T91 468T147 487T199
507L207 501V406Q214 418 227 434T259 464T305 489T364 500Q396 500 420 493T464 467Q484 449 496 420T508 353V50Q508 -2 492 -43T446 -112T379 -156T297 -172Q230 -172 205 -155T180 -112Q180 -92 193 -80T226 -67Q250 -67 264 -79T288 -105T306 -132T326 -144Q353
-144 353 -58V322Z" />
<glyph unicode="&#x14c;" glyph-name="Omacron" horiz-adv-x="675" d="M484 349Q484 419 473 479T442 582T395 650T334 675Q300 675 274 649T229 577T202 469T192 335Q192 266 204 206T237 102T286 32T348 7Q382 7 407 34T450 108T475 217T484 349ZM653 351Q653
271 629 205T562 90T464 16T342 -11Q277 -11 219 12T117 79T48 187T22 333Q22 415 46 481T113 595T211 668T333 694Q398 694 456 671T558 603T627 495T653 351ZM215 829H460V738H215V829Z" />
<glyph unicode="&#x14d;" glyph-name="omacron" horiz-adv-x="559" d="M543 245Q543 186 522 139T466 58T383 6T283 -12Q230 -12 182 5T97 56T38 135T16 240Q16 298 37 346T94 428T177 481T278 500Q331 500 379 482T463 431T521 350T543 245ZM378 237Q378 287
372 330T354 404T324 454T281 472Q256 472 238 455T207 408T189 336T183 247Q183 199 189 157T207 84T238 34T284 16Q311 16 329 33T358 81T373 152T378 237ZM164 664H399V579H164V664Z" />
<glyph unicode="&#x14e;" glyph-name="Obreve" horiz-adv-x="675" d="M484 349Q484 419 473 479T442 582T395 650T334 675Q300 675 274 649T229 577T202 469T192 335Q192 266 204 206T237 102T286 32T348 7Q382 7 407 34T450 108T475 217T484 349ZM653 351Q653
271 629 205T562 90T464 16T342 -11Q277 -11 219 12T117 79T48 187T22 333Q22 415 46 481T113 595T211 668T333 694Q398 694 456 671T558 603T627 495T653 351ZM337 720Q302 720 278 735T237 773T213 825T205 883L213 885Q227 856 259 837T337 818Q383 818 415
837T461 885L470 883Q470 854 463 825T439 773T397 735T337 720Z" />
<glyph unicode="&#x14f;" glyph-name="obreve" horiz-adv-x="559" d="M543 245Q543 186 522 139T466 58T383 6T283 -12Q230 -12 182 5T97 56T38 135T16 240Q16 298 37 346T94 428T177 481T278 500Q331 500 379 482T463 431T521 350T543 245ZM378 237Q378 287 372
330T354 404T324 454T281 472Q256 472 238 455T207 408T189 336T183 247Q183 199 189 157T207 84T238 34T284 16Q311 16 329 33T358 81T373 152T378 237ZM281 555Q245 555 221 569T181 607T160 659T154 718L162 720Q173 691 205 672T281 653Q325 653 357 672T400
720L409 718Q410 689 404 660T382 608T342 570T281 555Z" />
<glyph unicode="&#x150;" glyph-name="Ohungarumlaut" horiz-adv-x="675" d="M484 349Q484 419 473 479T442 582T395 650T334 675Q300 675 274 649T229 577T202 469T192 335Q192 266 204 206T237 102T286 32T348 7Q382 7 407 34T450 108T475 217T484 349ZM653
351Q653 271 629 205T562 90T464 16T342 -11Q277 -11 219 12T117 79T48 187T22 333Q22 415 46 481T113 595T211 668T333 694Q398 694 456 671T558 603T627 495T653 351ZM421 807Q442 834 461 851T504 868Q527 868 543 856T559 821Q559 795 544 778T499 751L361
715L355 722L421 807ZM223 807Q244 834 263 851T306 868Q329 868 345 856T361 821Q361 795 346 778T301 751L163 715L157 722L223 807Z" />
<glyph unicode="&#x151;" glyph-name="ohungarumlaut" horiz-adv-x="559" d="M543 245Q543 186 522 139T466 58T383 6T283 -12Q230 -12 182 5T97 56T38 135T16 240Q16 298 37 346T94 428T177 481T278 500Q331 500 379 482T463 431T521 350T543 245ZM378 237Q378
287 372 330T354 404T324 454T281 472Q256 472 238 455T207 408T189 336T183 247Q183 199 189 157T207 84T238 34T284 16Q311 16 329 33T358 81T373 152T378 237ZM332 667Q345 707 360 732T407 758Q429 758 445 745T461 707Q461 689 453 672T425 640L306 555L298
559L332 667ZM154 667Q167 707 182 732T229 758Q251 758 267 745T283 707Q283 689 275 672T247 640L128 555L120 559L154 667Z" />
<glyph unicode="&#x152;" glyph-name="OE" horiz-adv-x="877" d="M350 0Q283 0 224 22T119 88T48 193T22 333Q22 411 46 475T114 586T215 657T341 683H827V518H815Q790 587 768 624T719 662H578V363H672Q704 363 720 389T745 469H756V233H745Q737 281 721 310T672
339H578V21H732Q756 21 783 58T834 184H845V0H350ZM358 18Q371 18 382 19T400 26T412 42T417 70V603Q417 638 396 651T342 664Q305 664 277 639T230 569T202 464T192 335Q192 269 204 212T238 111T290 43T358 18Z" />
<glyph unicode="&#x153;" glyph-name="oe" horiz-adv-x="852" d="M273 500Q324 500 368 482T446 429Q481 464 525 482T617 501Q658 501 696 488T763 448T811 380T833 280H516Q518 191 560 143T684 95Q710 95 734 101T778 117T814 138T837 159V136Q832 118 816
93T773 45T707 5T614 -12Q559 -12 515 4T439 50Q408 20 367 4T278 -12Q227 -12 180 5T96 56T38 135T16 240Q16 298 37 346T93 428T175 481T273 500ZM368 237Q368 287 362 330T345 404T316 454T276 472Q253 472 236 455T207 408T189 336T183 247Q183 199 188 157T206
84T236 34T279 16Q304 16 321 33T348 81T363 152T368 237ZM615 473Q598 473 581 461T550 428T527 375T516 306L654 313Q668 314 672 319T676 339Q676 409 658 441T615 473Z" />
<glyph unicode="&#x154;" glyph-name="Racute" horiz-adv-x="626" d="M564 507Q564 451 528 408T437 341Q455 304 474 265T513 189T549 119T579 62Q593 37 608 27T638 10V0H448Q433 17 413 53T371 133T328 225T289 314Q272 316 260 318T238 322V70Q238 53 240
43T248 27T262 19T281 14L311 10V0H11V10L38 14Q48 16 55 18T67 27T74 43T77 70V613Q77 647 67 656T38 669L11 673V683H299Q370 683 420 669T502 630T549 573T564 507ZM409 497Q409 547 396 579T360 631T306 656T238 662V347Q250 344 266 342T297 340Q318 340 338
349T374 377T399 425T409 497ZM282 817Q289 824 298 832T319 847T342 860T367 865Q397 865 412 849T427 808Q427 785 410 767T350 743L193 728L189 736L282 817Z" />
<glyph unicode="&#x155;" glyph-name="racute" horiz-adv-x="383" d="M205 360Q218 393 233 419T263 465T294 495T324 506Q340 506 352 503T371 495V361Q361 364 349 366T320 369Q284 369 253 358T208 335V54Q208 31 216 24T243 14L269 10V0H13V10L32 14Q46 17
50 24T54 54V409L7 431V443Q19 445 41 452T90 468T145 487T197 507L205 501V360V360ZM442 678Q459 710 477 731T524 753Q549 753 565 738T581 696Q581 648 521 619L384 553L376 558L442 678Z" />
<glyph unicode="&#x156;" glyph-name="Rcommaaccent" horiz-adv-x="626" d="M564 507Q564 451 528 408T437 341Q455 304 474 265T513 189T549 119T579 62Q593 37 608 27T638 10V0H448Q433 17 413 53T371 133T328 225T289 314Q272 316 260 318T238 322V70Q238 53
240 43T248 27T262 19T281 14L311 10V0H11V10L38 14Q48 16 55 18T67 27T74 43T77 70V613Q77 647 67 656T38 669L11 673V683H299Q370 683 420 669T502 630T549 573T564 507ZM409 497Q409 547 396 579T360 631T306 656T238 662V347Q250 344 266 342T297 340Q318 340
338 349T374 377T399 425T409 497ZM428 -118Q428 -145 416 -167T385 -206T342 -234T295 -252L284 -249Q304 -228 319 -202T342 -155Q311 -157 287 -143T263 -97Q263 -68 284 -50T343 -32Q385 -32 406 -57T428 -118Z" />
<glyph unicode="&#x157;" glyph-name="rcommaaccent" horiz-adv-x="383" d="M205 360Q218 393 233 419T263 465T294 495T324 506Q340 506 352 503T371 495V361Q361 364 349 366T320 369Q284 369 253 358T208 335V54Q208 31 216 24T243 14L269 10V0H13V10L32 14Q46
17 50 24T54 54V409L7 431V443Q19 445 41 452T90 468T145 487T197 507L205 501V360V360ZM294 -118Q294 -145 282 -167T251 -206T208 -234T161 -252L150 -249Q170 -228 185 -202T208 -155Q177 -157 153 -143T129 -97Q129 -68 150 -50T209 -32Q251 -32 272 -57T294
-118Z" />
<glyph unicode="&#x158;" glyph-name="Rcaron" horiz-adv-x="626" d="M564 507Q564 451 528 408T437 341Q455 304 474 265T513 189T549 119T579 62Q593 37 608 27T638 10V0H448Q433 17 413 53T371 133T328 225T289 314Q272 316 260 318T238 322V70Q238 53 240
43T248 27T262 19T281 14L311 10V0H11V10L38 14Q48 16 55 18T67 27T74 43T77 70V613Q77 647 67 656T38 669L11 673V683H299Q370 683 420 669T502 630T549 573T564 507ZM409 497Q409 547 396 579T360 631T306 656T238 662V347Q250 344 266 342T297 340Q318 340 338
349T374 377T399 425T409 497ZM159 864L167 867L310 826L453 867L461 864L315 711H305L159 864Z" />
<glyph unicode="&#x159;" glyph-name="rcaron" horiz-adv-x="383" d="M205 360Q218 393 233 419T263 465T294 495T324 506Q340 506 352 503T371 495V361Q361 364 349 366T320 369Q284 369 253 358T208 335V54Q208 31 216 24T243 14L269 10V0H13V10L32 14Q46 17
50 24T54 54V409L7 431V443Q19 445 41 452T90 468T145 487T197 507L205 501V360V360ZM338 748L471 683L604 748L612 745L476 548H466L330 745L338 748Z" />
<glyph unicode="&#x15a;" glyph-name="Sacute" horiz-adv-x="519" d="M236 8Q293 8 328 42T363 133Q363 170 351 195T317 240T263 276T195 312Q159 331 130 351T81 395T50 450T39 518Q39 565 58 598T111 653T188 684T280 694Q315 694 349 688T405 682Q428 682
441 695H447V504H438Q428 542 411 573T372 627T326 662T280 675Q260 675 240 670T205 652T179 622T169 577Q169 545 183 522T221 482T272 452T326 424Q359 407 390 388T445 342T485 280T500 194Q500 145 479 107T422 43T338 3T236 -11Q202 -11 175 -8T128 0T93
7T69 11Q55 11 47 5T36 -7H30V239H40Q49 193 67 151T111 78T169 27T236 8ZM236 817Q243 824 252 832T273 847T296 860T321 865Q351 865 366 849T381 808Q381 785 364 767T304 743L147 728L143 736L236 817Z" />
<glyph unicode="&#x15b;" glyph-name="sacute" horiz-adv-x="431" d="M198 13Q240 13 265 34T291 87Q291 125 263 146T173 188Q141 198 114 212T65 245T32 291T20 354Q20 396 37 424T83 469T148 494T222 501Q246 501 266 498T304 493T337 492T366 502H372V363H363Q355
384 342 404T311 439T271 465T222 475Q178 475 159 458T140 415Q140 403 144 393T158 373T188 354T239 333Q275 320 307 305T363 269T401 220T415 153Q415 111 397 80T349 29T280 -2T197 -12Q152 -12 121 -6T68 0Q48 0 32 -10H26V153H35Q42 129 54 104T86 59T133
26T198 13ZM437 678Q454 710 472 731T519 753Q544 753 560 738T576 696Q576 648 516 619L379 553L371 558L437 678Z" />
<glyph unicode="&#x15c;" glyph-name="Scircumflex" horiz-adv-x="519" d="M236 8Q293 8 328 42T363 133Q363 170 351 195T317 240T263 276T195 312Q159 331 130 351T81 395T50 450T39 518Q39 565 58 598T111 653T188 684T280 694Q315 694 349 688T405 682Q428
682 441 695H447V504H438Q428 542 411 573T372 627T326 662T280 675Q260 675 240 670T205 652T179 622T169 577Q169 545 183 522T221 482T272 452T326 424Q359 407 390 388T445 342T485 280T500 194Q500 145 479 107T422 43T338 3T236 -11Q202 -11 175 -8T128 0T93
7T69 11Q55 11 47 5T36 -7H30V239H40Q49 193 67 151T111 78T169 27T236 8ZM250 871H260L406 718L398 715L255 756L112 715L104 718L250 871Z" />
<glyph unicode="&#x15d;" glyph-name="scircumflex" horiz-adv-x="431" d="M198 13Q240 13 265 34T291 87Q291 125 263 146T173 188Q141 198 114 212T65 245T32 291T20 354Q20 396 37 424T83 469T148 494T222 501Q246 501 266 498T304 493T337 492T366 502H372V363H363Q355
384 342 404T311 439T271 465T222 475Q178 475 159 458T140 415Q140 403 144 393T158 373T188 354T239 333Q275 320 307 305T363 269T401 220T415 153Q415 111 397 80T349 29T280 -2T197 -12Q152 -12 121 -6T68 0Q48 0 32 -10H26V153H35Q42 129 54 104T86 59T133
26T198 13ZM461 748H471L607 551L599 548L466 613L333 548L325 551L461 748Z" />
<glyph unicode="&#x15e;" glyph-name="Scedilla" horiz-adv-x="519" d="M231 -217Q208 -217 189 -211T154 -197T129 -178T113 -158L121 -149Q137 -161 156 -168T201 -175Q220 -175 239 -165T259 -129Q259 -100 240 -90T192 -79V-9Q144 -5 115 3T69 11Q55 11 47
5T36 -7H30V239H40Q49 193 67 151T111 78T169 27T236 8Q293 8 328 42T363 133Q363 170 351 195T317 240T263 276T195 312Q159 331 130 351T81 395T50 450T39 518Q39 565 58 598T111 653T188 684T280 694Q315 694 349 688T405 682Q428 682 441 695H447V504H438Q428
542 411 573T372 627T326 662T280 675Q260 675 240 670T205 652T179 622T169 577Q169 545 183 522T221 482T272 452T326 424Q359 407 390 388T445 342T485 280T500 194Q500 145 479 107T422 43T338 3T236 -11H215V-59Q280 -50 318 -70T357 -134Q357 -169 323 -193T231
-217Z" />
<glyph unicode="&#x15f;" glyph-name="scedilla" horiz-adv-x="431" d="M191 -217Q168 -217 149 -211T114 -197T89 -178T73 -158L81 -149Q97 -161 116 -168T161 -175Q180 -175 199 -165T219 -129Q219 -100 200 -90T152 -79V-10Q125 -7 105 -4T68 0Q48 0 32 -10H26V153H35Q42
129 54 104T86 59T133 26T198 13Q240 13 265 34T291 87Q291 125 263 146T173 188Q141 198 114 212T65 245T32 291T20 354Q20 396 37 424T83 469T148 494T222 501Q246 501 266 498T304 493T337 492T366 502H372V363H363Q355 384 342 404T311 439T271 465T222 475Q178
475 159 458T140 415Q140 403 144 393T158 373T188 354T239 333Q275 320 307 305T363 269T401 220T415 153Q415 111 397 80T349 29T280 -2T197 -12H175V-59Q240 -50 278 -70T317 -134Q317 -169 283 -193T191 -217Z" />
<glyph unicode="&#x160;" glyph-name="Scaron" horiz-adv-x="519" d="M236 8Q293 8 328 42T363 133Q363 170 351 195T317 240T263 276T195 312Q159 331 130 351T81 395T50 450T39 518Q39 565 58 598T111 653T188 684T280 694Q315 694 349 688T405 682Q428 682
441 695H447V504H438Q428 542 411 573T372 627T326 662T280 675Q260 675 240 670T205 652T179 622T169 577Q169 545 183 522T221 482T272 452T326 424Q359 407 390 388T445 342T485 280T500 194Q500 145 479 107T422 43T338 3T236 -11Q202 -11 175 -8T128 0T93
7T69 11Q55 11 47 5T36 -7H30V239H40Q49 193 67 151T111 78T169 27T236 8ZM106 864L114 867L257 826L400 867L408 864L262 711H252L106 864Z" />
<glyph unicode="&#x161;" glyph-name="scaron" horiz-adv-x="431" d="M198 13Q240 13 265 34T291 87Q291 125 263 146T173 188Q141 198 114 212T65 245T32 291T20 354Q20 396 37 424T83 469T148 494T222 501Q246 501 266 498T304 493T337 492T366 502H372V363H363Q355
384 342 404T311 439T271 465T222 475Q178 475 159 458T140 415Q140 403 144 393T158 373T188 354T239 333Q275 320 307 305T363 269T401 220T415 153Q415 111 397 80T349 29T280 -2T197 -12Q152 -12 121 -6T68 0Q48 0 32 -10H26V153H35Q42 129 54 104T86 59T133
26T198 13ZM333 748L466 683L599 748L607 745L471 548H461L325 745L333 748Z" />
<glyph unicode="&#x162;" glyph-name="Tcommaaccent" horiz-adv-x="563" d="M471 680Q501 680 516 684T550 695V511H540Q530 547 519 574T494 618T459 645T411 654H360V70Q360 53 362 43T370 27T384 19T403 14L433 10V0H129V10L159 14Q170 16 178 18T191 27T199
43T202 70V654H151Q121 654 101 645T66 619T42 574T22 511H12V695Q30 688 45 684T91 680H471V680ZM366 -118Q366 -145 354 -167T323 -206T280 -234T233 -252L222 -249Q242 -228 257 -202T280 -155Q249 -157 225 -143T201 -97Q201 -68 222 -50T281 -32Q323 -32 344
-57T366 -118Z" />
<glyph unicode="&#x163;" glyph-name="tcommaaccent" horiz-adv-x="371" d="M378 96Q373 85 362 67T330 31T279 1T209 -12Q174 -12 146 -2T97 24T67 63T56 110V447H-3V473Q50 493 101 528T199 623H210V490H378L357 447H210V146Q210 133 213 120T224 97T248 80T290
73Q307 73 321 77T347 87T366 99T378 109V96V96ZM295 -118Q295 -145 283 -167T252 -206T209 -234T162 -252L151 -249Q171 -228 186 -202T209 -155Q178 -157 154 -143T130 -97Q130 -68 151 -50T210 -32Q252 -32 273 -57T295 -118Z" />
<glyph unicode="&#x164;" glyph-name="Tcaron" horiz-adv-x="563" d="M471 680Q501 680 516 684T550 695V511H540Q530 547 519 574T494 618T459 645T411 654H360V70Q360 53 362 43T370 27T384 19T403 14L433 10V0H129V10L159 14Q170 16 178 18T191 27T199 43T202
70V654H151Q121 654 101 645T66 619T42 574T22 511H12V695Q30 688 45 684T91 680H471V680ZM130 864L138 867L281 826L424 867L432 864L286 711H276L130 864Z" />
<glyph unicode="&#x165;" glyph-name="tcaron" horiz-adv-x="371" d="M378 96Q373 85 362 67T330 31T279 1T209 -12Q174 -12 146 -2T97 24T67 63T56 110V447H-3V473Q50 493 101 528T199 623H210V490H378L357 447H210V146Q210 133 213 120T224 97T248 80T290 73Q307
73 321 77T347 87T366 99T378 109V96V96ZM280 523L287 703H406L288 523H280Z" />
<glyph unicode="&#x166;" glyph-name="Tbar" horiz-adv-x="563" d="M86 397H476V376H86V397ZM471 680Q501 680 516 684T550 695V511H540Q530 547 519 574T494 618T459 645T411 654H360V70Q360 53 362 43T370 27T384 19T403 14L433 10V0H129V10L159 14Q170 16 178
18T191 27T199 43T202 70V654H151Q121 654 101 645T66 619T42 574T22 511H12V695Q30 688 45 684T91 680H471V680Z" />
<glyph unicode="&#x167;" glyph-name="tbar" horiz-adv-x="371" d="M-3 320H357V300H-3V320ZM378 96Q373 85 362 67T330 31T279 1T209 -12Q174 -12 146 -2T97 24T67 63T56 110V447H-3V473Q50 493 101 528T199 623H210V490H378L357 447H210V146Q210 133 213 120T224
97T248 80T290 73Q307 73 321 77T347 87T366 99T378 109V96V96Z" />
<glyph unicode="&#x168;" glyph-name="Utilde" horiz-adv-x="643" d="M545 613Q545 630 543 640T535 656T521 664T502 669L479 673V683H632V673L612 669Q602 667 595 665T583 656T576 640T573 613V258Q573 186 555 135T506 52T432 6T339 -9Q288 -9 240 3T154 45T93
122T70 241V613Q70 630 68 640T60 656T48 664T31 669L11 673V683H297V673L274 669Q263 667 255 665T242 656T234 640T231 613V238Q231 140 269 89T386 37Q416 37 445 47T496 83T531 147T545 246V613V613ZM208 705Q210 732 218 760T239 812T269 849T307 864Q323
864 340 858T374 845T409 831T441 825Q454 825 466 831T488 846T505 866T518 887L525 885Q523 853 515 824T494 773T465 738T430 725Q413 725 395 731T360 744T325 757T293 763Q281 763 270 758T248 743T230 724T215 703L208 705V705Z" />
<glyph unicode="&#x169;" glyph-name="utilde" horiz-adv-x="552" d="M299 431V443Q311 445 334 452T385 468T442 487T494 507L502 501V63L554 52V39Q537 36 511 29T456 13T400 -3T355 -17L347 -11V85Q340 71 326 55T291 23T246 -2T192 -12Q161 -12 135 -3T89
22T59 62T48 115V409L1 431V443Q13 445 36 452T86 468T143 487T195 507L203 501V173Q203 121 224 103T279 84Q305 84 322 93T348 110V409L299 431ZM130 546Q132 573 139 601T159 653T188 691T224 706Q239 706 254 700T286 686T318 672T348 666Q360 666 371 672T391
687T407 707T420 728L427 726Q425 694 417 665T397 613T370 578T337 565Q321 565 305 571T272 584T240 598T210 604Q199 604 189 599T169 584T151 565T137 544L130 546V546Z" />
<glyph unicode="&#x16a;" glyph-name="Umacron" horiz-adv-x="643" d="M545 613Q545 630 543 640T535 656T521 664T502 669L479 673V683H632V673L612 669Q602 667 595 665T583 656T576 640T573 613V258Q573 186 555 135T506 52T432 6T339 -9Q288 -9 240 3T154
45T93 122T70 241V613Q70 630 68 640T60 656T48 664T31 669L11 673V683H297V673L274 669Q263 667 255 665T242 656T234 640T231 613V238Q231 140 269 89T386 37Q416 37 445 47T496 83T531 147T545 246V613V613ZM237 829H482V738H237V829Z" />
<glyph unicode="&#x16b;" glyph-name="umacron" horiz-adv-x="552" d="M299 431V443Q311 445 334 452T385 468T442 487T494 507L502 501V63L554 52V39Q537 36 511 29T456 13T400 -3T355 -17L347 -11V85Q340 71 326 55T291 23T246 -2T192 -12Q161 -12 135 -3T89
22T59 62T48 115V409L1 431V443Q13 445 36 452T86 468T143 487T195 507L203 501V173Q203 121 224 103T279 84Q305 84 322 93T348 110V409L299 431ZM161 664H396V579H161V664Z" />
<glyph unicode="&#x16c;" glyph-name="Ubreve" horiz-adv-x="643" d="M545 613Q545 630 543 640T535 656T521 664T502 669L479 673V683H632V673L612 669Q602 667 595 665T583 656T576 640T573 613V258Q573 186 555 135T506 52T432 6T339 -9Q288 -9 240 3T154 45T93
122T70 241V613Q70 630 68 640T60 656T48 664T31 669L11 673V683H297V673L274 669Q263 667 255 665T242 656T234 640T231 613V238Q231 140 269 89T386 37Q416 37 445 47T496 83T531 147T545 246V613V613ZM359 720Q324 720 300 735T259 773T235 825T227 883L235
885Q249 856 281 837T359 818Q405 818 437 837T483 885L492 883Q492 854 485 825T461 773T419 735T359 720Z" />
<glyph unicode="&#x16d;" glyph-name="ubreve" horiz-adv-x="552" d="M299 431V443Q311 445 334 452T385 468T442 487T494 507L502 501V63L554 52V39Q537 36 511 29T456 13T400 -3T355 -17L347 -11V85Q340 71 326 55T291 23T246 -2T192 -12Q161 -12 135 -3T89
22T59 62T48 115V409L1 431V443Q13 445 36 452T86 468T143 487T195 507L203 501V173Q203 121 224 103T279 84Q305 84 322 93T348 110V409L299 431ZM278 555Q242 555 218 569T178 607T157 659T151 718L159 720Q170 691 202 672T278 653Q322 653 354 672T397 720L406
718Q407 689 401 660T379 608T339 570T278 555Z" />
<glyph unicode="&#x16e;" glyph-name="Uring" horiz-adv-x="643" d="M545 613Q545 630 543 640T535 656T521 664T502 669L479 673V683H632V673L612 669Q602 667 595 665T583 656T576 640T573 613V258Q573 186 555 135T506 52T432 6T339 -9Q288 -9 240 3T154 45T93
122T70 241V613Q70 630 68 640T60 656T48 664T31 669L11 673V683H297V673L274 669Q263 667 255 665T242 656T234 640T231 613V238Q231 140 269 89T386 37Q416 37 445 47T496 83T531 147T545 246V613V613ZM351 880Q331 880 317 863T302 817Q302 788 316 771T351
753Q371 753 385 770T400 817Q400 846 385 863T351 880ZM351 726Q306 726 279 752T252 817Q252 856 279 881T351 907Q396 907 423 882T450 817Q450 778 423 752T351 726Z" />
<glyph unicode="&#x16f;" glyph-name="uring" horiz-adv-x="552" d="M299 431V443Q311 445 334 452T385 468T442 487T494 507L502 501V63L554 52V39Q537 36 511 29T456 13T400 -3T355 -17L347 -11V85Q340 71 326 55T291 23T246 -2T192 -12Q161 -12 135 -3T89 22T59
62T48 115V409L1 431V443Q13 445 36 452T86 468T143 487T195 507L203 501V173Q203 121 224 103T279 84Q305 84 322 93T348 110V409L299 431ZM278 551Q233 551 206 577T179 642Q179 681 206 706T278 732Q323 732 350 707T377 642Q377 603 350 577T278 551ZM278 578Q298
578 312 595T327 642Q327 671 312 688T278 705Q258 705 244 688T229 642Q229 613 243 596T278 578Z" />
<glyph unicode="&#x170;" glyph-name="Uhungarumlaut" horiz-adv-x="643" d="M545 613Q545 630 543 640T535 656T521 664T502 669L479 673V683H632V673L612 669Q602 667 595 665T583 656T576 640T573 613V258Q573 186 555 135T506 52T432 6T339 -9Q288 -9 240
3T154 45T93 122T70 241V613Q70 630 68 640T60 656T48 664T31 669L11 673V683H297V673L274 669Q263 667 255 665T242 656T234 640T231 613V238Q231 140 269 89T386 37Q416 37 445 47T496 83T531 147T545 246V613V613ZM426 807Q447 834 466 851T509 868Q532 868
548 856T564 821Q564 795 549 778T504 751L366 715L360 722L426 807ZM228 807Q249 834 268 851T311 868Q334 868 350 856T366 821Q366 795 351 778T306 751L168 715L162 722L228 807Z" />
<glyph unicode="&#x171;" glyph-name="uhungarumlaut" horiz-adv-x="552" d="M299 431V443Q311 445 334 452T385 468T442 487T494 507L502 501V63L554 52V39Q537 36 511 29T456 13T400 -3T355 -17L347 -11V85Q340 71 326 55T291 23T246 -2T192 -12Q161 -12 135
-3T89 22T59 62T48 115V409L1 431V443Q13 445 36 452T86 468T143 487T195 507L203 501V173Q203 121 224 103T279 84Q305 84 322 93T348 110V409L299 431ZM329 667Q342 707 357 732T404 758Q426 758 442 745T458 707Q458 689 450 672T422 640L303 555L295 559L329
667ZM151 667Q164 707 179 732T226 758Q248 758 264 745T280 707Q280 689 272 672T244 640L125 555L117 559L151 667Z" />
<glyph unicode="&#x172;" glyph-name="Uogonek" horiz-adv-x="643" d="M448 12Q423 1 396 -4T339 -9Q288 -9 240 3T154 45T93 122T70 241V613Q70 630 68 640T60 656T48 664T31 669L11 673V683H297V673L274 669Q263 667 255 665T242 656T234 640T231 613V238Q231
140 269 89T386 37Q416 37 445 47T496 83T531 147T545 246V613Q545 630 543 640T535 656T521 664T502 669L479 673V683H632V673L612 669Q602 667 595 665T583 656T576 640T573 613V258Q573 213 567 179T548 117T521 68T487 27Q475 15 463 2T440 -24T422 -52T415
-83Q415 -97 423 -106T446 -115Q468 -115 486 -109T514 -97V-104Q510 -113 499 -128T469 -157T426 -182T370 -193Q332 -193 308 -175T284 -127Q284 -103 301 -84T342 -47T395 -16T448 12Z" />
<glyph unicode="&#x173;" glyph-name="uogonek" horiz-adv-x="552" d="M298 -193Q260 -193 236 -175T212 -127Q212 -106 223 -88T254 -55T297 -29T347 -8V85Q340 71 326 55T291 23T246 -2T192 -12Q161 -12 135 -3T89 22T59 62T48 115V409L1 431V443Q13 445 36
452T86 468T143 487T195 507L203 501V173Q203 121 224 103T279 84Q305 84 322 93T348 110V409L299 431V443Q311 445 334 452T385 468T442 487T494 507L502 501V63L554 52V39Q541 36 521 31T478 20T432 5T391 -13Q371 -24 357 -42T343 -83Q343 -97 351 -106T374
-115Q396 -115 414 -109T442 -97V-104Q438 -113 427 -128T397 -157T354 -182T298 -193Z" />
<glyph unicode="&#x174;" glyph-name="Wcircumflex" horiz-adv-x="906" d="M910 674Q893 665 883 659T867 647T858 633T852 612L680 -12H600L457 519L330 -12H250L56 607Q52 621 49 630T39 645T23 658T-4 674V683H308V674L218 649L349 202H355L443 574L436 601Q431
617 426 627T412 644T390 658T357 674V683H676V674L596 649L704 202H710L830 642L735 674V683H910V674V674ZM501 871H511L657 718L649 715L506 756L363 715L355 718L501 871Z" />
<glyph unicode="&#x175;" glyph-name="wcircumflex" horiz-adv-x="758" d="M44 447Q40 457 38 462T30 471T15 477T-12 483V490H265V483L207 470L294 174L368 421L361 447Q357 457 355 462T347 471T332 477T305 483V490H574V483L516 470L599 173L691 463L616 483V490H770V483Q751
476 741 472T727 464T720 454T713 437L572 -6H496L383 372L267 -6H191L44 447ZM425 748H435L571 551L563 548L430 613L297 548L289 551L425 748Z" />
<glyph unicode="&#x176;" glyph-name="Ycircumflex" horiz-adv-x="594" d="M377 341V54Q377 31 389 26T427 16L460 10V0H133V10L167 16Q192 21 204 26T217 53V326L63 617Q56 631 50 640T36 655T19 665T0 674V683H312V674L222 649L359 378H365L514 643L426 674V683H594V674Q576
665 566 659T550 646T541 634T532 619L377 341ZM334 871H344L490 718L482 715L339 756L196 715L188 718L334 871Z" />
<glyph unicode="&#x177;" glyph-name="ycircumflex" horiz-adv-x="519" d="M150 -119Q162 -119 172 -117T193 -106T216 -77T243 -23L53 451Q50 457 47 461T37 469T19 476T-11 483V490H266V483L211 463L318 162L432 463L369 483V490H518V483Q499 476 488 471T471
462T461 452T454 438L308 59Q300 39 288 11T261 -45T234 -97T211 -135Q164 -203 102 -203Q69 -203 53 -189T37 -152Q37 -131 50 -118T87 -105Q106 -105 119 -112T150 -119ZM271 748H281L417 551L409 548L276 613L143 548L135 551L271 748Z" />
<glyph unicode="&#x178;" glyph-name="Ydieresis" horiz-adv-x="594" d="M377 341V54Q377 31 389 26T427 16L460 10V0H133V10L167 16Q192 21 204 26T217 53V326L63 617Q56 631 50 640T36 655T19 665T0 674V683H312V674L222 649L359 378H365L514 643L426 674V683H594V674Q576
665 566 659T550 646T541 634T532 619L377 341ZM511 792Q511 763 489 744T437 724Q408 724 387 743T365 792Q365 822 386 841T437 861Q467 861 489 842T511 792ZM309 792Q309 763 287 744T236 724Q206 724 185 743T163 792Q163 822 184 841T236 861Q265 861 287
842T309 792Z" />
<glyph unicode="&#x179;" glyph-name="Zacute" horiz-adv-x="546" d="M38 701Q48 696 59 692Q69 688 83 686T116 683H515L523 673L201 23H398Q416 23 430 30T458 58T484 116T513 212H523V-5Q511 -4 494 -3Q480 -2 460 -1T413 0H34L23 10L340 660H166Q145 660 130
654T101 632T76 586T49 510H38V701V701ZM273 817Q280 824 289 832T310 847T333 860T358 865Q388 865 403 849T418 808Q418 785 401 767T341 743L184 728L180 736L273 817Z" />
<glyph unicode="&#x17a;" glyph-name="zacute" horiz-adv-x="462" d="M441 490V467L184 23H352L431 160H441V0H18V20L274 467H121L46 342H35V490H441ZM210 678Q227 710 245 731T292 753Q317 753 333 738T349 696Q349 648 289 619L152 553L144 558L210 678Z" />
<glyph unicode="&#x17b;" glyph-name="Zdotaccent" horiz-adv-x="546" d="M38 701Q48 696 59 692Q69 688 83 686T116 683H515L523 673L201 23H398Q416 23 430 30T458 58T484 116T513 212H523V-5Q511 -4 494 -3Q480 -2 460 -1T413 0H34L23 10L340 660H166Q145 660
130 654T101 632T76 586T49 510H38V701V701ZM369 794Q369 760 345 738T286 716Q251 716 227 738T203 794Q203 829 227 851T286 873Q321 873 345 851T369 794Z" />
<glyph unicode="&#x17c;" glyph-name="zdotaccent" horiz-adv-x="462" d="M441 490V467L184 23H352L431 160H441V0H18V20L274 467H121L46 342H35V490H441ZM322 615Q322 581 298 559T239 537Q204 537 180 559T156 615Q156 650 180 672T239 694Q274 694 298 672T322 615Z" />
<glyph unicode="&#x17d;" glyph-name="Zcaron" horiz-adv-x="546" d="M38 701Q48 696 59 692Q69 688 83 686T116 683H515L523 673L201 23H398Q416 23 430 30T458 58T484 116T513 212H523V-5Q511 -4 494 -3Q480 -2 460 -1T413 0H34L23 10L340 660H166Q145 660 130
654T101 632T76 586T49 510H38V701V701ZM137 864L145 867L288 826L431 867L439 864L293 711H283L137 864Z" />
<glyph unicode="&#x17e;" glyph-name="zcaron" horiz-adv-x="462" d="M441 490V467L184 23H352L431 160H441V0H18V20L274 467H121L46 342H35V490H441ZM106 748L239 683L372 748L380 745L244 548H234L98 745L106 748Z" />
<glyph unicode="&#x192;" glyph-name="florin" horiz-adv-x="448" d="M241 108Q232 54 214 6T168 -78T105 -136T27 -157Q-35 -157 -66 -140T-97 -91Q-97 -68 -83 -55T-48 -41Q-10 -41 6 -78Q9 -86 12 -95T17 -113T23 -126T32 -132Q47 -132 58 -95T81 38L124 370H31V373L49
403H128L140 496Q146 537 165 573T216 636T288 678T380 694Q398 694 416 691T447 681T469 663T478 635Q478 617 467 603T435 588Q415 588 402 596T379 618Q376 623 371 630T362 645T353 658T346 664Q341 664 338 660T330 645T322 613T313 559L288 403H413L395 370H283L241
108V108Z" />
<glyph unicode="&#x1fa;" glyph-name="Aringacute" horiz-adv-x="657" d="M367 251H152L77 43L166 8V0H6V8Q31 21 39 30T52 54L242 576L222 628Q240 630 258 639T292 661T321 686T342 710H357L605 54Q612 35 621 28T651 8V0H361V8L451 34L367 251ZM161 275H358L256
538L161 275ZM297 1018Q304 1025 313 1033T334 1048T357 1061T382 1066Q412 1066 427 1050T442 1009Q442 986 425 968T365 944L208 929L204 937L297 1018ZM297 880Q277 880 263 863T248 817Q248 788 262 771T297 753Q317 753 331 770T346 817Q346 846 331 863T297
880ZM297 726Q252 726 225 752T198 817Q198 856 225 881T297 907Q342 907 369 882T396 817Q396 778 369 752T297 726Z" />
<glyph unicode="&#x1fb;" glyph-name="aringacute" horiz-adv-x="508" d="M527 40Q522 30 512 21T487 5T456 -7T421 -12Q394 -12 375 -6T344 10T323 34T310 63H306Q301 54 291 41T264 17T223 -3T167 -12Q130 -12 103 -2T57 25T30 64T21 111Q21 141 35 172T83 216Q93
220 120 228T182 247T249 268T304 286V360Q304 423 287 448T233 474Q203 474 189 456T162 415T135 374T91 355Q68 355 55 370T42 406Q42 423 51 440T83 471T142 493T233 502Q280 502 320 495T391 472T438 429T455 363V88Q455 67 462 53T495 38Q506 38 514 42T527
48V40ZM304 81Q304 90 304 111T304 159T304 214T304 264Q282 256 263 251T223 236Q204 228 191 203T178 144Q178 101 197 79T248 57Q268 57 283 66T304 81ZM231 803Q186 803 159 829T132 894Q132 933 159 958T231 984Q276 984 303 959T330 894Q330 855 303 829T231
803ZM231 830Q251 830 265 847T280 894Q280 923 265 940T231 957Q211 957 197 940T182 894Q182 865 196 848T231 830ZM209 862Q226 894 244 915T291 937Q316 937 332 922T348 880Q348 832 288 803L151 737L143 742L209 862Z" />
<glyph unicode="&#x1fc;" glyph-name="AEacute" horiz-adv-x="890" d="M840 683V518H828Q803 587 781 624T732 662H578V363H685Q717 363 733 389T758 469H769V233H758Q750 281 734 310T685 339H578V21H745Q769 21 796 58T847 184H858V0H358V10L378 14Q388 16 395
18T407 27T414 43T417 70V297H221L72 43L161 8V0H-4V8Q13 18 23 25T44 49L373 612Q390 641 388 652T358 669L338 673V683H840ZM417 321V630L235 321H417ZM597 817Q604 824 613 832T634 847T657 860T682 865Q712 865 727 849T742 808Q742 785 725 767T665 743L508
728L504 736L597 817Z" />
<glyph unicode="&#x1fd;" glyph-name="aeacute" horiz-adv-x="781" d="M367 678Q384 710 402 731T449 753Q474 753 490 738T506 696Q506 648 446 619L309 553L301 558L367 678ZM445 280Q447 191 489 143T613 95Q639 95 663 101T707 117T743 138T766 159V136Q761
118 745 93T702 45T636 5T543 -12Q474 -12 423 12T340 83Q332 69 319 53T285 22T235 -2T168 -12Q132 -12 105 -2T59 25T31 64T21 111Q21 141 35 172T83 216Q93 220 119 228T178 247T243 268T297 286V360Q297 423 281 448T229 474Q209 474 197 465T176 443T160 415T144
386T123 364T91 355Q68 355 55 370T42 406Q42 423 51 440T82 471T139 493T229 502Q286 502 331 492T406 456Q471 501 546 501Q587 501 625 488T692 448T740 380T762 280H445ZM297 236Q297 243 297 249T298 263Q279 256 260 250T223 235Q204 227 191 202T178 144Q178
101 197 79T248 57Q279 57 300 72T329 100Q297 156 297 236ZM544 473Q527 473 510 461T479 428T456 375T445 306L583 313Q597 314 601 319T605 339Q605 409 587 441T544 473Z" />
<glyph unicode="&#x1fe;" glyph-name="Oslashacute" horiz-adv-x="675" d="M654 351Q654 271 630 205T563 90T465 16T343 -11Q289 -11 240 4T150 51L89 -38L66 -23L129 68Q80 113 52 179T23 333Q23 415 47 481T114 595T212 668T334 694Q386 694 434 679T522 634L574
709L597 694L543 617Q594 572 624 505T654 351ZM485 349Q485 393 480 433T467 508L219 150Q239 84 273 46T349 7Q383 7 408 34T451 108T476 217T485 349ZM193 335Q193 293 197 256T209 184L458 542Q438 604 407 639T335 675Q301 675 275 649T230 577T203 469T193
335ZM320 817Q327 824 336 832T357 847T380 860T405 865Q435 865 450 849T465 808Q465 785 448 767T388 743L231 728L227 736L320 817Z" />
<glyph unicode="&#x1ff;" glyph-name="oslashacute" horiz-adv-x="559" d="M543 245Q543 186 522 139T466 58T383 6T283 -12Q248 -12 215 -4T151 18L113 -43L89 -30L128 32Q77 64 47 117T16 240Q16 298 37 346T94 428T177 481T278 500Q345 500 403 471L439 528L463
514L427 458Q479 425 511 371T543 245ZM378 237Q378 307 366 361L201 98Q213 60 233 38T284 16Q311 16 329 33T358 81T373 152T378 237ZM183 247Q183 184 192 135L357 397Q345 432 326 452T281 472Q256 472 238 455T207 408T189 336T183 247ZM257 679Q274 711 292
732T339 754Q364 754 380 739T396 697Q396 649 336 620L199 554L191 559L257 679Z" />
<glyph unicode="&#x218;" glyph-name="Scommaaccent" horiz-adv-x="519" d="M236 8Q293 8 328 42T363 133Q363 170 351 195T317 240T263 276T195 312Q159 331 130 351T81 395T50 450T39 518Q39 565 58 598T111 653T188 684T280 694Q315 694 349 688T405 682Q428
682 441 695H447V504H438Q428 542 411 573T372 627T326 662T280 675Q260 675 240 670T205 652T179 622T169 577Q169 545 183 522T221 482T272 452T326 424Q359 407 390 388T445 342T485 280T500 194Q500 145 479 107T422 43T338 3T236 -11Q202 -11 175 -8T128 0T93
7T69 11Q55 11 47 5T36 -7H30V239H40Q49 193 67 151T111 78T169 27T236 8ZM335 -118Q335 -145 323 -167T292 -206T249 -234T202 -252L191 -249Q211 -228 226 -202T249 -155Q218 -157 194 -143T170 -97Q170 -68 191 -50T250 -32Q292 -32 313 -57T335 -118Z" />
<glyph unicode="&#x219;" glyph-name="scommaaccent" horiz-adv-x="431" d="M198 13Q240 13 265 34T291 87Q291 125 263 146T173 188Q141 198 114 212T65 245T32 291T20 354Q20 396 37 424T83 469T148 494T222 501Q246 501 266 498T304 493T337 492T366 502H372V363H363Q355
384 342 404T311 439T271 465T222 475Q178 475 159 458T140 415Q140 403 144 393T158 373T188 354T239 333Q275 320 307 305T363 269T401 220T415 153Q415 111 397 80T349 29T280 -2T197 -12Q152 -12 121 -6T68 0Q48 0 32 -10H26V153H35Q42 129 54 104T86 59T133
26T198 13ZM546 -118Q546 -145 534 -167T503 -206T460 -234T413 -252L402 -249Q422 -228 437 -202T460 -155Q429 -157 405 -143T381 -97Q381 -68 402 -50T461 -32Q503 -32 524 -57T546 -118Z" />
<glyph unicode="&#x21a;" glyph-name="uni021A" horiz-adv-x="563" d="M471 680Q501 680 516 684T550 695V511H540Q530 547 519 574T494 618T459 645T411 654H360V70Q360 53 362 43T370 27T384 19T403 14L433 10V0H129V10L159 14Q170 16 178 18T191 27T199 43T202
70V654H151Q121 654 101 645T66 619T42 574T22 511H12V695Q30 688 45 684T91 680H471V680ZM366 -118Q366 -145 354 -167T323 -206T280 -234T233 -252L222 -249Q242 -228 257 -202T280 -155Q249 -157 225 -143T201 -97Q201 -68 222 -50T281 -32Q323 -32 344 -57T366
-118Z" />
<glyph unicode="&#x21b;" glyph-name="uni021B" horiz-adv-x="371" d="M378 96Q373 85 362 67T330 31T279 1T209 -12Q174 -12 146 -2T97 24T67 63T56 110V447H-3V473Q50 493 101 528T199 623H210V490H378L357 447H210V146Q210 133 213 120T224 97T248 80T290 73Q307
73 321 77T347 87T366 99T378 109V96V96ZM295 -118Q295 -145 283 -167T252 -206T209 -234T162 -252L151 -249Q171 -228 186 -202T209 -155Q178 -157 154 -143T130 -97Q130 -68 151 -50T210 -32Q252 -32 273 -57T295 -118Z" />
<glyph unicode="&#x237;" glyph-name="uni0237" horiz-adv-x="264" d="M7 431V443Q19 445 41 452T91 468T148 487T200 507L208 501V50Q208 -2 192 -43T147 -112T80 -156T-2 -172Q-69 -172 -94 -155T-119 -112Q-119 -92 -106 -80T-73 -67Q-49 -67 -35 -79T-11 -105T7
-132T27 -144Q54 -144 54 -58V409L7 431Z" />
<glyph unicode="&#x2c6;" glyph-name="circumflex" horiz-adv-x="458" d="M224 748H234L370 551L362 548L229 613L96 548L88 551L224 748Z" />
<glyph unicode="&#x2c7;" glyph-name="caron" horiz-adv-x="458" d="M97 748L230 683L363 748L371 745L235 548H225L89 745L97 748Z" />
<glyph unicode="&#x2d8;" glyph-name="breve" horiz-adv-x="458" d="M228 555Q192 555 168 569T128 607T107 659T101 718L109 720Q120 691 152 672T228 653Q272 653 304 672T347 720L356 718Q357 689 351 660T329 608T289 570T228 555Z" />
<glyph unicode="&#x2d9;" glyph-name="dotaccent" horiz-adv-x="458" d="M312 615Q312 581 288 559T229 537Q194 537 170 559T146 615Q146 650 170 672T229 694Q264 694 288 672T312 615Z" />
<glyph unicode="&#x2da;" glyph-name="ring" horiz-adv-x="458" d="M229 551Q184 551 157 577T130 642Q130 681 157 706T229 732Q274 732 301 707T328 642Q328 603 301 577T229 551ZM229 578Q249 578 263 595T278 642Q278 671 263 688T229 705Q209 705 195 688T180
642Q180 613 194 596T229 578Z" />
<glyph unicode="&#x2db;" glyph-name="ogonek" horiz-adv-x="458" d="M198 -193Q160 -193 136 -175T112 -127Q112 -103 126 -83T164 -48T217 -20T275 0H291Q273 -17 258 -37T243 -83Q243 -97 251 -106T274 -115Q296 -115 314 -109T342 -97V-104Q338 -113 327 -128T297
-157T254 -182T198 -193Z" />
<glyph unicode="&#x2dc;" glyph-name="tilde" horiz-adv-x="458" d="M77 546Q79 573 86 601T106 653T135 691T171 706Q186 706 201 700T233 686T265 672T295 666Q307 666 318 672T338 687T354 707T367 728L374 726Q372 694 364 665T344 613T317 578T284 565Q268
565 252 571T219 584T187 598T157 604Q146 604 136 599T116 584T98 565T84 544L77 546V546Z" />
<glyph unicode="&#x2dd;" glyph-name="hungarumlaut" horiz-adv-x="458" d="M305 667Q318 707 333 732T380 758Q402 758 418 745T434 707Q434 689 426 672T398 640L279 555L271 559L305 667ZM127 667Q140 707 155 732T202 758Q224 758 240 745T256 707Q256 689
248 672T220 640L101 555L93 559L127 667Z" />
</font>
</defs>
</svg>
