<?xml version="1.0" standalone="no"?> <!DOCTYPE svg PUBLIC "-//W3C//DTD SVG 1.0//EN" "http://www.w3.org/TR/2001/REC-SVG-20010904/DTD/svg10.dtd" > <svg xmlns="http://www.w3.org/2000/svg" width="100%" height="100%">
<defs >
<font horiz-adv-x="447" ><font-face
    font-family="Duplex Sans Web"
    units-per-em="1000"
    panose-1="0 0 0 0 0 0 0 0 0 0"
    ascent="807"
    descent="-193"
    alphabetic="0" />
<missing-glyph horiz-adv-x="173" />
<glyph unicode=" " glyph-name="space" horiz-adv-x="173" />
<glyph unicode="!" glyph-name="exclam" horiz-adv-x="256" d="M99 693H158L152 179H105L99 693ZM99 72H158V0H99V72Z" />
<glyph unicode="&quot;" glyph-name="quotedbl" horiz-adv-x="328" d="M193 693H251L245 531H198L193 693ZM77 693H136L130 531H83L77 693Z" />
<glyph unicode="#" glyph-name="numbersign" horiz-adv-x="483" d="M64 479H154L186 693H231L198 479H325L357 693H401L368 479H446V432H361L338 278H418V230H330L296 0H252L287 230H160L125 0H81L116 230H36V278H123L146 432H64V479ZM167 278H294L318 432H191L167 278Z" />
<glyph unicode="$" glyph-name="dollar" horiz-adv-x="470" d="M181 -8Q134 -4 97 7T33 35V80Q65 62 104 51T185 36L213 338L197 344Q158 357 129 373T81 410T53 461T43 529Q43 566 55 598T92 653T154 689T242 702H248L254 766H297L290 699Q326 695 352 687T399
667V621Q379 632 351 641T286 654L260 377L271 374Q309 361 339 346T390 308T422 255T433 181Q433 95 384 44T223 -10L213 -116H171L181 -8ZM378 178Q378 209 371 232T348 271T310 300T255 324L227 35Q307 39 342 75T378 178ZM96 533Q96 504 101 483T121 445T158
416T218 391L243 657H241Q167 657 132 623T96 533Z" />
<glyph unicode="%" glyph-name="percent" horiz-adv-x="779" d="M191 338Q124 338 84 382T43 512V524Q43 607 83 654T191 702Q258 702 298 657T339 527V516Q339 432 299 385T191 338ZM588 -8Q521 -8 481 37T440 167V179Q440 262 480 309T588 357Q656 357 696 312T736
183V170Q736 87 696 40T588 -8ZM588 713H638L184 -40H135L588 713ZM589 29Q634 29 659 62T685 165V184Q685 252 659 285T588 318Q543 318 516 286T489 184V166Q489 96 515 63T589 29ZM191 376Q237 376 263 408T290 511V529Q290 598 263 631T191 664Q146 664 120
631T93 529V511Q93 441 119 409T191 376Z" />
<glyph unicode="&amp;" glyph-name="ampersand" horiz-adv-x="588" d="M256 -9Q155 -9 96 40T38 182Q38 221 49 251T80 307T129 352T191 390L181 403Q152 438 135 474T118 551Q118 591 131 619T166 666T216 693T274 702Q338 702 379 665T421 562Q421 526 408 499T374
449T325 410T269 378L448 154Q466 189 476 230T490 320H540Q532 202 479 115L572 0H506L447 72Q412 34 365 13T256 -9ZM256 36Q310 36 350 55T418 108L217 358Q191 343 169 327T130 291T104 246T94 187Q94 117 135 77T256 36ZM174 555Q174 522 188 493T225 434L243
411Q266 424 288 438T327 469T355 509T366 561Q366 608 340 633T274 659Q233 659 204 635T174 555Z" />
<glyph unicode="&apos;" glyph-name="quotesingle" horiz-adv-x="187" d="M64 693H122L116 531H70L64 693Z" />
<glyph unicode="(" glyph-name="parenleft" horiz-adv-x="302" d="M224 -120Q192 -84 164 -40T113 57T78 170T65 299V318Q65 386 78 446T113 559T163 656T224 737H273Q242 699 214 654T165 557T132 446T120 324V298Q120 236 132 177T165 65T214 -36T273 -120H224V-120Z" />
<glyph unicode=")" glyph-name="parenright" horiz-adv-x="302" d="M28 -120Q59 -83 87 -38T136 60T169 171T181 293V319Q181 381 169 440T136 552T87 652T28 737H77Q109 701 138 657T189 560T224 447T237 318V299Q237 230 224 170T189 57T138 -40T77 -120H28V-120Z" />
<glyph unicode="*" glyph-name="asterisk" horiz-adv-x="347" d="M155 520L60 461L41 496L138 550L41 603L60 638L155 580L153 693H193L192 580L287 639L307 603L209 550L307 496L287 461L192 520L193 407H153L155 520Z" />
<glyph unicode="+" glyph-name="plus" horiz-adv-x="474" d="M213 317H47V363H213V538H261V363H427V317H261V143H213V317Z" />
<glyph unicode="," glyph-name="comma" horiz-adv-x="229" d="M89 73H151L118 -93H73L89 73Z" />
<glyph unicode="-" glyph-name="hyphen" horiz-adv-x="294" d="M55 291H239V246H55V291Z" />
<glyph unicode="." glyph-name="period" horiz-adv-x="232" d="M86 72H145V0H86V72Z" />
<glyph unicode="/" glyph-name="slash" horiz-adv-x="320" d="M245 737H293L57 -120H9L245 737Z" />
<glyph unicode="0" glyph-name="zero" horiz-adv-x="533" d="M266 -10Q216 -10 174 7T100 60T50 150T32 278V307Q32 381 50 435T99 526T173 580T266 598Q316 598 359 581T433 528T483 438T501 310V281Q501 206 483 152T433 61T358 8T266 -10ZM267 34Q351 34 399
92T447 274V311Q447 432 399 493T266 555Q182 555 135 495T87 314V278Q87 157 134 96T267 34Z" />
<glyph unicode="1" glyph-name="one" horiz-adv-x="299" d="M151 530L28 506V539L184 594H205V0H151V530Z" />
<glyph unicode="2" glyph-name="two" horiz-adv-x="424" d="M24 39L183 189Q219 223 245 251T289 307T316 363T325 425Q325 488 293 521T194 554Q152 554 117 544T53 518V558Q82 575 120 586T205 598Q291 598 335 553T380 429Q380 391 369 359T338 295T287 232T218
164L91 47V44H386V0H24V39Z" />
<glyph unicode="3" glyph-name="three" horiz-adv-x="445" d="M185 -106Q124 -106 86 -95T17 -65V-24Q51 -40 87 -51T174 -62Q259 -62 306 -23T354 94Q354 170 311 205T187 241H126V285H181Q249 285 289 319T329 422Q329 491 292 523T189 555Q143 555 110 546T47
523V564Q77 581 116 590T201 600Q289 600 336 556T383 430Q383 360 349 322T261 270V268Q291 263 318 251T365 217T397 164T409 91Q409 -3 350 -54T185 -106Z" />
<glyph unicode="4" glyph-name="four" horiz-adv-x="515" d="M332 93H18V134L339 591H385V138H499V93H385V-98H332V93ZM332 138V502H329L75 140V138H332Z" />
<glyph unicode="5" glyph-name="five" horiz-adv-x="441" d="M182 -106Q131 -106 92 -96T23 -65V-23Q60 -43 95 -52T173 -61Q261 -61 305 -16T350 113Q350 203 305 238T173 273Q135 273 107 269T56 257L79 590H393V545H123L106 307Q139 318 187 318Q238 318 278
307T346 272T390 208T405 114Q405 67 391 27T349 -43T279 -89T182 -106Z" />
<glyph unicode="6" glyph-name="six" horiz-adv-x="497" d="M263 -10Q206 -10 164 11T93 73T50 169T36 293V329Q36 431 58 502T117 618T204 682T310 702Q348 702 379 695T432 677V635Q411 645 381 651T319 658Q273 658 233 643T162 593T113 498T92 348Q121 374
166 394T271 414Q313 414 349 403T411 367T452 306T467 216Q467 166 454 125T414 53T350 7T263 -10ZM264 35Q334 35 373 81T413 212Q413 257 402 287T369 335T320 362T257 370Q201 370 161 352T91 309V291Q91 235 100 188T131 107T185 54T264 35Z" />
<glyph unicode="7" glyph-name="seven" horiz-adv-x="423" d="M353 542V545H21V590H406V546L135 -98H77L353 542Z" />
<glyph unicode="8" glyph-name="eight" horiz-adv-x="504" d="M253 -10Q201 -10 161 3T92 40T50 97T35 171Q35 209 48 239T84 293T136 334T196 363Q132 390 96 429T59 538Q59 574 73 604T112 656T173 690T253 702Q296 702 332 691T393 660T433 609T447 541Q447
506 435 478T404 428T359 390T306 361Q340 348 370 333T422 297T458 246T471 175Q471 135 456 101T413 43T345 4T253 -10ZM252 34Q328 34 372 72T417 170Q417 206 406 231T371 275T313 309T233 342Q207 331 181 317T134 282T100 235T86 174Q86 111 129 73T252 34ZM268
380Q292 393 315 407T355 440T382 482T393 538Q393 595 356 626T253 658Q190 658 152 627T113 540Q113 510 122 487T150 445T198 411T268 380Z" />
<glyph unicode="9" glyph-name="nine" horiz-adv-x="497" d="M192 -108Q151 -108 117 -100T61 -80V-38Q82 -48 115 -55T184 -62Q231 -62 271 -48T340 2T387 96T406 243Q377 217 332 197T228 177Q186 177 150 188T88 223T46 284T31 374Q31 424 45 465T85 537T150
583T237 600Q293 600 335 579T405 518T447 423T461 299V263Q461 161 441 91T386 -24T301 -88T192 -108ZM241 222Q297 222 336 240T407 282V300Q407 357 398 403T367 484T314 536T237 555Q166 555 126 510T85 379Q85 334 97 304T130 255T179 230T241 222Z" />
<glyph unicode=":" glyph-name="colon" horiz-adv-x="241" d="M91 378H151V306H91V378ZM91 72H151V0H91V72Z" />
<glyph unicode=";" glyph-name="semicolon" horiz-adv-x="241" d="M91 73H152L119 -93H73L91 73ZM90 378H150V306H90V378Z" />
<glyph unicode="&lt;" glyph-name="less" horiz-adv-x="440" d="M41 295V339L389 511V458L97 317L389 177V122L41 295Z" />
<glyph unicode="=" glyph-name="equal" horiz-adv-x="486" d="M52 418H434V372H52V418ZM52 249H434V203H52V249Z" />
<glyph unicode="&gt;" glyph-name="greater" horiz-adv-x="440" d="M51 175L342 317L51 457V511L399 339V295L51 122V175Z" />
<glyph unicode="?" glyph-name="question" horiz-adv-x="380" d="M121 243Q121 270 128 290T148 328T179 362T221 400Q258 432 275 461T292 539Q292 600 259 628T160 656Q118 656 87 649T23 626V670Q55 686 90 694T171 702Q252 702 301 663T350 540Q350 511 345
489T327 446T297 408T254 367Q235 350 220 336T194 308T178 277T172 240V179H121V243ZM118 72H178V0H118V72Z" />
<glyph unicode="@" glyph-name="at" horiz-adv-x="833" d="M414 -152Q230 -152 135 -57T40 216Q40 308 67 391T147 539T277 640T457 678Q540 678 603 653T709 581T773 473T795 335Q795 264 780 208T738 113T673 53T589 32Q541 32 520 52T495 100H491Q469 74 436
53T360 32Q295 32 262 75T229 193Q229 255 243 308T285 401T350 462T437 484Q477 484 504 471T545 444H548L554 476H604L546 146Q539 112 549 92T595 72Q664 72 707 140T750 332Q750 400 733 456T679 552T588 615T456 637Q366 637 297 605T181 515T110 381T86 216Q86
59 166 -26T414 -112Q483 -112 539 -98T630 -71V-108Q591 -125 535 -138T414 -152ZM372 75Q412 75 442 95T493 142L538 403Q524 417 500 429T438 441Q399 441 370 421T321 368T293 289T283 194Q283 75 372 75Z" />
<glyph unicode="A" glyph-name="A" horiz-adv-x="553" d="M249 693H305L547 0H490L414 219H135L59 0H6L249 693ZM274 619Q268 600 262 583Q257 569 252 555T244 532L151 266H397L306 531Q303 539 298 554T288 583Q282 600 276 619H274Z" />
<glyph unicode="B" glyph-name="B" horiz-adv-x="533" d="M71 693H262Q372 693 420 650T469 523Q469 458 438 419T350 365V362Q380 358 407 348T454 317T487 267T499 193Q499 102 446 51T284 0H71V693ZM280 46Q361 46 401 82T441 196Q441 273 396 305T268 337H125V46H280ZM257
381Q290 381 318 388T368 412T400 454T412 516Q412 588 375 617T257 646H125V381H257Z" />
<glyph unicode="C" glyph-name="C" horiz-adv-x="525" d="M318 -9Q180 -9 108 76T35 335V361Q35 451 56 515T117 621T210 682T330 702Q387 702 425 693T493 666V619Q458 635 420 645T327 656Q273 656 230 640T157 588T110 499T93 369V335Q93 189 148 113T324 37Q388
37 428 51T499 81V33Q470 16 427 4T318 -9Z" />
<glyph unicode="D" glyph-name="D" horiz-adv-x="593" d="M68 693H248Q403 693 482 613T561 362V342Q561 173 485 87T249 0H68V693ZM250 48Q380 48 441 116T502 334V362Q502 439 486 493T437 580T356 629T243 645H123V48H250Z" />
<glyph unicode="E" glyph-name="E" horiz-adv-x="493" d="M70 693H454V646H124V381H379V333H124V47H456V0H70V693Z" />
<glyph unicode="F" glyph-name="F" horiz-adv-x="464" d="M67 693H441V646H122V374H370V327H122V0H67V693Z" />
<glyph unicode="G" glyph-name="G" horiz-adv-x="578" d="M331 -9Q185 -9 109 75T32 333V355Q32 446 54 512T116 620T211 682T333 702Q396 702 434 691T500 666V618Q471 632 432 644T330 656Q267 656 222 635T148 576T105 483T91 363V334Q91 265 103 210T144 117T219
58T333 37Q373 37 408 43T469 59V279H322V326H524V26Q486 11 439 1T331 -9Z" />
<glyph unicode="H" glyph-name="H" horiz-adv-x="611" d="M70 693H125V383H486V693H541V0H486V337H125V0H70V693Z" />
<glyph unicode="I" glyph-name="I" horiz-adv-x="233" d="M90 693H144V0H90V693Z" />
<glyph unicode="J" glyph-name="J" horiz-adv-x="383" d="M137 -6Q73 -6 30 15V59Q50 51 77 47T133 42Q196 42 223 72T251 163V693H307V162Q307 87 267 41T137 -6Z" />
<glyph unicode="K" glyph-name="K" horiz-adv-x="539" d="M175 353L445 693H506L238 359L516 0H452L175 353ZM78 693H133V0H78V693Z" />
<glyph unicode="L" glyph-name="L" horiz-adv-x="464" d="M71 693H126V47H440V0H71V693Z" />
<glyph unicode="M" glyph-name="M" horiz-adv-x="735" d="M70 693H153L330 180Q332 173 337 156T349 119Q356 97 365 72H368Q377 98 384 120Q390 139 396 156T404 180L582 693H666V0H611V468Q611 479 611 504T611 556T611 602T612 625H609L588 562Q580 537 572
514T561 482L391 0H338L173 474Q170 482 162 507T145 558Q134 589 122 625H120V555Q120 527 120 501T121 466V0H70V693Z" />
<glyph unicode="N" glyph-name="N" horiz-adv-x="607" d="M68 693H135L404 233Q412 219 425 195T453 147Q469 119 487 88H488V693H539V0H480L199 481Q191 495 178 518T152 564Q137 590 121 619H119V0H68V693Z" />
<glyph unicode="O" glyph-name="O" horiz-adv-x="622" d="M310 -9Q179 -9 105 78T30 337V357Q30 524 104 613T311 702Q442 702 517 614T592 357V335Q592 253 573 189T517 81T429 14T310 -9ZM311 36Q420 36 476 114T533 327V357Q533 499 478 577T309 657Q256 657
215 637T145 580T103 488T88 367V337Q88 196 143 116T311 36Z" />
<glyph unicode="P" glyph-name="P" horiz-adv-x="508" d="M77 693H257Q375 693 426 642T478 495Q478 395 423 344T267 292H132V0H77V693ZM257 338Q343 338 381 376T420 491Q420 530 412 559T384 608T332 636T252 646H132V338H257Z" />
<glyph unicode="Q" glyph-name="Q" horiz-adv-x="623" d="M593 336Q593 191 537 107T373 3L622 -55L609 -105L241 -4Q193 9 154 35T88 103T45 203T30 337V357Q30 524 104 613T312 702Q377 702 429 680T517 615T573 507T593 357V336ZM313 35Q367 35 408 55T477
113T519 205T534 327V357Q534 499 479 577T310 657Q203 657 146 580T89 367V337Q89 196 145 116T313 35Z" />
<glyph unicode="R" glyph-name="R" horiz-adv-x="528" d="M73 693H256Q366 693 416 643T467 504Q467 355 328 321V318L511 0H449L273 309H128V0H73V693ZM254 353Q298 353 327 364T375 394T401 441T409 503Q409 571 374 608T252 646H128V353H254Z" />
<glyph unicode="S" glyph-name="S" horiz-adv-x="456" d="M207 -10Q147 -10 101 3T22 35V82Q59 62 105 50T204 37Q290 37 329 75T368 180Q368 212 360 234T335 273T294 302T238 326L186 344Q147 357 119 373T71 412T42 463T32 531Q32 568 44 599T82 653T144 689T232
702Q289 702 327 692T391 667V619Q364 633 324 644T231 656Q159 656 123 623T87 535Q87 506 93 485T113 448T150 419T207 394L259 376Q296 362 326 347T379 310T412 258T424 184Q424 96 373 43T207 -10Z" />
<glyph unicode="T" glyph-name="T" horiz-adv-x="496" d="M221 646H10V693H486V646H275V0H221V646Z" />
<glyph unicode="U" glyph-name="U" horiz-adv-x="596" d="M300 -10Q186 -10 126 47T65 227V693H120V230Q120 122 166 79T302 35Q346 35 379 45T435 78T469 138T480 231V693H532V228Q532 104 473 47T300 -10Z" />
<glyph unicode="V" glyph-name="V" horiz-adv-x="545" d="M8 693H64L242 172Q244 164 250 149T261 116Q267 97 274 75H276Q284 97 290 116Q295 133 300 149T308 173L486 693H538L299 0H246L8 693Z" />
<glyph unicode="W" glyph-name="W" horiz-adv-x="789" d="M10 693H65L178 210Q179 205 184 186T194 144Q200 118 207 86H209Q217 117 224 143Q230 165 235 185T242 210L374 693H422L552 207Q554 200 558 180T569 139Q575 114 584 85H585Q591 114 597 139Q602 160
606 179T613 206L727 693H779L613 0H556L428 478Q426 483 421 502T411 543Q405 568 397 597H395Q387 568 381 544Q376 523 371 504T365 480L234 0H176L10 693Z" />
<glyph unicode="X" glyph-name="X" horiz-adv-x="547" d="M244 357L40 693H101L231 478Q235 471 242 459T258 433Q267 418 278 400H280Q290 418 300 434Q308 448 315 461T327 481L452 693H509L309 357L523 0H463L323 233Q319 240 311 253T295 281Q285 297 275
314H273Q263 296 253 281Q245 267 237 255T224 234L83 0H25L244 357Z" />
<glyph unicode="Y" glyph-name="Y" horiz-adv-x="509" d="M228 282L8 693H67L204 436Q209 425 218 409T236 376Q246 357 257 336H259Q270 357 280 376Q288 393 297 409T312 437L447 693H502L283 282V0H228V282Z" />
<glyph unicode="Z" glyph-name="Z" horiz-adv-x="485" d="M18 42L399 645V647H43V693H465V652L82 49V47H462V0H18V42Z" />
<glyph unicode="[" glyph-name="bracketleft" horiz-adv-x="309" d="M82 737H272V694H135V-77H272V-120H82V737Z" />
<glyph unicode="\" glyph-name="backslash" horiz-adv-x="319" d="M26 737H74L310 -120H262L26 737Z" />
<glyph unicode="]" glyph-name="bracketright" horiz-adv-x="309" d="M37 -77H173V694H37V737H226V-120H37V-77Z" />
<glyph unicode="^" glyph-name="asciicircum" horiz-adv-x="415" d="M186 693H230L371 457H323L209 643L93 457H45L186 693Z" />
<glyph unicode="_" glyph-name="underscore" horiz-adv-x="296" d="M-7 -68H305V-106H-7V-68Z" />
<glyph unicode="`" glyph-name="grave" horiz-adv-x="452" d="M116 726H175L254 586H207L116 726Z" />
<glyph unicode="a" glyph-name="a" horiz-adv-x="436" d="M187 -8Q118 -8 77 28T35 131Q35 197 73 232T183 276L323 294V360Q323 423 294 446T200 470Q164 470 134 464T78 450V489Q139 515 219 515Q296 515 336 482T376 372V0H332L327 41H324Q307 22 273 7T187
-8ZM200 33Q241 33 273 46T323 76V253L197 238Q142 231 116 207T90 133Q90 85 119 59T200 33Z" />
<glyph unicode="b" glyph-name="b" horiz-adv-x="501" d="M233 -10Q186 -10 140 -3T63 18V737H117V471H120Q149 488 186 501T277 515Q316 515 350 504T410 464T451 388T466 268V252Q466 122 406 56T233 -10ZM236 35Q274 35 306 46T361 82T398 147T411 245V265Q411
323 401 362T371 426T322 460T256 470Q211 470 175 457T117 430V56Q137 47 166 41T236 35Z" />
<glyph unicode="c" glyph-name="c" horiz-adv-x="407" d="M245 -8Q139 -8 83 56T27 244V262Q27 329 44 377T90 455T160 500T248 515Q294 515 324 507T380 483V438Q350 453 321 461T245 470Q172 470 127 422T82 269V245Q82 142 123 90T251 37Q302 37 334 50T386
74V30Q363 15 331 4T245 -8Z" />
<glyph unicode="d" glyph-name="d" horiz-adv-x="501" d="M234 -8Q195 -8 159 5T96 47T52 125T35 242V257Q35 324 50 373T94 453T162 500T251 515Q297 515 329 505T385 480V737H438V0H393L388 43H385Q359 20 323 6T234 -8ZM248 36Q296 36 329 50T385 84V434Q364
450 332 460T257 470Q179 470 135 423T90 264V244Q90 187 101 148T133 83T183 47T248 36Z" />
<glyph unicode="e" glyph-name="e" horiz-adv-x="444" d="M250 -8Q135 -8 79 57T22 246V261Q22 327 38 374T83 453T149 500T231 515Q331 515 376 456T422 279V247H77Q77 138 121 88T258 37Q306 37 341 47T406 73V32Q385 18 345 5T250 -8ZM229 472Q199 472 173
462T126 430T93 374T77 290H366Q366 382 333 427T229 472Z" />
<glyph unicode="f" glyph-name="f" horiz-adv-x="288" d="M97 463H22V507H97V588Q97 669 137 706T243 743Q271 743 290 739T323 727V688Q311 692 293 695T252 698Q204 698 177 672T150 584V507H267V463H150V0H97V463Z" />
<glyph unicode="g" glyph-name="g" horiz-adv-x="461" d="M224 -197Q169 -197 129 -187T64 -159T26 -117T13 -64Q13 -18 41 12T111 57V60Q90 66 75 84T59 129Q59 153 72 176T111 219Q82 238 65 269T48 345V356Q48 394 61 423T98 473T154 504T226 515Q243 515 259
514T290 507H451V466H353Q401 430 401 358V347Q401 308 388 279T351 229T295 199T225 189Q201 189 180 192T138 204Q127 193 119 178T110 146Q110 123 124 110T166 97H299Q332 97 360 90T409 68T440 27T452 -34Q452 -67 439 -96T399 -148T328 -184T224 -197ZM222
-152Q318 -152 358 -121T398 -41Q398 8 371 27T292 46H153Q118 33 93 8T68 -57Q68 -99 103 -125T222 -152ZM225 230Q282 230 315 259T348 345V359Q348 419 314 446T225 474Q168 474 135 445T102 360V346Q102 288 136 259T225 230Z" />
<glyph unicode="h" glyph-name="h" horiz-adv-x="494" d="M63 737H117V463H120Q157 487 201 501T294 515Q363 515 398 484T434 384V0H381V375Q381 426 357 448T272 470Q232 470 192 458T117 425V0H63V737Z" />
<glyph unicode="i" glyph-name="i" horiz-adv-x="205" d="M76 507H129V0H76V507ZM75 678H130V615H75V678Z" />
<glyph unicode="j" glyph-name="j" horiz-adv-x="205" d="M10 -196Q-10 -196 -25 -192T-53 -183V-144Q-41 -147 -29 -149T-2 -152Q77 -152 77 -67V507H130V-69Q130 -128 102 -162T10 -196ZM76 678H130V615H76V678Z" />
<glyph unicode="k" glyph-name="k" horiz-adv-x="443" d="M70 737H123V0H70V737ZM153 264L345 507H404L213 267L419 0H357L153 264Z" />
<glyph unicode="l" glyph-name="l" horiz-adv-x="205" d="M76 737H129V0H76V737Z" />
<glyph unicode="m" glyph-name="m" horiz-adv-x="746" d="M55 507H107V462H110Q147 486 187 500T270 515Q355 515 386 459H389Q476 515 561 515Q623 515 658 485T693 384V0H640V375Q640 426 617 448T542 470Q507 470 471 458T397 424Q399 414 400 404T401 383V0H348V375Q348
426 326 448T252 470Q215 470 180 458T109 425V0H55V507Z" />
<glyph unicode="n" glyph-name="n" horiz-adv-x="494" d="M63 507H115V462H118Q156 486 201 500T294 515Q363 515 398 484T434 384V0H381V375Q381 426 357 448T272 470Q232 470 192 458T117 425V0H63V507Z" />
<glyph unicode="o" glyph-name="o" horiz-adv-x="490" d="M245 -8Q146 -8 88 55T30 243V261Q30 323 46 370T90 450T158 498T245 515Q294 515 334 499T402 452T445 373T461 264V247Q461 185 445 138T401 58T333 9T245 -8ZM246 35Q318 35 362 87T406 241V267Q406
322 394 360T361 424T309 460T244 472Q172 472 128 420T84 267V240Q84 186 96 147T129 84T181 47T246 35Z" />
<glyph unicode="p" glyph-name="p" horiz-adv-x="501" d="M64 507H115V465H118Q144 485 182 500T272 515Q314 515 349 503T411 462T452 385T467 266V251Q467 117 409 55T249 -8Q204 -8 172 2T117 26V-194H64V507ZM244 35Q323 35 367 84T412 245V265Q412 323 402
362T372 426T324 460T259 470Q211 470 175 456T117 426V71Q137 57 170 46T244 35Z" />
<glyph unicode="q" glyph-name="q" horiz-adv-x="499" d="M384 37H381Q358 20 323 6T233 -8Q194 -8 159 4T96 46T52 122T35 240V256Q35 327 52 376T100 456T172 501T264 515Q322 515 365 505T438 478V-194H384V37ZM249 37Q296 37 329 51T384 84V448Q363 458 332
465T262 472Q223 472 191 461T137 424T102 359T90 262V241Q90 184 101 145T133 82T183 48T249 37Z" />
<glyph unicode="r" glyph-name="r" horiz-adv-x="311" d="M66 507H117V449H120Q143 473 180 493T262 514Q270 514 277 513T290 510V462Q283 464 274 464T258 465Q216 465 181 449T119 410V0H66V507Z" />
<glyph unicode="s" glyph-name="s" horiz-adv-x="368" d="M175 -8Q126 -8 89 1T24 26V70Q53 57 85 47T169 37Q234 37 261 63T289 131Q289 153 284 168T267 195T238 214T195 231L143 247Q90 263 60 292T29 382Q29 442 69 478T188 515Q235 515 265 507T316 487V443Q294
454 261 462T191 470Q136 470 108 449T80 387Q80 348 99 328T162 295L214 279Q247 269 271 257T311 229T334 190T342 135Q342 70 301 31T175 -8Z" />
<glyph unicode="t" glyph-name="t" horiz-adv-x="313" d="M209 -6Q153 -6 124 20T94 103V463H22V507H94V627H147V507H277V463H147V111Q147 73 162 56T223 39Q239 39 256 41T287 49V12Q274 5 255 0T209 -6Z" />
<glyph unicode="u" glyph-name="u" horiz-adv-x="487" d="M205 -8Q134 -8 97 25T59 128V507H112V134Q112 82 137 60T220 37Q260 37 299 50T372 84V507H426V0H379L374 45H371Q333 22 291 7T205 -8Z" />
<glyph unicode="v" glyph-name="v" horiz-adv-x="451" d="M17 507H74L209 123Q212 109 219 90Q223 80 226 69H229Q232 80 236 90Q239 98 242 107T247 123L381 507H434L253 0H199L17 507Z" />
<glyph unicode="w" glyph-name="w" horiz-adv-x="673" d="M15 507H71L163 161Q165 154 168 139T176 109Q180 91 186 71H189Q194 90 199 108Q203 123 207 137T214 160L315 507H363L462 165Q464 158 468 143T477 111Q482 93 489 71H492Q498 93 502 111Q506 127 510
142T516 166L606 507H657L517 0H461L365 329Q363 336 359 351T350 382Q345 400 338 422H336Q330 401 325 383Q320 367 316 352T309 329L212 0H155L15 507Z" />
<glyph unicode="x" glyph-name="x" horiz-adv-x="437" d="M188 259L28 507H88L182 361Q185 355 191 345T205 323Q213 311 222 298H223Q231 311 238 323Q244 334 250 344T260 361L350 507H406L250 259L416 0H356L256 158Q253 163 247 173T234 193Q226 204 218 218H217Q208
203 200 192Q193 181 187 172T178 158L77 0H21L188 259Z" />
<glyph unicode="y" glyph-name="y" horiz-adv-x="443" d="M88 -197Q71 -197 56 -194T30 -186V-148Q52 -153 79 -153Q117 -153 138 -133T175 -70L205 9L15 507H71L195 175Q197 169 202 154T213 122Q220 103 229 81H231Q239 104 246 123Q252 140 257 155T264 175L378
507H431L225 -77Q204 -137 175 -167T88 -197Z" />
<glyph unicode="z" glyph-name="z" horiz-adv-x="411" d="M29 40L317 461V463H43V507H382V468L92 46V44H380V0H29V40Z" />
<glyph unicode="{" glyph-name="braceleft" horiz-adv-x="343" d="M305 -123Q252 -120 218 -108T165 -76T138 -29T130 29V189Q130 242 105 262T26 286V331Q80 335 105 355T130 429V589Q130 620 137 647T164 694T218 726T305 741V698Q240 692 212 669T183 587V427Q183
378 161 349T86 310V308Q139 298 161 269T183 191V32Q183 3 190 -17T211 -50T249 -69T305 -79V-123V-123Z" />
<glyph unicode="|" glyph-name="bar" horiz-adv-x="264" d="M109 737H156V-120H109V737Z" />
<glyph unicode="}" glyph-name="braceright" horiz-adv-x="343" d="M38 -79Q71 -76 94 -70T131 -50T153 -17T160 32V191Q160 240 181 269T256 308V310Q203 320 182 349T160 427V587Q160 645 132 668T38 698V741Q91 738 125 726T178 694T205 647T213 589V429Q213
376 237 356T316 332V287Q262 283 238 263T213 189V29Q213 -2 206 -28T179 -75T125 -108T38 -123V-79Z" />
<glyph unicode="~" glyph-name="asciitilde" horiz-adv-x="365" d="M26 247Q33 298 58 319T117 340Q136 340 153 333T186 317T217 301T248 294Q291 294 299 341H340Q332 291 308 270T248 249Q228 249 211 256T179 272T148 288T117 295Q74 295 66 247H26V247Z" />
<glyph unicode="&#xa0;" glyph-name="uni00A0" horiz-adv-x="173" />
<glyph unicode="&#xa1;" glyph-name="exclamdown" horiz-adv-x="256" d="M105 394H152L158 -120H99L105 394ZM99 573H158V501H99V573Z" />
<glyph unicode="&#xa2;" glyph-name="cent" horiz-adv-x="405" d="M186 -2Q108 15 67 76T26 243V261Q26 328 43 376T90 455T160 500T247 515H257L267 587H310L299 511Q324 508 344 501T381 483V439Q360 450 340 457T293 468L233 35H250Q301 35 333 47T386 71V31Q363
15 331 4T244 -8Q239 -8 235 -8T227 -7L212 -117H170L186 -2ZM80 245Q80 75 192 42L251 471H243Q207 471 178 459T126 421T92 358T80 268V245Z" />
<glyph unicode="&#xa3;" glyph-name="sterling" horiz-adv-x="479" d="M40 364H122V490Q122 548 138 588T182 654T244 691T318 702Q358 702 390 694T442 674V631Q415 643 389 649T326 655Q295 655 268 647T221 620T189 568T177 487V364H369V321H177V223Q177 153
158 114T101 49V47H453V0H33V41Q77 67 99 108T122 220V321H40V364Z" />
<glyph unicode="&#xa5;" glyph-name="yen" horiz-adv-x="526" d="M238 154H76V198H238V289H76V333H226L30 693H90L216 458Q221 448 229 432T246 400Q256 382 266 361H268Q279 382 289 401Q297 417 305 433T319 459L444 693H499L304 333H455V289H292V198H455V154H292V0H238V154Z"
/>
<glyph unicode="&#xa6;" glyph-name="brokenbar" horiz-adv-x="270" d="M111 280H160V-120H111V280ZM111 734H160V348H111V734Z" />
<glyph unicode="&#xa7;" glyph-name="section" horiz-adv-x="451" d="M208 -131Q155 -131 120 -121T58 -94V-49Q73 -56 87 -62T119 -74T156 -82T203 -85Q267 -85 299 -57T331 19Q331 65 310 87T234 126L156 153Q97 172 62 207T26 304Q26 355 53 386T129 434Q101
453 87 482T72 556Q72 620 115 661T243 702Q292 702 322 693T373 673V628Q352 639 321 647T245 656Q185 656 155 631T124 560Q124 518 141 495T205 455L287 428Q320 417 346 405T390 375T419 334T429 276Q429 224 402 191T323 142Q355 122 370 95T385 23Q385 -48
339 -89T208 -131ZM268 381Q243 389 225 395Q208 400 195 404T181 409Q177 411 173 411Q126 401 102 375T78 309Q78 266 101 241T172 199L252 173L276 165Q325 175 350 203T375 271Q375 318 348 341T268 381Z" />
<glyph unicode="&#xa8;" glyph-name="dieresis" horiz-adv-x="456" d="M271 677H325V615H271V677ZM132 677H185V615H132V677Z" />
<glyph unicode="&#xa9;" glyph-name="copyright" horiz-adv-x="729" d="M365 -10Q292 -10 231 17T124 91T54 203T29 345Q29 421 54 486T124 598T230 673T365 700Q437 700 498 673T605 599T675 486T700 345Q700 269 675 204T605 92T499 17T365 -10ZM365 23Q430
23 484 46T578 112T640 214T662 345Q662 416 640 475T579 577T485 643T365 667Q299 667 245 644T151 577T91 475T69 345Q69 274 90 215T151 113T244 47T365 23ZM374 147Q294 147 249 195T204 341V354Q204 403 217 439T253 499T307 533T377 545Q411 545 433 539T471
525V483Q452 491 430 496T375 502Q318 502 287 466T256 358V340Q256 266 286 228T379 190Q416 190 437 198T475 215V174Q459 164 435 156T374 147Z" />
<glyph unicode="&#xaa;" glyph-name="ordfeminine" horiz-adv-x="399" d="M168 229Q105 229 68 261T30 355Q30 414 64 446T165 487L289 502V559Q289 615 264 636T178 657Q146 657 118 652T68 639V677Q95 688 127 694T197 701Q268 701 304 670T341 570V237H297L293
274H290Q274 257 244 243T168 229ZM180 269Q215 269 243 280T289 307V463L178 450Q129 444 106 422T83 356Q83 314 109 292T180 269Z" />
<glyph unicode="&#xab;" glyph-name="guillemotleft" horiz-adv-x="417" d="M125 242V263L229 445H289L185 253L289 60H229L125 242Z" />
<glyph unicode="&#xae;" glyph-name="registered" horiz-adv-x="397" d="M198 326Q160 326 127 340T70 380T33 439T19 515Q19 556 32 590T70 650T127 689T198 703Q236 703 269 689T326 650T364 591T378 515Q378 474 364 440T326 380T269 341T198 326ZM198 351Q231
351 259 363T307 397T339 449T350 515Q350 551 339 581T308 632T259 666T198 679Q165 679 137 667T89 633T58 581T47 515Q47 479 58 449T89 398T137 364T198 351ZM138 611H200Q269 611 269 556Q269 516 234 506V504L279 423H244L204 498H171V423H138V611ZM201 523Q220
523 228 532T236 555Q236 571 228 578T198 585H171V523H201Z" />
<glyph unicode="&#xaf;" glyph-name="macron" horiz-adv-x="452" d="M117 673H335V628H117V673Z" />
<glyph unicode="&#xb0;" glyph-name="degree" horiz-adv-x="346" d="M174 454Q147 454 124 463T85 489T59 528T49 578Q49 604 58 627T84 666T124 692T174 702Q201 702 223 693T262 667T288 628T297 578Q297 552 288 529T263 490T224 464T174 454ZM174 488Q212
488 234 513T256 578Q256 617 234 642T174 668Q136 668 114 643T91 578Q91 539 113 514T174 488Z" />
<glyph unicode="&#xb4;" glyph-name="acute" horiz-adv-x="452" d="M278 726H338L246 586H199L278 726Z" />
<glyph unicode="&#xb6;" glyph-name="paragraph" horiz-adv-x="530" d="M273 343H223Q187 343 154 353T95 385T54 440T38 518Q38 554 48 585T81 641T144 679T240 693H453V-120H412V657H314V-120H273V343Z" />
<glyph unicode="&#xb7;" glyph-name="periodcentered" horiz-adv-x="231" d="M86 354H145V282H86V354Z" />
<glyph unicode="&#xb8;" glyph-name="cedilla" horiz-adv-x="452" d="M217 -80Q230 -79 239 -81T255 -86T264 -89T267 -85Q288 -76 292 -80T276 -104Q276 -115 272 -118T258 -121T233 -118T195 -117L212 -96Q204 -94 196 -96L217 -80Z" />
<glyph unicode="&#xba;" glyph-name="ordmasculine" horiz-adv-x="446" d="M223 229Q133 229 81 286T28 456V471Q28 527 42 570T83 642T144 686T223 701Q313 701 366 644T419 475V459Q419 403 405 360T364 288T302 244T223 229ZM224 271Q289 271 327 316T365 453V477Q365
526 355 560T325 617T280 649T222 659Q158 659 120 613T81 476V453Q81 357 121 314T224 271Z" />
<glyph unicode="&#xbb;" glyph-name="guillemotright" horiz-adv-x="417" d="M233 252L128 445H189L293 263V242L189 60H128L233 252Z" />
<glyph unicode="&#xbc;" glyph-name="onequarter" horiz-adv-x="707" d="M114 646L32 626V657L136 697H161V290H114V646ZM556 713H603L123 -40H76L556 713ZM561 112H376V144L567 403H607V148H674V112H607V0H561V112ZM562 148V333H560L424 150V148H562Z" />
<glyph unicode="&#xbd;" glyph-name="onehalf" horiz-adv-x="745" d="M545 713H592L112 -40H65L545 713ZM113 646L31 626V657L135 697H160V290H113V646ZM454 32L554 137Q596 179 620 214T644 290Q644 372 559 372Q532 372 507 365T464 349V385Q484 396 509 403T568
410Q628 410 661 380T694 294Q694 245 666 205T589 117L510 39V38H702V0H454V32Z" />
<glyph unicode="&#xbe;" glyph-name="threequarters" horiz-adv-x="758" d="M147 283Q110 283 84 290T39 307V344Q59 335 83 329T136 322Q186 322 212 343T238 405Q238 446 213 464T145 483H105V520H141Q179 520 202 538T226 593Q226 631 203 646T140 661Q114
661 93 657T53 644V680Q73 689 97 694T151 700Q208 700 241 675T274 601Q274 563 255 540T203 506V505Q242 497 265 473T288 403Q288 346 251 315T147 283ZM613 712H660L180 -41H133L613 712ZM610 112H425V144L616 403H656V148H723V112H656V0H610V112ZM611 148V333H609L473
150V148H611Z" />
<glyph unicode="&#xbf;" glyph-name="questiondown" horiz-adv-x="381" d="M210 -129Q129 -129 80 -90T31 33Q31 62 36 84T54 127T84 165T127 206Q146 223 161 237T186 265T203 296T209 333V394H260V330Q260 303 253 283T233 245T202 211T160 173Q123 141 106
112T89 34Q89 -27 122 -55T222 -83Q263 -83 294 -76T358 -53V-97Q327 -113 291 -121T210 -129ZM204 573H264V501H204V573Z" />
<glyph unicode="&#xc0;" glyph-name="Agrave" horiz-adv-x="553" d="M503 693H559L801 0H744L668 219H389L313 0H260L503 693ZM528 619Q522 600 516 583Q511 569 506 555T498 532L405 266H651L560 531Q557 539 552 554T542 583Q536 600 530 619H528ZM175 855H234L297
734H250L175 855Z" />
<glyph unicode="&#xc1;" glyph-name="Aacute" horiz-adv-x="553" d="M503 693H559L801 0H744L668 219H389L313 0H260L503 693ZM528 619Q522 600 516 583Q511 569 506 555T498 532L405 266H651L560 531Q557 539 552 554T542 583Q536 600 530 619H528ZM307 855H366L289
734H241L307 855Z" />
<glyph unicode="&#xc2;" glyph-name="Acircumflex" horiz-adv-x="553" d="M503 693H559L801 0H744L668 219H389L313 0H260L503 693ZM528 619Q522 600 516 583Q511 569 506 555T498 532L405 266H651L560 531Q557 539 552 554T542 583Q536 600 530 619H528ZM245
842H292L382 733H338L268 803L199 733H155L245 842Z" />
<glyph unicode="&#xc3;" glyph-name="Atilde" horiz-adv-x="553" d="M503 693H559L801 0H744L668 219H389L313 0H260L503 693ZM528 619Q522 600 516 583Q511 569 506 555T498 532L405 266H651L560 531Q557 539 552 554T542 583Q536 600 530 619H528ZM138 742Q143
784 165 803T215 823Q231 823 245 818T272 805T297 793T321 787Q336 787 346 796T360 824H397Q392 782 371 763T321 744Q305 744 291 749T264 761T239 772T215 778Q183 778 176 742H138V742Z" />
<glyph unicode="&#xc4;" glyph-name="Adieresis" horiz-adv-x="553" d="M503 693H559L801 0H744L668 219H389L313 0H260L503 693ZM528 619Q522 600 516 583Q511 569 506 555T498 532L405 266H651L560 531Q557 539 552 554T542 583Q536 600 530 619H528ZM311 802H365V741H311V802ZM171
802H225V741H171V802Z" />
<glyph unicode="&#xc5;" glyph-name="Aring" horiz-adv-x="553" d="M503 693H559L801 0H744L668 219H389L313 0H260L503 693ZM528 619Q522 600 516 583Q511 569 506 555T498 532L405 266H651L560 531Q557 539 552 554T542 583Q536 600 530 619H528ZM268 721Q230
721 207 745T183 805Q183 839 206 863T268 888Q304 888 328 864T352 805Q352 770 328 746T268 721ZM268 753Q291 753 304 767T317 805Q317 827 304 841T268 856Q245 856 232 842T218 805Q218 782 231 768T268 753Z" />
<glyph unicode="&#xc6;" glyph-name="AE" horiz-adv-x="808" d="M369 693H776V646H456V381H702V333H456V47H778V0H401V207H160L47 0H-7L369 693ZM185 255H401V649H398L185 255Z" />
<glyph unicode="&#xc7;" glyph-name="Ccedilla" horiz-adv-x="525" d="M233 -176Q289 -172 313 -160T338 -125Q338 -84 254 -84V-6Q142 9 84 93T25 335V361Q25 451 46 515T105 621T197 682T316 702Q372 702 409 693T476 666V619Q441 635 404 645T314 656Q261 656
219 640T146 588T100 499T84 369V335Q84 189 137 113T311 37Q372 37 411 51T482 81V33Q453 16 411 4T305 -9H292V-51Q334 -53 359 -69T385 -121Q385 -163 351 -185T233 -212V-176Z" />
<glyph unicode="&#xc8;" glyph-name="Egrave" horiz-adv-x="493" d="M167 855H226L289 734H242L167 855ZM324 693H708V646H378V381H633V333H378V47H710V0H324V693Z" />
<glyph unicode="&#xc9;" glyph-name="Eacute" horiz-adv-x="493" d="M291 855H350L273 734H225L291 855ZM324 693H708V646H378V381H633V333H378V47H710V0H324V693Z" />
<glyph unicode="&#xca;" glyph-name="Ecircumflex" horiz-adv-x="493" d="M235 842H282L372 733H328L258 803L189 733H145L235 842ZM324 693H708V646H378V381H633V333H378V47H710V0H324V693Z" />
<glyph unicode="&#xcb;" glyph-name="Edieresis" horiz-adv-x="493" d="M324 693H708V646H378V381H633V333H378V47H710V0H324V693ZM302 802H356V741H302V802ZM162 802H216V741H162V802Z" />
<glyph unicode="&#xcc;" glyph-name="Igrave" horiz-adv-x="233" d="M104 693H158V0H104V693ZM272 855H331L394 734H347L272 855Z" />
<glyph unicode="&#xcd;" glyph-name="Iacute" horiz-adv-x="233" d="M104 693H158V0H104V693ZM405 855H464L387 734H339L405 855Z" />
<glyph unicode="&#xce;" glyph-name="Icircumflex" horiz-adv-x="233" d="M84 842H130L219 733H175L106 803L38 733H-6L84 842ZM103 693H157V0H103V693Z" />
<glyph unicode="&#xcf;" glyph-name="Idieresis" horiz-adv-x="233" d="M150 802H203V741H150V802ZM29 802H82V741H29V802ZM104 693H158V0H104V693Z" />
<glyph unicode="&#xd0;" glyph-name="Eth" horiz-adv-x="593" d="M5 373H68V693H248Q403 693 482 613T561 362V342Q561 173 485 87T249 0H68V327H5V373ZM250 48Q380 48 441 116T503 334V362Q503 439 487 493T437 580T356 629T243 645H123V373H313V327H123V48H250Z" />
<glyph unicode="&#xd1;" glyph-name="Ntilde" horiz-adv-x="607" d="M182 742Q187 784 209 803T259 823Q275 823 289 818T316 805T341 793T365 787Q380 787 390 796T404 824H441Q436 782 415 763T365 744Q349 744 335 749T308 761T283 772T259 778Q227 778 220
742H182V742ZM321 693H388L657 233Q665 219 678 195T706 147Q722 119 740 88H741V693H792V0H733L452 481Q444 495 431 518T405 564Q390 590 374 619H372V0H321V693Z" />
<glyph unicode="&#xd2;" glyph-name="Ograve" horiz-adv-x="622" d="M210 855H269L332 734H285L210 855ZM560 -9Q429 -9 355 78T280 337V357Q280 524 354 613T561 702Q692 702 767 614T842 357V335Q842 253 823 189T767 81T679 14T560 -9ZM561 36Q670 36 726 114T783
327V357Q783 499 728 577T559 657Q506 657 465 637T395 580T353 488T338 367V337Q338 196 393 116T561 36Z" />
<glyph unicode="&#xd3;" glyph-name="Oacute" horiz-adv-x="622" d="M341 855H400L323 734H275L341 855ZM560 -9Q429 -9 355 78T280 337V357Q280 524 354 613T561 702Q692 702 767 614T842 357V335Q842 253 823 189T767 81T679 14T560 -9ZM561 36Q670 36 726 114T783
327V357Q783 499 728 577T559 657Q506 657 465 637T395 580T353 488T338 367V337Q338 196 393 116T561 36Z" />
<glyph unicode="&#xd4;" glyph-name="Ocircumflex" horiz-adv-x="622" d="M279 842H326L416 733H372L302 803L233 733H189L279 842ZM560 -9Q429 -9 355 78T280 337V357Q280 524 354 613T561 702Q692 702 767 614T842 357V335Q842 253 823 189T767 81T679 14T560
-9ZM561 36Q670 36 726 114T783 327V357Q783 499 728 577T559 657Q506 657 465 637T395 580T353 488T338 367V337Q338 196 393 116T561 36Z" />
<glyph unicode="&#xd5;" glyph-name="Otilde" horiz-adv-x="622" d="M174 742Q179 784 201 803T251 823Q267 823 281 818T308 805T333 793T357 787Q372 787 382 796T396 824H433Q428 782 407 763T357 744Q341 744 327 749T300 761T275 772T251 778Q219 778 212
742H174V742ZM561 -9Q430 -9 356 78T281 337V357Q281 524 355 613T562 702Q693 702 768 614T843 357V335Q843 253 824 189T768 81T680 14T561 -9ZM562 36Q671 36 727 114T784 327V357Q784 499 729 577T560 657Q507 657 466 637T396 580T354 488T339 367V337Q339
196 394 116T562 36Z" />
<glyph unicode="&#xd6;" glyph-name="Odieresis" horiz-adv-x="622" d="M345 802H399V741H345V802ZM205 802H259V741H205V802ZM560 -9Q429 -9 355 78T280 337V357Q280 524 354 613T561 702Q692 702 767 614T842 357V335Q842 253 823 189T767 81T679 14T560 -9ZM561
36Q670 36 726 114T783 327V357Q783 499 728 577T559 657Q506 657 465 637T395 580T353 488T338 367V337Q338 196 393 116T561 36Z" />
<glyph unicode="&#xd7;" glyph-name="multiply" horiz-adv-x="508" d="M78 186L221 330L79 474L111 506L254 362L395 506L428 474L285 330L428 186L395 153L254 297L111 153L78 186Z" />
<glyph unicode="&#xd8;" glyph-name="Oslash" horiz-adv-x="622" d="M310 -9Q251 -9 204 9T121 62L75 0H23L94 95Q30 185 30 337V357Q30 524 104 613T312 702Q423 702 495 636L537 693H590L523 603Q556 559 574 497T592 357V335Q592 253 573 189T518 81T429 14T310
-9ZM311 36Q420 36 476 114T533 327V361Q533 483 490 558L152 103Q179 71 218 54T311 36ZM88 333Q88 273 97 225T127 140L464 594Q407 656 309 657Q256 657 215 637T145 580T103 488T88 367V333Z" />
<glyph unicode="&#xd9;" glyph-name="Ugrave" horiz-adv-x="596" d="M200 855H259L322 734H275L200 855ZM554 -10Q440 -10 380 47T319 227V693H374V230Q374 122 420 79T556 35Q600 35 633 45T689 78T723 138T734 231V693H786V228Q786 104 727 47T554 -10Z" />
<glyph unicode="&#xda;" glyph-name="Uacute" horiz-adv-x="596" d="M330 855H389L312 734H264L330 855ZM554 -10Q440 -10 380 47T319 227V693H374V230Q374 122 420 79T556 35Q600 35 633 45T689 78T723 138T734 231V693H786V228Q786 104 727 47T554 -10Z" />
<glyph unicode="&#xdb;" glyph-name="Ucircumflex" horiz-adv-x="596" d="M269 842H316L406 733H362L292 803L223 733H179L269 842ZM554 -10Q440 -10 380 47T319 227V693H374V230Q374 122 420 79T556 35Q600 35 633 45T689 78T723 138T734 231V693H786V228Q786
104 727 47T554 -10Z" />
<glyph unicode="&#xdc;" glyph-name="Udieresis" horiz-adv-x="596" d="M554 -10Q440 -10 380 47T319 227V693H374V230Q374 122 420 79T556 35Q600 35 633 45T689 78T723 138T734 231V693H786V228Q786 104 727 47T554 -10ZM335 802H389V741H335V802ZM195 802H249V741H195V802Z"
/>
<glyph unicode="&#xdd;" glyph-name="Yacute" horiz-adv-x="509" d="M228 282L8 693H67L204 436Q209 425 218 409T236 376Q246 357 257 336H259Q270 357 280 376Q288 393 297 409T312 437L447 693H502L283 282V0H228V282ZM287 855H346L269 734H221L287 855Z" />
<glyph unicode="&#xde;" glyph-name="Thorn" horiz-adv-x="509" d="M77 693H132V564H254Q314 564 357 550T427 511T466 450T479 370Q479 272 421 222T265 171H132V0H77V693ZM254 217Q334 217 378 252T423 365Q423 448 379 482T249 517H132V217H254Z" />
<glyph unicode="&#xdf;" glyph-name="germandbls" horiz-adv-x="513" d="M331 -9Q289 -9 262 -2T211 17V62Q237 51 262 44T326 37Q381 37 406 62T431 123Q431 158 413 179T359 221L321 244Q279 269 255 295T231 367Q231 390 241 411T267 451T301 488T334 525T360
563T371 606Q371 651 342 673T258 696Q195 696 158 659T120 546V0H66V550Q66 599 81 635T123 694T185 729T259 741Q338 741 380 708T423 609Q423 568 401 536T353 477T304 424T282 371Q282 342 300 324T349 287L390 263Q411 250 428 237T458 207T477 172T484 127Q484
66 445 29T331 -9Z" />
<glyph unicode="&#xe0;" glyph-name="agrave" horiz-adv-x="436" d="M192 -8Q123 -8 82 28T40 131Q40 197 78 232T188 276L328 294V360Q328 423 299 446T205 470Q169 470 139 464T83 450V489Q144 515 224 515Q301 515 341 482T381 372V0H337L332 41H329Q312 22
278 7T192 -8ZM205 33Q246 33 278 46T328 76V253L202 238Q147 231 121 207T95 133Q95 85 124 59T205 33ZM358 726H417L496 586H449L358 726Z" />
<glyph unicode="&#xe1;" glyph-name="aacute" horiz-adv-x="436" d="M192 -8Q123 -8 82 28T40 131Q40 197 78 232T188 276L328 294V360Q328 423 299 446T205 470Q169 470 139 464T83 450V489Q144 515 224 515Q301 515 341 482T381 372V0H337L332 41H329Q312 22
278 7T192 -8ZM205 33Q246 33 278 46T328 76V253L202 238Q147 231 121 207T95 133Q95 85 124 59T205 33ZM517 726H577L485 586H438L517 726Z" />
<glyph unicode="&#xe2;" glyph-name="acircumflex" horiz-adv-x="436" d="M192 -8Q123 -8 82 28T40 131Q40 197 78 232T188 276L328 294V360Q328 423 299 446T205 470Q169 470 139 464T83 450V489Q144 515 224 515Q301 515 341 482T381 372V0H337L332 41H329Q312
22 278 7T192 -8ZM205 33Q246 33 278 46T328 76V253L202 238Q147 231 121 207T95 133Q95 85 124 59T205 33ZM445 714H492L584 586H541L468 673L397 586H352L445 714Z" />
<glyph unicode="&#xe3;" glyph-name="atilde" horiz-adv-x="436" d="M192 -8Q123 -8 82 28T40 131Q40 197 78 232T188 276L328 294V360Q328 423 299 446T205 470Q169 470 139 464T83 450V489Q144 515 224 515Q301 515 341 482T381 372V0H337L332 41H329Q312 22
278 7T192 -8ZM205 33Q246 33 278 46T328 76V253L202 238Q147 231 121 207T95 133Q95 85 124 59T205 33ZM338 606Q343 649 365 669T415 690Q431 690 445 684T472 671T497 657T521 651Q536 651 546 661T560 691H597Q592 648 570 628T521 607Q504 607 491 613T464
626T439 640T415 646Q384 646 376 606H338V606Z" />
<glyph unicode="&#xe4;" glyph-name="adieresis" horiz-adv-x="436" d="M192 -8Q123 -8 82 28T40 131Q40 197 78 232T188 276L328 294V360Q328 423 299 446T205 470Q169 470 139 464T83 450V489Q144 515 224 515Q301 515 341 482T381 372V0H337L332 41H329Q312
22 278 7T192 -8ZM205 33Q246 33 278 46T328 76V253L202 238Q147 231 121 207T95 133Q95 85 124 59T205 33ZM514 677H568V615H514V677ZM375 677H428V615H375V677Z" />
<glyph unicode="&#xe5;" glyph-name="aring" horiz-adv-x="436" d="M192 -8Q123 -8 82 28T40 131Q40 197 78 232T188 276L328 294V360Q328 423 299 446T205 470Q169 470 139 464T83 450V489Q144 515 224 515Q301 515 341 482T381 372V0H337L332 41H329Q312 22
278 7T192 -8ZM205 33Q246 33 278 46T328 76V253L202 238Q147 231 121 207T95 133Q95 85 124 59T205 33ZM463 579Q426 579 403 603T379 663Q379 697 402 721T463 746Q500 746 523 722T547 663Q547 628 524 604T463 579ZM463 610Q486 610 499 625T512 663Q512 685
499 699T463 714Q440 714 427 700T413 663Q413 640 426 625T463 610Z" />
<glyph unicode="&#xe6;" glyph-name="ae" horiz-adv-x="723" d="M174 -8Q102 -8 60 28T18 131Q18 196 56 231T168 276L306 291V360Q306 423 277 446T181 470Q146 470 115 464T58 450V489Q89 502 124 508T201 515Q263 515 299 493T348 421Q375 469 418 492T514
515Q612 515 657 456T703 280V250H361V247Q361 138 405 88T540 37Q588 37 623 47T688 73V32Q666 18 627 5T532 -8Q405 -8 349 75Q316 37 275 15T174 -8ZM331 106Q306 162 306 246L308 252L181 238Q124 232 99 207T73 133Q73 84 102 59T185 33Q231 33 266 52T331
106ZM512 472Q482 472 456 462T410 430T377 374T361 292H647Q647 382 614 427T512 472Z" />
<glyph unicode="&#xe7;" glyph-name="ccedilla" horiz-adv-x="407" d="M163 -176Q219 -172 244 -160T269 -125Q269 -84 185 -84V-3Q104 13 63 75T22 244V262Q22 329 39 377T85 455T155 500T243 515Q289 515 319 507T375 483V438Q345 453 316 461T240 470Q167 470
122 421T76 269V245Q76 142 117 90T246 37Q297 37 329 50T381 74V30Q358 15 326 4T240 -8H223V-51Q264 -53 290 -69T316 -121Q316 -163 281 -185T163 -212V-176Z" />
<glyph unicode="&#xe8;" glyph-name="egrave" horiz-adv-x="444" d="M499 -8Q384 -8 328 57T271 246V261Q271 327 287 374T332 453T398 500T480 515Q580 515 625 456T671 279V247H326Q326 138 370 88T507 37Q555 37 590 47T655 73V32Q634 18 594 5T499 -8ZM478
472Q448 472 422 462T375 430T342 374T326 290H615Q615 382 582 427T478 472ZM370 726H429L508 586H461L370 726Z" />
<glyph unicode="&#xe9;" glyph-name="eacute" horiz-adv-x="444" d="M525 726H585L493 586H446L525 726ZM499 -8Q384 -8 328 57T271 246V261Q271 327 287 374T332 453T398 500T480 515Q580 515 625 456T671 279V247H326Q326 138 370 88T507 37Q555 37 590 47T655
73V32Q634 18 594 5T499 -8ZM478 472Q448 472 422 462T375 430T342 374T326 290H615Q615 382 582 427T478 472Z" />
<glyph unicode="&#xea;" glyph-name="ecircumflex" horiz-adv-x="444" d="M455 714H502L594 586H551L478 673L407 586H362L455 714ZM499 -8Q384 -8 328 57T271 246V261Q271 327 287 374T332 453T398 500T480 515Q580 515 625 456T671 279V247H326Q326 138 370
88T507 37Q555 37 590 47T655 73V32Q634 18 594 5T499 -8ZM478 472Q448 472 422 462T375 430T342 374T326 290H615Q615 382 582 427T478 472Z" />
<glyph unicode="&#xeb;" glyph-name="edieresis" horiz-adv-x="444" d="M524 677H578V615H524V677ZM385 677H438V615H385V677ZM499 -8Q384 -8 328 57T271 246V261Q271 327 287 374T332 453T398 500T480 515Q580 515 625 456T671 279V247H326Q326 138 370 88T507
37Q555 37 590 47T655 73V32Q634 18 594 5T499 -8ZM478 472Q448 472 422 462T375 430T342 374T326 290H615Q615 382 582 427T478 472Z" />
<glyph unicode="&#xec;" glyph-name="igrave" horiz-adv-x="205" d="M91 507H143V0H91V507ZM-14 726H45L124 586H77L-14 726Z" />
<glyph unicode="&#xed;" glyph-name="iacute" horiz-adv-x="205" d="M146 726H206L114 586H67L146 726ZM91 507H143V0H91V507Z" />
<glyph unicode="&#xee;" glyph-name="icircumflex" horiz-adv-x="205" d="M77 507H130V0H77V507ZM80 714H127L208 586H163L103 672L43 586H-1L80 714Z" />
<glyph unicode="&#xef;" glyph-name="idieresis" horiz-adv-x="205" d="M135 677H188V615H135V677ZM17 677H70V615H17V677ZM91 507H143V0H91V507Z" />
<glyph unicode="&#xf0;" glyph-name="eth" horiz-adv-x="492" d="M233 653Q208 674 181 695T123 737H194Q237 710 281 674L370 713L384 679L310 647Q341 616 368 579T415 497T447 399T459 285V257Q459 125 401 59T245 -8Q147 -8 89 55T30 245V261Q30 385 88 450T245
515Q285 515 311 506T358 484H365Q346 524 320 559T262 626L131 569L117 602L233 653ZM405 280Q405 322 400 358T386 428Q362 446 330 458T249 471Q172 471 129 420T86 266V243Q86 187 98 148T131 83T182 47T246 36Q319 36 362 88T405 253V280Z" />
<glyph unicode="&#xf1;" glyph-name="ntilde" horiz-adv-x="494" d="M64 507H116V462H119Q157 486 202 500T295 515Q364 515 399 484T435 384V0H382V375Q382 426 358 448T273 470Q233 470 193 458T118 425V0H64V507ZM108 606Q113 649 135 669T185 690Q201 690
215 684T242 671T267 657T291 651Q306 651 316 661T330 691H367Q362 648 340 628T291 607Q274 607 261 613T234 626T209 640T185 646Q154 646 146 606H108V606Z" />
<glyph unicode="&#xf2;" glyph-name="ograve" horiz-adv-x="490" d="M245 -8Q146 -8 88 55T30 243V261Q30 323 46 370T90 450T158 498T245 515Q294 515 334 499T402 452T445 373T461 264V247Q461 185 445 138T401 58T333 9T245 -8ZM246 35Q318 35 362 87T406 241V267Q406
322 394 360T361 424T309 460T244 472Q172 472 128 420T84 267V240Q84 186 96 147T129 84T181 47T246 35ZM127 726H186L265 586H218L127 726Z" />
<glyph unicode="&#xf3;" glyph-name="oacute" horiz-adv-x="490" d="M286 726H346L254 586H207L286 726ZM245 -8Q146 -8 88 55T30 243V261Q30 323 46 370T90 450T158 498T245 515Q294 515 334 499T402 452T445 373T461 264V247Q461 185 445 138T401 58T333 9T245
-8ZM246 35Q318 35 362 87T406 241V267Q406 322 394 360T361 424T309 460T244 472Q172 472 128 420T84 267V240Q84 186 96 147T129 84T181 47T246 35Z" />
<glyph unicode="&#xf4;" glyph-name="ocircumflex" horiz-adv-x="490" d="M213 714H260L352 586H309L236 673L165 586H120L213 714ZM245 -8Q146 -8 88 55T30 243V261Q30 323 46 370T90 450T158 498T245 515Q294 515 334 499T402 452T445 373T461 264V247Q461 185
445 138T401 58T333 9T245 -8ZM246 35Q318 35 362 87T406 241V267Q406 322 394 360T361 424T309 460T244 472Q172 472 128 420T84 267V240Q84 186 96 147T129 84T181 47T246 35Z" />
<glyph unicode="&#xf5;" glyph-name="otilde" horiz-adv-x="490" d="M245 -8Q146 -8 88 55T30 243V261Q30 323 46 370T90 450T158 498T245 515Q294 515 334 499T402 452T445 373T461 264V247Q461 185 445 138T401 58T333 9T245 -8ZM246 35Q318 35 362 87T406 241V267Q406
322 394 360T361 424T309 460T244 472Q172 472 128 420T84 267V240Q84 186 96 147T129 84T181 47T246 35ZM106 606Q111 649 133 669T183 690Q199 690 213 684T240 671T265 657T289 651Q304 651 314 661T328 691H365Q360 648 338 628T289 607Q272 607 259 613T232
626T207 640T183 646Q152 646 144 606H106V606Z" />
<glyph unicode="&#xf6;" glyph-name="odieresis" horiz-adv-x="490" d="M282 677H336V615H282V677ZM143 677H196V615H143V677ZM245 -8Q146 -8 88 55T30 243V261Q30 323 46 370T90 450T158 498T245 515Q294 515 334 499T402 452T445 373T461 264V247Q461 185 445
138T401 58T333 9T245 -8ZM246 35Q318 35 362 87T406 241V267Q406 322 394 360T361 424T309 460T244 472Q172 472 128 420T84 267V240Q84 186 96 147T129 84T181 47T246 35Z" />
<glyph unicode="&#xf7;" glyph-name="divide" horiz-adv-x="474" d="M47 364H427V317H47V364ZM207 228H266V155H207V228ZM207 525H266V452H207V525Z" />
<glyph unicode="&#xf8;" glyph-name="oslash" horiz-adv-x="490" d="M245 -8Q153 -8 98 45L62 0H13L73 75Q30 138 30 243V261Q30 323 46 370T90 450T158 498T245 515Q331 515 386 466L418 506H467L412 438Q460 373 460 264V247Q460 185 444 138T400 58T332 9T245
-8ZM246 35Q318 35 362 87T406 241V268Q406 350 380 397L128 83Q149 58 179 47T246 35ZM84 239Q84 161 106 116L356 429Q335 452 307 462T244 472Q171 472 128 420T84 267V239Z" />
<glyph unicode="&#xf9;" glyph-name="ugrave" horiz-adv-x="487" d="M206 -8Q135 -8 98 25T60 128V507H113V134Q113 82 138 60T221 37Q261 37 300 50T373 84V507H427V0H380L375 45H372Q334 22 292 7T206 -8ZM131 726H190L269 586H222L131 726Z" />
<glyph unicode="&#xfa;" glyph-name="uacute" horiz-adv-x="487" d="M285 726H345L253 586H206L285 726ZM206 -8Q135 -8 98 25T60 128V507H113V134Q113 82 138 60T221 37Q261 37 300 50T373 84V507H427V0H380L375 45H372Q334 22 292 7T206 -8Z" />
<glyph unicode="&#xfb;" glyph-name="ucircumflex" horiz-adv-x="487" d="M213 714H260L352 586H309L236 673L165 586H120L213 714ZM206 -8Q135 -8 98 25T60 128V507H113V134Q113 82 138 60T221 37Q261 37 300 50T373 84V507H427V0H380L375 45H372Q334 22 292 7T206 -8Z" />
<glyph unicode="&#xfc;" glyph-name="udieresis" horiz-adv-x="487" d="M281 677H335V615H281V677ZM142 677H195V615H142V677ZM206 -8Q135 -8 98 25T60 128V507H113V134Q113 82 138 60T221 37Q261 37 300 50T373 84V507H427V0H380L375 45H372Q334 22 292 7T206 -8Z" />
<glyph unicode="&#xfd;" glyph-name="yacute" horiz-adv-x="443" d="M91 -197Q74 -197 59 -194T33 -186V-148Q55 -153 82 -153Q120 -153 141 -133T178 -70L208 9L18 507H74L198 175Q200 169 205 154T216 122Q223 103 232 81H234Q242 104 249 123Q255 140 260 155T267
175L381 507H434L228 -77Q207 -137 178 -167T91 -197ZM530 726H590L498 586H451L530 726Z" />
<glyph unicode="&#xfe;" glyph-name="thorn" horiz-adv-x="501" d="M65 737H118V467H121Q147 485 184 500T273 515Q314 515 349 503T411 462T453 386T468 266V250Q468 116 410 54T250 -8Q205 -8 173 2T118 26V-194H65V737ZM245 36Q324 36 368 84T413 243V264Q413
323 403 362T373 425T325 459T261 469Q213 469 177 455T118 426V72Q138 58 170 47T245 36Z" />
<glyph unicode="&#xff;" glyph-name="ydieresis" horiz-adv-x="443" d="M91 -197Q74 -197 59 -194T33 -186V-148Q55 -153 82 -153Q120 -153 141 -133T178 -70L208 9L18 507H74L198 175Q200 169 205 154T216 122Q223 103 232 81H234Q242 104 249 123Q255 140 260
155T267 175L381 507H434L228 -77Q207 -137 178 -167T91 -197ZM526 677H580V615H526V677ZM387 677H440V615H387V677Z" />
<glyph unicode="&#x100;" glyph-name="Amacron" horiz-adv-x="553" d="M503 693H559L801 0H744L668 219H389L313 0H260L503 693ZM528 619Q522 600 516 583Q511 569 506 555T498 532L405 266H651L560 531Q557 539 552 554T542 583Q536 600 530 619H528ZM158 791H376V746H158V791Z"
/>
<glyph unicode="&#x101;" glyph-name="amacron" horiz-adv-x="436" d="M192 -8Q123 -8 82 28T40 131Q40 197 78 232T188 276L328 294V360Q328 423 299 446T205 470Q169 470 139 464T83 450V489Q144 515 224 515Q301 515 341 482T381 372V0H337L332 41H329Q312
22 278 7T192 -8ZM205 33Q246 33 278 46T328 76V253L202 238Q147 231 121 207T95 133Q95 85 124 59T205 33ZM355 673H573V628H355V673Z" />
<glyph unicode="&#x102;" glyph-name="Abreve" horiz-adv-x="553" d="M503 693H559L801 0H744L668 219H389L313 0H260L503 693ZM528 619Q522 600 516 583Q511 569 506 555T498 532L405 266H651L560 531Q557 539 552 554T542 583Q536 600 530 619H528ZM267 732Q217
732 186 760T151 837H191Q203 773 267 773Q330 773 342 837H383Q378 789 347 761T267 732Z" />
<glyph unicode="&#x103;" glyph-name="abreve" horiz-adv-x="436" d="M192 -8Q123 -8 82 28T40 131Q40 197 78 232T188 276L328 294V360Q328 423 299 446T205 470Q169 470 139 464T83 450V489Q144 515 224 515Q301 515 341 482T381 372V0H337L332 41H329Q312 22
278 7T192 -8ZM205 33Q246 33 278 46T328 76V253L202 238Q147 231 121 207T95 133Q95 85 124 59T205 33ZM468 585Q417 585 386 616T351 698H391Q396 664 415 645T468 626Q501 626 520 645T544 698H585Q582 647 550 616T468 585Z" />
<glyph unicode="&#x104;" glyph-name="Aogonek" horiz-adv-x="553" d="M511 -198Q464 -198 441 -177T418 -120Q418 -102 425 -85T442 -51T465 -22T489 0L413 219H135L59 0H6L249 693H305L547 1Q514 -25 491 -54T467 -115Q467 -159 522 -159Q545 -159 556 -155V-189Q549
-192 538 -195T511 -198ZM273 619Q266 599 260 581Q255 566 250 553T244 534L151 266H396L304 534Q302 538 298 552T288 581Q282 599 275 619H273Z" />
<glyph unicode="&#x105;" glyph-name="aogonek" horiz-adv-x="436" d="M341 -198Q295 -198 272 -177T248 -120Q248 -101 255 -83T275 -49T301 -20T329 3L324 41H321Q304 22 270 7T184 -8Q115 -8 74 28T32 131Q32 197 70 232T180 276L320 294V360Q320 423 291 446T197
470Q161 470 131 464T75 450V489Q136 515 216 515Q293 515 333 482T373 372V0Q341 -26 319 -55T297 -115Q297 -159 351 -159Q375 -159 386 -155V-189Q379 -192 367 -195T341 -198ZM197 33Q238 33 270 46T320 76V253L194 238Q139 231 113 207T87 133Q87 85 116 59T197
33Z" />
<glyph unicode="&#x106;" glyph-name="Cacute" horiz-adv-x="525" d="M573 -9Q435 -9 363 76T290 335V361Q290 451 311 515T372 621T465 682T585 702Q642 702 680 693T748 666V619Q713 635 675 645T582 656Q528 656 485 640T412 588T365 499T348 369V335Q348 189
403 113T579 37Q643 37 683 51T754 81V33Q725 16 682 4T573 -9ZM342 855H401L324 734H276L342 855Z" />
<glyph unicode="&#x107;" glyph-name="cacute" horiz-adv-x="407" d="M280 726H340L248 586H201L280 726ZM499 -8Q393 -8 337 56T281 244V262Q281 329 298 377T344 455T414 500T502 515Q548 515 578 507T634 483V438Q604 453 575 461T499 470Q426 470 381 422T336
269V245Q336 142 377 90T505 37Q556 37 588 50T640 74V30Q617 15 585 4T499 -8Z" />
<glyph unicode="&#x108;" glyph-name="Ccircumflex" horiz-adv-x="525" d="M279 842H326L416 733H372L302 803L233 733H189L279 842ZM573 -9Q435 -9 363 76T290 335V361Q290 451 311 515T372 621T465 682T585 702Q642 702 680 693T748 666V619Q713 635 675 645T582
656Q528 656 485 640T412 588T365 499T348 369V335Q348 189 403 113T579 37Q643 37 683 51T754 81V33Q725 16 682 4T573 -9Z" />
<glyph unicode="&#x109;" glyph-name="ccircumflex" horiz-adv-x="407" d="M206 714H253L345 586H302L229 673L158 586H113L206 714ZM499 -8Q393 -8 337 56T281 244V262Q281 329 298 377T344 455T414 500T502 515Q548 515 578 507T634 483V438Q604 453 575 461T499
470Q426 470 381 422T336 269V245Q336 142 377 90T505 37Q556 37 588 50T640 74V30Q617 15 585 4T499 -8Z" />
<glyph unicode="&#x10a;" glyph-name="Cdotaccent" horiz-adv-x="525" d="M573 -9Q435 -9 363 76T290 335V361Q290 451 311 515T372 621T465 682T585 702Q642 702 680 693T748 666V619Q713 635 675 645T582 656Q528 656 485 640T412 588T365 499T348 369V335Q348
189 403 113T579 37Q643 37 683 51T754 81V33Q725 16 682 4T573 -9ZM276 803H331V742H276V803Z" />
<glyph unicode="&#x10b;" glyph-name="cdotaccent" horiz-adv-x="407" d="M499 -8Q393 -8 337 56T281 244V262Q281 329 298 377T344 455T414 500T502 515Q548 515 578 507T634 483V438Q604 453 575 461T499 470Q426 470 381 422T336 269V245Q336 142 377 90T505
37Q556 37 588 50T640 74V30Q617 15 585 4T499 -8ZM203 677H257V615H203V677Z" />
<glyph unicode="&#x10c;" glyph-name="Ccaron" horiz-adv-x="525" d="M324 732H279L188 842H233L302 772L372 842H415L324 732ZM573 -9Q435 -9 363 76T290 335V361Q290 451 311 515T372 621T465 682T585 702Q642 702 680 693T748 666V619Q713 635 675 645T582
656Q528 656 485 640T412 588T365 499T348 369V335Q348 189 403 113T579 37Q643 37 683 51T754 81V33Q725 16 682 4T573 -9Z" />
<glyph unicode="&#x10d;" glyph-name="ccaron" horiz-adv-x="407" d="M251 585H204L111 713H156L228 626L299 713H344L251 585ZM499 -8Q393 -8 337 56T281 244V262Q281 329 298 377T344 455T414 500T502 515Q548 515 578 507T634 483V438Q604 453 575 461T499
470Q426 470 381 422T336 269V245Q336 142 377 90T505 37Q556 37 588 50T640 74V30Q617 15 585 4T499 -8Z" />
<glyph unicode="&#x10e;" glyph-name="Dcaron" horiz-adv-x="593" d="M293 732H248L157 842H202L271 772L341 842H384L293 732ZM321 693H501Q656 693 735 613T814 362V342Q814 173 738 87T502 0H321V693ZM503 48Q633 48 694 116T755 334V362Q755 439 739 493T690
580T609 629T496 645H376V48H503Z" />
<glyph unicode="&#x10f;" glyph-name="dcaron" horiz-adv-x="501" d="M477 591L485 737H538L516 591H477ZM239 -8Q200 -8 164 5T101 47T57 125T40 242V257Q40 324 55 373T99 453T167 500T256 515Q302 515 334 505T390 480V737H443V0H398L393 43H390Q364 20 328
6T239 -8ZM253 36Q301 36 334 50T390 84V434Q369 450 337 460T262 470Q184 470 140 423T95 264V244Q95 187 106 148T138 83T188 47T253 36Z" />
<glyph unicode="&#x110;" glyph-name="Dcroat" horiz-adv-x="593" d="M18 373H81V693H261Q416 693 495 613T574 362V342Q574 173 498 87T262 0H81V327H18V373ZM263 48Q393 48 454 116T516 334V362Q516 439 500 493T450 580T369 629T256 645H136V373H326V327H136V48H263Z" />
<glyph unicode="&#x111;" glyph-name="dcroat" horiz-adv-x="501" d="M239 636H496V597H239V636ZM238 -8Q199 -8 163 5T100 47T56 125T39 242V257Q39 324 54 373T98 453T166 500T255 515Q301 515 333 505T389 480V737H442V0H397L392 43H389Q363 20 327 6T238 -8ZM252
36Q300 36 333 50T389 84V434Q368 450 336 460T261 470Q183 470 139 423T94 264V244Q94 187 105 148T137 83T187 47T252 36Z" />
<glyph unicode="&#x112;" glyph-name="Emacron" horiz-adv-x="493" d="M324 693H708V646H378V381H633V333H378V47H710V0H324V693ZM148 791H366V746H148V791Z" />
<glyph unicode="&#x113;" glyph-name="emacron" horiz-adv-x="444" d="M499 -8Q384 -8 328 57T271 246V261Q271 327 287 374T332 453T398 500T480 515Q580 515 625 456T671 279V247H326Q326 138 370 88T507 37Q555 37 590 47T655 73V32Q634 18 594 5T499 -8ZM478
472Q448 472 422 462T375 430T342 374T326 290H615Q615 382 582 427T478 472ZM369 673H587V628H369V673Z" />
<glyph unicode="&#x114;" glyph-name="Ebreve" horiz-adv-x="493" d="M324 693H708V646H378V381H633V333H378V47H710V0H324V693ZM258 732Q208 732 177 760T142 837H182Q194 773 258 773Q321 773 333 837H374Q369 789 338 761T258 732Z" />
<glyph unicode="&#x115;" glyph-name="ebreve" horiz-adv-x="444" d="M499 -8Q384 -8 328 57T271 246V261Q271 327 287 374T332 453T398 500T480 515Q580 515 625 456T671 279V247H326Q326 138 370 88T507 37Q555 37 590 47T655 73V32Q634 18 594 5T499 -8ZM478
472Q448 472 422 462T375 430T342 374T326 290H615Q615 382 582 427T478 472ZM479 585Q428 585 397 616T362 698H402Q407 664 426 645T479 626Q512 626 531 645T555 698H596Q593 647 561 616T479 585Z" />
<glyph unicode="&#x116;" glyph-name="Edotaccent" horiz-adv-x="493" d="M233 803H288V742H233V803ZM324 693H708V646H378V381H633V333H378V47H710V0H324V693Z" />
<glyph unicode="&#x117;" glyph-name="edotaccent" horiz-adv-x="444" d="M499 -8Q384 -8 328 57T271 246V261Q271 327 287 374T332 453T398 500T480 515Q580 515 625 456T671 279V247H326Q326 138 370 88T507 37Q555 37 590 47T655 73V32Q634 18 594 5T499 -8ZM478
472Q448 472 422 462T375 430T342 374T326 290H615Q615 382 582 427T478 472ZM451 677H505V615H451V677Z" />
<glyph unicode="&#x118;" glyph-name="Eogonek" horiz-adv-x="493" d="M70 693H454V646H124V381H379V333H124V47H456V0H406Q375 -26 352 -55T329 -115Q329 -159 384 -159Q407 -159 418 -155V-189Q410 -192 399 -195T372 -198Q326 -198 303 -177T280 -120Q280 -101
287 -84T305 -51T330 -22T356 0H70V693Z" />
<glyph unicode="&#x119;" glyph-name="eogonek" horiz-adv-x="444" d="M367 291Q367 382 334 427T229 472Q200 472 174 462T127 430T93 374T77 290H367V291ZM302 -198Q256 -198 233 -177T209 -120Q209 -85 233 -56T286 -6Q278 -7 269 -7T250 -8Q136 -8 79 57T22
246V261Q22 327 38 374T83 453T149 500T231 515Q331 515 377 456T423 279V247H77V243Q78 136 122 87T258 37Q306 37 342 47T407 73V32Q389 21 372 13T334 -9Q303 -30 281 -57T258 -115Q258 -159 313 -159Q336 -159 347 -155V-189Q340 -192 328 -195T302 -198Z"
/>
<glyph unicode="&#x11a;" glyph-name="Ecaron" horiz-adv-x="493" d="M280 732H235L144 842H189L258 772L328 842H371L280 732ZM324 693H708V646H378V381H633V333H378V47H710V0H324V693Z" />
<glyph unicode="&#x11b;" glyph-name="ecaron" horiz-adv-x="444" d="M502 585H455L362 713H407L479 626L550 713H595L502 585ZM499 -8Q384 -8 328 57T271 246V261Q271 327 287 374T332 453T398 500T480 515Q580 515 625 456T671 279V247H326Q326 138 370 88T507
37Q555 37 590 47T655 73V32Q634 18 594 5T499 -8ZM478 472Q448 472 422 462T375 430T342 374T326 290H615Q615 382 582 427T478 472Z" />
<glyph unicode="&#x11c;" glyph-name="Gcircumflex" horiz-adv-x="578" d="M285 842H332L422 733H378L308 803L239 733H195L285 842ZM584 -9Q438 -9 362 75T285 333V355Q285 446 307 512T369 620T464 682T586 702Q649 702 687 691T753 666V618Q724 632 685 644T583
656Q520 656 475 635T401 576T358 483T344 363V334Q344 265 356 210T397 117T472 58T586 37Q626 37 661 43T722 59V279H575V326H777V26Q739 11 692 1T584 -9Z" />
<glyph unicode="&#x11d;" glyph-name="gcircumflex" horiz-adv-x="461" d="M460 714H507L599 586H556L483 673L412 586H367L460 714ZM225 -197Q170 -197 130 -187T65 -159T27 -117T14 -64Q14 -18 42 12T112 57V60Q91 66 76 84T60 129Q60 153 73 176T112 219Q83
238 66 269T49 345V356Q49 394 62 423T99 473T155 504T227 515Q244 515 260 514T291 507H452V466H354Q402 430 402 358V347Q402 308 389 279T352 229T296 199T226 189Q202 189 181 192T139 204Q128 193 120 178T111 146Q111 123 125 110T167 97H300Q333 97 361
90T410 68T441 27T453 -34Q453 -67 440 -96T400 -148T329 -184T225 -197ZM223 -152Q319 -152 359 -121T399 -41Q399 8 372 27T293 46H154Q119 33 94 8T69 -57Q69 -99 104 -125T223 -152ZM226 230Q283 230 316 259T349 345V359Q349 419 315 446T226 474Q169 474
136 445T103 360V346Q103 288 137 259T226 230Z" />
<glyph unicode="&#x11e;" glyph-name="Gbreve" horiz-adv-x="578" d="M308 732Q258 732 227 760T192 837H232Q244 773 308 773Q371 773 383 837H424Q419 789 388 761T308 732ZM584 -9Q438 -9 362 75T285 333V355Q285 446 307 512T369 620T464 682T586 702Q649
702 687 691T753 666V618Q724 632 685 644T583 656Q520 656 475 635T401 576T358 483T344 363V334Q344 265 356 210T397 117T472 58T586 37Q626 37 661 43T722 59V279H575V326H777V26Q739 11 692 1T584 -9Z" />
<glyph unicode="&#x11f;" glyph-name="gbreve" horiz-adv-x="461" d="M225 -197Q170 -197 130 -187T65 -159T27 -117T14 -64Q14 -18 42 12T112 57V60Q91 66 76 84T60 129Q60 153 73 176T112 219Q83 238 66 269T49 345V356Q49 394 62 423T99 473T155 504T227 515Q244
515 260 514T291 507H452V466H354Q402 430 402 358V347Q402 308 389 279T352 229T296 199T226 189Q202 189 181 192T139 204Q128 193 120 178T111 146Q111 123 125 110T167 97H300Q333 97 361 90T410 68T441 27T453 -34Q453 -67 440 -96T400 -148T329 -184T225
-197ZM223 -152Q319 -152 359 -121T399 -41Q399 8 372 27T293 46H154Q119 33 94 8T69 -57Q69 -99 104 -125T223 -152ZM226 230Q283 230 316 259T349 345V359Q349 419 315 446T226 474Q169 474 136 445T103 360V346Q103 288 137 259T226 230ZM227 585Q176 585 145
616T110 698H150Q155 664 174 645T227 626Q260 626 279 645T303 698H344Q341 647 309 616T227 585Z" />
<glyph unicode="&#x120;" glyph-name="Gdotaccent" horiz-adv-x="578" d="M282 803H337V742H282V803ZM584 -9Q438 -9 362 75T285 333V355Q285 446 307 512T369 620T464 682T586 702Q649 702 687 691T753 666V618Q724 632 685 644T583 656Q520 656 475 635T401
576T358 483T344 363V334Q344 265 356 210T397 117T472 58T586 37Q626 37 661 43T722 59V279H575V326H777V26Q739 11 692 1T584 -9Z" />
<glyph unicode="&#x121;" glyph-name="gdotaccent" horiz-adv-x="461" d="M225 -197Q170 -197 130 -187T65 -159T27 -117T14 -64Q14 -18 42 12T112 57V60Q91 66 76 84T60 129Q60 153 73 176T112 219Q83 238 66 269T49 345V356Q49 394 62 423T99 473T155 504T227
515Q244 515 260 514T291 507H452V466H354Q402 430 402 358V347Q402 308 389 279T352 229T296 199T226 189Q202 189 181 192T139 204Q128 193 120 178T111 146Q111 123 125 110T167 97H300Q333 97 361 90T410 68T441 27T453 -34Q453 -67 440 -96T400 -148T329 -184T225
-197ZM223 -152Q319 -152 359 -121T399 -41Q399 8 372 27T293 46H154Q119 33 94 8T69 -57Q69 -99 104 -125T223 -152ZM226 230Q283 230 316 259T349 345V359Q349 419 315 446T226 474Q169 474 136 445T103 360V346Q103 288 137 259T226 230ZM199 677H253V615H199V677Z"
/>
<glyph unicode="&#x122;" glyph-name="Gcommaaccent" horiz-adv-x="578" d="M283 -42H342L312 -173H270L283 -42ZM584 -9Q438 -9 362 75T285 333V355Q285 446 307 512T369 620T464 682T586 702Q649 702 687 691T753 666V618Q724 632 685 644T583 656Q520 656 475
635T401 576T358 483T344 363V334Q344 265 356 210T397 117T472 58T586 37Q626 37 661 43T722 59V279H575V326H777V26Q739 11 692 1T584 -9Z" />
<glyph unicode="&#x123;" glyph-name="gcommaaccent" horiz-adv-x="461" d="M254 592H196L226 723H268L254 592ZM225 -197Q170 -197 130 -187T65 -159T27 -117T14 -64Q14 -18 42 12T112 57V60Q91 66 76 84T60 129Q60 153 73 176T112 219Q83 238 66 269T49 345V356Q49
394 62 423T99 473T155 504T227 515Q244 515 260 514T291 507H452V466H354Q402 430 402 358V347Q402 308 389 279T352 229T296 199T226 189Q202 189 181 192T139 204Q128 193 120 178T111 146Q111 123 125 110T167 97H300Q333 97 361 90T410 68T441 27T453 -34Q453
-67 440 -96T400 -148T329 -184T225 -197ZM223 -152Q319 -152 359 -121T399 -41Q399 8 372 27T293 46H154Q119 33 94 8T69 -57Q69 -99 104 -125T223 -152ZM226 230Q283 230 316 259T349 345V359Q349 419 315 446T226 474Q169 474 136 445T103 360V346Q103 288 137
259T226 230Z" />
<glyph unicode="&#x124;" glyph-name="Hcircumflex" horiz-adv-x="611" d="M325 693H380V383H741V693H796V0H741V337H380V0H325V693ZM273 842H320L410 733H366L296 803L227 733H183L273 842Z" />
<glyph unicode="&#x125;" glyph-name="hcircumflex" horiz-adv-x="494" d="M65 737H119V463H122Q159 487 203 501T296 515Q365 515 400 484T436 384V0H383V375Q383 426 359 448T274 470Q234 470 194 458T119 425V0H65V737ZM217 889H264L354 780H310L240 850L171
780H127L217 889Z" />
<glyph unicode="&#x126;" glyph-name="Hbar" horiz-adv-x="615" d="M13 544H72V693H127V544H488V693H543V544H602V503H543V0H488V337H127V0H72V503H13V544ZM488 383V503H127V383H488Z" />
<glyph unicode="&#x127;" glyph-name="hbar" horiz-adv-x="494" d="M127 617H141V614H127V617ZM65 737H119V463H122Q159 487 203 501T296 515Q365 515 400 484T436 384V0H383V375Q383 426 359 448T274 470Q234 470 194 458T119 425V0H65V737Z" />
<glyph unicode="&#x128;" glyph-name="Itilde" horiz-adv-x="233" d="M104 693H158V0H104V693ZM235 742Q240 784 262 803T312 823Q328 823 342 818T369 805T394 793T418 787Q433 787 443 796T457 824H494Q489 782 468 763T418 744Q402 744 388 749T361 761T336
772T312 778Q280 778 273 742H235V742Z" />
<glyph unicode="&#x129;" glyph-name="itilde" horiz-adv-x="205" d="M77 507H130V0H77V507ZM-15 607Q-11 650 8 670T54 690Q69 690 82 684T107 671T129 658T150 652Q179 652 183 691H220Q216 648 197 628T151 608Q136 608 123 614T99 627T77 640T56 646Q41 646
34 637T23 607H-15Z" />
<glyph unicode="&#x12a;" glyph-name="Imacron" horiz-adv-x="233" d="M90 693H144V0H90V693ZM33 791H200V746H33V791Z" />
<glyph unicode="&#x12b;" glyph-name="imacron" horiz-adv-x="205" d="M25 673H182V628H25V673ZM91 507H143V0H91V507Z" />
<glyph unicode="&#x12c;" glyph-name="Ibreve" horiz-adv-x="233" d="M104 693H158V0H104V693ZM365 732Q315 732 284 760T249 837H289Q301 773 365 773Q428 773 440 837H481Q476 789 445 761T365 732Z" />
<glyph unicode="&#x12d;" glyph-name="ibreve" horiz-adv-x="205" d="M77 507H130V0H77V507ZM103 586Q55 586 27 616T-3 697H37Q40 664 56 646T103 627Q133 627 149 645T170 697H210Q208 646 180 616T103 586Z" />
<glyph unicode="&#x12e;" glyph-name="Iogonek" horiz-adv-x="233" d="M24 -120Q24 -101 30 -84T46 -52T67 -24T90 -2V693H146V1Q115 -25 94 -54T73 -115Q73 -159 125 -159Q147 -159 158 -155V-189Q151 -192 140 -195T114 -198Q69 -198 47 -177T24 -120Z" />
<glyph unicode="&#x12f;" glyph-name="iogonek" horiz-adv-x="205" d="M10 -120Q10 -101 16 -84T32 -52T54 -25T77 -2V507H130V1Q101 -25 81 -54T60 -114Q60 -159 111 -159Q133 -159 145 -155V-189Q137 -192 126 -195T101 -198Q56 -198 33 -177T10 -120ZM76 677H131V615H76V677Z"
/>
<glyph unicode="&#x130;" glyph-name="Idotaccent" horiz-adv-x="233" d="M104 693H158V0H104V693ZM339 803H394V742H339V803Z" />
<glyph unicode="&#x131;" glyph-name="dotlessi" horiz-adv-x="205" d="M76 507H128V0H76V507Z" />
<glyph unicode="&#x134;" glyph-name="Jcircumflex" horiz-adv-x="383" d="M248 842H295L385 733H341L271 803L202 733H158L248 842ZM147 -6Q83 -6 40 15V59Q60 51 87 47T143 42Q206 42 233 72T261 163V693H317V162Q317 87 277 41T147 -6Z" />
<glyph unicode="&#x135;" glyph-name="jcircumflex" horiz-adv-x="205" d="M81 714H127L213 586H169L103 672L39 586H-6L81 714ZM24 -196Q4 -196 -11 -192T-39 -183V-144Q-27 -147 -15 -149T12 -152Q91 -152 91 -67V507H144V-69Q144 -128 116 -162T24 -196Z" />
<glyph unicode="&#x136;" glyph-name="Kcommaaccent" horiz-adv-x="539" d="M248 -42H307L277 -173H235L248 -42ZM181 353L451 693H512L244 359L522 0H458L181 353ZM84 693H139V0H84V693Z" />
<glyph unicode="&#x137;" glyph-name="kcommaaccent" horiz-adv-x="443" d="M201 -42H260L230 -173H188L201 -42ZM79 737H132V0H79V737ZM162 264L354 507H413L222 267L428 0H366L162 264Z" />
<glyph unicode="&#x139;" glyph-name="Lacute" horiz-adv-x="464" d="M133 855H192L115 734H67L133 855ZM71 693H126V47H440V0H71V693Z" />
<glyph unicode="&#x13a;" glyph-name="lacute" horiz-adv-x="205" d="M394 902H453L376 781H328L394 902ZM90 737H143V0H90V737Z" />
<glyph unicode="&#x13b;" glyph-name="Lcommaaccent" horiz-adv-x="464" d="M223 -42H282L252 -173H210L223 -42ZM71 693H126V47H440V0H71V693Z" />
<glyph unicode="&#x13c;" glyph-name="lcommaaccent" horiz-adv-x="205" d="M325 -42H384L354 -173H312L325 -42ZM91 737H144V0H91V737Z" />
<glyph unicode="&#x13d;" glyph-name="Lcaron" horiz-adv-x="464" d="M71 693H127V47H440V0H71V693ZM247 529L258 693H311L286 529H247Z" />
<glyph unicode="&#x13e;" glyph-name="lcaron" horiz-adv-x="205" d="M426 591L434 737H487L465 591H426ZM76 737H129V0H76V737Z" />
<glyph unicode="&#x13f;" glyph-name="Ldot" horiz-adv-x="464" d="M331 405H390V332H331V405ZM70 693H125V47H439V0H70V693Z" />
<glyph unicode="&#x140;" glyph-name="ldot" horiz-adv-x="261" d="M201 404H256V336H201V404ZM97 737H150V0H97V737Z" />
<glyph unicode="&#x141;" glyph-name="Lslash" horiz-adv-x="464" d="M2 273L71 305V693H126V330L346 432V383L126 282V47H440V0H71V256L2 225V273Z" />
<glyph unicode="&#x142;" glyph-name="lslash" horiz-adv-x="229" d="M22 384L88 423V737H141V456L215 501V451L141 406V0H88V374L22 335V384Z" />
<glyph unicode="&#x143;" glyph-name="Nacute" horiz-adv-x="607" d="M349 855H408L331 734H283L349 855ZM321 693H388L657 233Q665 219 678 195T706 147Q722 119 740 88H741V693H792V0H733L452 481Q444 495 431 518T405 564Q390 590 374 619H372V0H321V693Z" />
<glyph unicode="&#x144;" glyph-name="nacute" horiz-adv-x="494" d="M289 726H349L257 586H210L289 726ZM65 507H117V462H120Q158 486 203 500T296 515Q365 515 400 484T436 384V0H383V375Q383 426 359 448T274 470Q234 470 194 458T119 425V0H65V507Z" />
<glyph unicode="&#x145;" glyph-name="Ncommaaccent" horiz-adv-x="607" d="M269 -42H328L298 -173H256L269 -42ZM321 693H388L657 233Q665 219 678 195T706 147Q722 119 740 88H741V693H792V0H733L452 481Q444 495 431 518T405 564Q390 590 374 619H372V0H321V693Z" />
<glyph unicode="&#x146;" glyph-name="ncommaaccent" horiz-adv-x="494" d="M212 -42H271L241 -173H199L212 -42ZM65 507H117V462H120Q158 486 203 500T296 515Q365 515 400 484T436 384V0H383V375Q383 426 359 448T274 470Q234 470 194 458T119 425V0H65V507Z" />
<glyph unicode="&#x147;" glyph-name="Ncaron" horiz-adv-x="607" d="M334 732H289L198 842H243L312 772L382 842H425L334 732ZM321 693H388L657 233Q665 219 678 195T706 147Q722 119 740 88H741V693H792V0H733L452 481Q444 495 431 518T405 564Q390 590 374
619H372V0H321V693Z" />
<glyph unicode="&#x148;" glyph-name="ncaron" horiz-adv-x="494" d="M262 585H215L122 713H167L239 626L310 713H355L262 585ZM65 507H117V462H120Q158 486 203 500T296 515Q365 515 400 484T436 384V0H383V375Q383 426 359 448T274 470Q234 470 194 458T119
425V0H65V507Z" />
<glyph unicode="&#x149;" glyph-name="napostrophe" horiz-adv-x="516" d="M270 693H328L300 532H254L270 693ZM79 507H131V462H134Q172 486 217 500T310 515Q379 515 414 484T450 384V0H397V375Q397 426 373 448T288 470Q248 470 208 458T133 425V0H79V507Z" />
<glyph unicode="&#x14a;" glyph-name="Eng" horiz-adv-x="607" d="M303 -116Q320 -121 341 -125T385 -129Q486 -129 487 -29V-11L199 480Q194 489 182 511T155 558Q139 586 121 619H119V0H68V693H135L413 219Q418 210 429 189T454 145Q469 119 487 89H488V693H539V-26Q539
-94 504 -135T392 -176Q365 -176 343 -172T303 -159V-116Z" />
<glyph unicode="&#x14b;" glyph-name="eng" horiz-adv-x="494" d="M250 -144Q263 -147 275 -149T301 -152Q381 -152 381 -67V375Q381 426 357 448T273 470Q232 470 192 458T117 425V0H63V507H115V462H118Q156 486 201 500T294 515Q364 515 399 484T434 384V-69Q434
-128 406 -162T315 -196Q294 -196 279 -192T250 -183V-144Z" />
<glyph unicode="&#x14c;" glyph-name="Omacron" horiz-adv-x="622" d="M192 791H410V746H192V791ZM560 -9Q429 -9 355 78T280 337V357Q280 524 354 613T561 702Q692 702 767 614T842 357V335Q842 253 823 189T767 81T679 14T560 -9ZM561 36Q670 36 726 114T783
327V357Q783 499 728 577T559 657Q506 657 465 637T395 580T353 488T338 367V337Q338 196 393 116T561 36Z" />
<glyph unicode="&#x14d;" glyph-name="omacron" horiz-adv-x="490" d="M126 673H344V628H126V673ZM245 -8Q146 -8 88 55T30 243V261Q30 323 46 370T90 450T158 498T245 515Q294 515 334 499T402 452T445 373T461 264V247Q461 185 445 138T401 58T333 9T245 -8ZM246
35Q318 35 362 87T406 241V267Q406 322 394 360T361 424T309 460T244 472Q172 472 128 420T84 267V240Q84 186 96 147T129 84T181 47T246 35Z" />
<glyph unicode="&#x14e;" glyph-name="Obreve" horiz-adv-x="622" d="M302 732Q252 732 221 760T186 837H226Q238 773 302 773Q365 773 377 837H418Q413 789 382 761T302 732ZM560 -9Q429 -9 355 78T280 337V357Q280 524 354 613T561 702Q692 702 767 614T842
357V335Q842 253 823 189T767 81T679 14T560 -9ZM561 36Q670 36 726 114T783 327V357Q783 499 728 577T559 657Q506 657 465 637T395 580T353 488T338 367V337Q338 196 393 116T561 36Z" />
<glyph unicode="&#x14f;" glyph-name="obreve" horiz-adv-x="490" d="M245 -8Q146 -8 88 55T30 243V261Q30 323 46 370T90 450T158 498T245 515Q294 515 334 499T402 452T445 373T461 264V247Q461 185 445 138T401 58T333 9T245 -8ZM246 35Q318 35 362 87T406
241V267Q406 322 394 360T361 424T309 460T244 472Q172 472 128 420T84 267V240Q84 186 96 147T129 84T181 47T246 35ZM236 585Q185 585 154 616T119 698H159Q164 664 183 645T236 626Q269 626 288 645T312 698H353Q350 647 318 616T236 585Z" />
<glyph unicode="&#x150;" glyph-name="Ohungarumlaut" horiz-adv-x="622" d="M383 855H440L387 734H342L383 855ZM257 855H314L261 734H215L257 855ZM560 -9Q429 -9 355 78T280 337V357Q280 524 354 613T561 702Q692 702 767 614T842 357V335Q842 253 823 189T767
81T679 14T560 -9ZM561 36Q670 36 726 114T783 327V357Q783 499 728 577T559 657Q506 657 465 637T395 580T353 488T338 367V337Q338 196 393 116T561 36Z" />
<glyph unicode="&#x151;" glyph-name="ohungarumlaut" horiz-adv-x="490" d="M327 726H385L323 586H278L327 726ZM201 726H258L197 586H151L201 726ZM245 -8Q146 -8 88 55T30 243V261Q30 323 46 370T90 450T158 498T245 515Q294 515 334 499T402 452T445 373T461
264V247Q461 185 445 138T401 58T333 9T245 -8ZM246 35Q318 35 362 87T406 241V267Q406 322 394 360T361 424T309 460T244 472Q172 472 128 420T84 267V240Q84 186 96 147T129 84T181 47T246 35Z" />
<glyph unicode="&#x152;" glyph-name="OE" horiz-adv-x="845" d="M331 0Q176 0 99 80T21 332V351Q21 519 95 606T329 693H819V646H496V381H744V333H496V47H821V0H331ZM441 48V645H328Q198 645 139 576T79 359V332Q79 180 142 114T334 48H441Z" />
<glyph unicode="&#x153;" glyph-name="oe" horiz-adv-x="800" d="M227 -8Q129 -8 71 55T13 243V261Q13 323 29 370T73 450T141 498T228 515Q297 515 345 484T416 390Q441 455 488 485T598 515Q697 515 743 456T789 279V247H444Q444 138 488 88T624 37Q673 37 708
47T773 73V32Q751 18 712 5T617 -8Q537 -8 488 24T415 117Q390 56 342 24T227 -8ZM229 35Q301 35 345 87T389 241V267Q389 322 377 360T344 424T292 460T227 472Q155 472 111 420T67 267V240Q67 186 79 147T112 84T164 47T229 35ZM596 472Q566 472 540 462T493
430T460 374T444 290H733Q733 382 700 427T596 472Z" />
<glyph unicode="&#x154;" glyph-name="Racute" horiz-adv-x="528" d="M286 855H345L268 734H220L286 855ZM74 693H257Q367 693 417 643T468 504Q468 355 329 321V318L512 0H450L274 309H129V0H74V693ZM255 353Q299 353 328 364T376 394T402 441T410 503Q410 571
375 608T253 646H129V353H255Z" />
<glyph unicode="&#x155;" glyph-name="racute" horiz-adv-x="311" d="M484 726H544L452 586H405L484 726ZM73 507H124V449H127Q150 473 187 493T269 514Q277 514 284 513T297 510V462Q290 464 281 464T265 465Q223 465 188 449T126 410V0H73V507Z" />
<glyph unicode="&#x156;" glyph-name="Rcommaaccent" horiz-adv-x="528" d="M243 -42H302L272 -173H230L243 -42ZM74 693H257Q367 693 417 643T468 504Q468 355 329 321V318L512 0H450L274 309H129V0H74V693ZM255 353Q299 353 328 364T376 394T402 441T410 503Q410
571 375 608T253 646H129V353H255Z" />
<glyph unicode="&#x157;" glyph-name="rcommaaccent" horiz-adv-x="311" d="M57 -42H116L86 -173H44L57 -42ZM71 507H122V449H125Q148 473 185 493T267 514Q275 514 282 513T295 510V462Q288 464 279 464T263 465Q221 465 186 449T124 410V0H71V507Z" />
<glyph unicode="&#x158;" glyph-name="Rcaron" horiz-adv-x="528" d="M270 732H225L134 842H179L248 772L318 842H361L270 732ZM74 693H257Q367 693 417 643T468 504Q468 355 329 321V318L512 0H450L274 309H129V0H74V693ZM255 353Q299 353 328 364T376 394T402
441T410 503Q410 571 375 608T253 646H129V353H255Z" />
<glyph unicode="&#x159;" glyph-name="rcaron" horiz-adv-x="311" d="M455 585H408L315 713H360L432 626L503 713H548L455 585ZM72 507H123V449H126Q149 473 186 493T268 514Q276 514 283 513T296 510V462Q289 464 280 464T264 465Q222 465 187 449T125 410V0H72V507Z" />
<glyph unicode="&#x15a;" glyph-name="Sacute" horiz-adv-x="456" d="M459 -10Q399 -10 353 3T274 35V82Q311 62 357 50T456 37Q542 37 581 75T620 180Q620 212 612 234T587 273T546 302T490 326L438 344Q399 357 371 373T323 412T294 463T284 531Q284 568 296
599T334 653T396 689T484 702Q541 702 579 692T643 667V619Q616 633 576 644T483 656Q411 656 375 623T339 535Q339 506 345 485T365 448T402 419T459 394L511 376Q548 362 578 347T631 310T664 258T676 184Q676 96 625 43T459 -10ZM516 855H575L498 734H450L516
855Z" />
<glyph unicode="&#x15b;" glyph-name="sacute" horiz-adv-x="368" d="M483 726H543L451 586H404L483 726ZM430 -8Q381 -8 344 1T279 26V70Q308 57 340 47T424 37Q489 37 516 63T544 131Q544 153 539 168T522 195T493 214T450 231L398 247Q345 263 315 292T284
382Q284 442 324 478T443 515Q490 515 520 507T571 487V443Q549 454 516 462T446 470Q391 470 363 449T335 387Q335 348 354 328T417 295L469 279Q502 269 526 257T566 229T589 190T597 135Q597 70 556 31T430 -8Z" />
<glyph unicode="&#x15c;" glyph-name="Scircumflex" horiz-adv-x="456" d="M454 842H501L591 733H547L477 803L408 733H364L454 842ZM459 -10Q399 -10 353 3T274 35V82Q311 62 357 50T456 37Q542 37 581 75T620 180Q620 212 612 234T587 273T546 302T490 326L438
344Q399 357 371 373T323 412T294 463T284 531Q284 568 296 599T334 653T396 689T484 702Q541 702 579 692T643 667V619Q616 633 576 644T483 656Q411 656 375 623T339 535Q339 506 345 485T365 448T402 419T459 394L511 376Q548 362 578 347T631 310T664 258T676
184Q676 96 625 43T459 -10Z" />
<glyph unicode="&#x15d;" glyph-name="scircumflex" horiz-adv-x="368" d="M409 714H456L548 586H505L432 673L361 586H316L409 714ZM430 -8Q381 -8 344 1T279 26V70Q308 57 340 47T424 37Q489 37 516 63T544 131Q544 153 539 168T522 195T493 214T450 231L398
247Q345 263 315 292T284 382Q284 442 324 478T443 515Q490 515 520 507T571 487V443Q549 454 516 462T446 470Q391 470 363 449T335 387Q335 348 354 328T417 295L469 279Q502 269 526 257T566 229T589 190T597 135Q597 70 556 31T430 -8Z" />
<glyph unicode="&#x15e;" glyph-name="Scedilla" horiz-adv-x="456" d="M143 -176Q199 -172 223 -160T248 -125Q248 -103 228 -94T164 -84V-9Q117 -5 79 7T15 35V82Q52 62 98 50T197 37Q283 37 322 75T361 180Q361 212 353 234T328 273T287 302T231 326L179 344Q140
357 112 373T64 412T35 463T25 531Q25 568 37 599T75 653T137 689T225 702Q282 702 320 692T384 667V619Q357 633 317 644T224 656Q152 656 116 623T80 535Q80 506 86 485T106 448T143 420T200 395L252 376Q289 363 319 348T371 311T404 258T416 184Q416 140 404
105T365 44T299 4T203 -10H202V-51Q244 -53 269 -69T295 -121Q295 -163 261 -185T143 -212V-176Z" />
<glyph unicode="&#x15f;" glyph-name="scedilla" horiz-adv-x="368" d="M105 -176Q160 -172 185 -160T210 -125Q210 -103 190 -94T126 -84V-6Q93 -2 66 6T19 26V70Q48 57 80 47T164 37Q230 37 257 63T284 131Q284 153 279 168T262 195T233 214T190 231L138 247Q85
263 55 292T24 382Q24 442 64 478T183 515Q230 515 260 507T311 487V443Q289 454 256 462T186 470Q131 470 103 449T75 387Q75 348 94 328T157 295L209 279Q242 269 266 257T306 229T329 190T337 135Q337 70 296 32T172 -8H164V-51Q205 -53 231 -69T257 -121Q257
-163 223 -185T105 -213V-176Z" />
<glyph unicode="&#x160;" glyph-name="Scaron" horiz-adv-x="456" d="M498 732H453L362 842H407L476 772L546 842H589L498 732ZM459 -10Q399 -10 353 3T274 35V82Q311 62 357 50T456 37Q542 37 581 75T620 180Q620 212 612 234T587 273T546 302T490 326L438 344Q399
357 371 373T323 412T294 463T284 531Q284 568 296 599T334 653T396 689T484 702Q541 702 579 692T643 667V619Q616 633 576 644T483 656Q411 656 375 623T339 535Q339 506 345 485T365 448T402 419T459 394L511 376Q548 362 578 347T631 310T664 258T676 184Q676
96 625 43T459 -10Z" />
<glyph unicode="&#x161;" glyph-name="scaron" horiz-adv-x="368" d="M457 585H410L317 713H362L434 626L505 713H550L457 585ZM430 -8Q381 -8 344 1T279 26V70Q308 57 340 47T424 37Q489 37 516 63T544 131Q544 153 539 168T522 195T493 214T450 231L398 247Q345
263 315 292T284 382Q284 442 324 478T443 515Q490 515 520 507T571 487V443Q549 454 516 462T446 470Q391 470 363 449T335 387Q335 348 354 328T417 295L469 279Q502 269 526 257T566 229T589 190T597 135Q597 70 556 31T430 -8Z" />
<glyph unicode="&#x162;" glyph-name="Tcommaaccent" horiz-adv-x="496" d="M212 -42H271L241 -173H199L212 -42ZM472 646H261V693H737V646H526V0H472V646Z" />
<glyph unicode="&#x163;" glyph-name="tcommaaccent" horiz-adv-x="313" d="M409 -42H468L438 -173H396L409 -42ZM213 -6Q157 -6 128 20T98 103V463H26V507H98V627H151V507H281V463H151V111Q151 73 166 56T227 39Q243 39 260 41T291 49V12Q278 5 259 0T213 -6Z" />
<glyph unicode="&#x164;" glyph-name="Tcaron" horiz-adv-x="496" d="M261 732H216L125 842H170L239 772L309 842H352L261 732ZM472 646H261V693H737V646H526V0H472V646Z" />
<glyph unicode="&#x165;" glyph-name="tcaron" horiz-adv-x="313" d="M209 591L217 737H270L248 591H209ZM214 -6Q158 -6 129 20T99 103V463H27V507H99V627H152V507H282V463H152V111Q152 73 167 56T228 39Q244 39 261 41T292 49V12Q279 5 260 0T214 -6Z" />
<glyph unicode="&#x166;" glyph-name="Tbar" horiz-adv-x="496" d="M76 431H419V391H76V431ZM215 646H4V693H480V646H269V0H215V646Z" />
<glyph unicode="&#x167;" glyph-name="tbar" horiz-adv-x="313" d="M22 354H277V316H22V354ZM213 -6Q157 -6 128 20T98 103V463H26V507H98V627H151V507H281V463H151V111Q151 73 166 56T227 39Q243 39 260 41T291 49V12Q278 5 259 0T213 -6Z" />
<glyph unicode="&#x168;" glyph-name="Utilde" horiz-adv-x="596" d="M554 -10Q440 -10 380 47T319 227V693H374V230Q374 122 420 79T556 35Q600 35 633 45T689 78T723 138T734 231V693H786V228Q786 104 727 47T554 -10ZM162 742Q167 784 189 803T239 823Q255
823 269 818T296 805T321 793T345 787Q360 787 370 796T384 824H421Q416 782 395 763T345 744Q329 744 315 749T288 761T263 772T239 778Q207 778 200 742H162V742Z" />
<glyph unicode="&#x169;" glyph-name="utilde" horiz-adv-x="487" d="M206 -8Q135 -8 98 25T60 128V507H113V134Q113 82 138 60T221 37Q261 37 300 50T373 84V507H427V0H380L375 45H372Q334 22 292 7T206 -8ZM106 606Q111 649 133 669T183 690Q199 690 213 684T240
671T265 657T289 651Q304 651 314 661T328 691H365Q360 648 338 628T289 607Q272 607 259 613T232 626T207 640T183 646Q152 646 144 606H106V606Z" />
<glyph unicode="&#x16a;" glyph-name="Umacron" horiz-adv-x="596" d="M554 -10Q440 -10 380 47T319 227V693H374V230Q374 122 420 79T556 35Q600 35 633 45T689 78T723 138T734 231V693H786V228Q786 104 727 47T554 -10ZM182 791H400V746H182V791Z" />
<glyph unicode="&#x16b;" glyph-name="umacron" horiz-adv-x="487" d="M206 -8Q135 -8 98 25T60 128V507H113V134Q113 82 138 60T221 37Q261 37 300 50T373 84V507H427V0H380L375 45H372Q334 22 292 7T206 -8ZM126 673H344V628H126V673Z" />
<glyph unicode="&#x16c;" glyph-name="Ubreve" horiz-adv-x="596" d="M554 -10Q440 -10 380 47T319 227V693H374V230Q374 122 420 79T556 35Q600 35 633 45T689 78T723 138T734 231V693H786V228Q786 104 727 47T554 -10ZM291 732Q241 732 210 760T175 837H215Q227
773 291 773Q354 773 366 837H407Q402 789 371 761T291 732Z" />
<glyph unicode="&#x16d;" glyph-name="ubreve" horiz-adv-x="487" d="M206 -8Q135 -8 98 25T60 128V507H113V134Q113 82 138 60T221 37Q261 37 300 50T373 84V507H427V0H380L375 45H372Q334 22 292 7T206 -8ZM236 585Q185 585 154 616T119 698H159Q164 664 183
645T236 626Q269 626 288 645T312 698H353Q350 647 318 616T236 585Z" />
<glyph unicode="&#x16e;" glyph-name="Uring" horiz-adv-x="596" d="M554 -10Q440 -10 380 47T319 227V693H374V230Q374 122 420 79T556 35Q600 35 633 45T689 78T723 138T734 231V693H786V228Q786 104 727 47T554 -10ZM293 959Q255 959 232 983T208 1043Q208
1077 231 1101T293 1126Q329 1126 353 1102T377 1043Q377 1008 353 984T293 959ZM293 991Q316 991 329 1005T342 1043Q342 1065 329 1079T293 1094Q270 1094 257 1080T243 1043Q243 1020 256 1006T293 991Z" />
<glyph unicode="&#x16f;" glyph-name="uring" horiz-adv-x="487" d="M236 579Q199 579 176 603T152 663Q152 697 175 721T236 746Q273 746 296 722T320 663Q320 628 297 604T236 579ZM236 610Q259 610 272 625T285 663Q285 685 272 699T236 714Q213 714 200 700T186
663Q186 640 199 625T236 610ZM206 -8Q135 -8 98 25T60 128V507H113V134Q113 82 138 60T221 37Q261 37 300 50T373 84V507H427V0H380L375 45H372Q334 22 292 7T206 -8Z" />
<glyph unicode="&#x170;" glyph-name="Uhungarumlaut" horiz-adv-x="596" d="M373 855H430L377 734H332L373 855ZM247 855H304L251 734H205L247 855ZM554 -10Q440 -10 380 47T319 227V693H374V230Q374 122 420 79T556 35Q600 35 633 45T689 78T723 138T734 231V693H786V228Q786
104 727 47T554 -10Z" />
<glyph unicode="&#x171;" glyph-name="uhungarumlaut" horiz-adv-x="487" d="M206 -8Q135 -8 98 25T60 128V507H113V134Q113 82 138 60T221 37Q261 37 300 50T373 84V507H427V0H380L375 45H372Q334 22 292 7T206 -8ZM326 726H384L322 586H277L326 726ZM200 726H257L196
586H150L200 726Z" />
<glyph unicode="&#x172;" glyph-name="Uogonek" horiz-adv-x="596" d="M342 -198Q295 -198 272 -177T249 -121Q249 -86 270 -57T318 -10H296Q184 -8 125 49T65 227V693H120V230Q120 176 132 139T167 78T224 44T302 34Q346 34 379 44T434 77T468 138T480 231V693H532V228Q532
170 520 131T486 64Q466 39 442 25T391 -2Q350 -22 324 -51T298 -115Q298 -138 312 -149T352 -160Q363 -160 372 -159T387 -156V-190Q379 -193 368 -195T342 -198Z" />
<glyph unicode="&#x173;" glyph-name="uogonek" horiz-adv-x="487" d="M392 -198Q346 -198 323 -177T299 -120Q299 -101 306 -83T326 -49T352 -20T379 3L374 45H371Q333 22 291 7T205 -8Q134 -8 97 25T59 128V507H112V134Q112 82 137 60T220 37Q260 37 299 50T372
84V507H426V0Q394 -26 371 -55T348 -115Q348 -159 403 -159Q427 -159 438 -155V-189Q430 -192 419 -195T392 -198Z" />
<glyph unicode="&#x174;" glyph-name="Wcircumflex" horiz-adv-x="789" d="M366 842H413L503 733H459L389 803L320 733H276L366 842ZM261 693H316L429 210Q430 205 435 186T445 144Q451 118 458 86H460Q468 117 475 143Q481 165 486 185T493 210L625 693H673L803
207Q805 200 809 180T820 139Q826 114 835 85H836Q842 114 848 139Q853 160 857 179T864 206L978 693H1030L864 0H807L679 478Q677 483 672 502T662 543Q656 568 648 597H646Q638 568 632 544Q627 523 622 504T616 480L485 0H427L261 693Z" />
<glyph unicode="&#x175;" glyph-name="wcircumflex" horiz-adv-x="673" d="M307 714H354L446 586H403L330 673L259 586H214L307 714ZM15 507H71L163 161Q165 154 168 139T176 109Q180 91 186 71H189Q194 90 199 108Q203 123 207 137T214 160L315 507H363L462 165Q464
158 468 143T477 111Q482 93 489 71H492Q498 93 502 111Q506 127 510 142T516 166L606 507H657L517 0H461L365 329Q363 336 359 351T350 382Q345 400 338 422H336Q330 401 325 383Q320 367 316 352T309 329L212 0H155L15 507Z" />
<glyph unicode="&#x176;" glyph-name="Ycircumflex" horiz-adv-x="509" d="M228 282L8 693H67L204 436Q209 425 218 409T236 376Q246 357 257 336H259Q270 357 280 376Q288 393 297 409T312 437L447 693H502L283 282V0H228V282ZM226 842H273L363 733H319L249 803L180
733H136L226 842Z" />
<glyph unicode="&#x177;" glyph-name="ycircumflex" horiz-adv-x="443" d="M91 -197Q74 -197 59 -194T33 -186V-148Q55 -153 82 -153Q120 -153 141 -133T178 -70L208 9L18 507H74L198 175Q200 169 205 154T216 122Q223 103 232 81H234Q242 104 249 123Q255 140
260 155T267 175L381 507H434L228 -77Q207 -137 178 -167T91 -197ZM457 714H504L596 586H553L480 673L409 586H364L457 714Z" />
<glyph unicode="&#x178;" glyph-name="Ydieresis" horiz-adv-x="509" d="M228 282L8 693H67L204 436Q209 425 218 409T236 376Q246 357 257 336H259Q270 357 280 376Q288 393 297 409T312 437L447 693H502L283 282V0H228V282ZM293 802H347V741H293V802ZM153 802H207V741H153V802Z"
/>
<glyph unicode="&#x179;" glyph-name="Zacute" horiz-adv-x="485" d="M280 855H339L262 734H214L280 855ZM264 42L645 645V647H289V693H711V652L328 49V47H708V0H264V42Z" />
<glyph unicode="&#x17a;" glyph-name="zacute" horiz-adv-x="411" d="M513 726H573L481 586H434L513 726ZM32 40L320 461V463H46V507H385V468L95 46V44H383V0H32V40Z" />
<glyph unicode="&#x17b;" glyph-name="Zdotaccent" horiz-adv-x="485" d="M264 42L645 645V647H289V693H711V652L328 49V47H708V0H264V42ZM215 803H270V742H215V803Z" />
<glyph unicode="&#x17c;" glyph-name="zdotaccent" horiz-adv-x="411" d="M32 40L320 461V463H46V507H385V468L95 46V44H383V0H32V40ZM434 677H488V615H434V677Z" />
<glyph unicode="&#x17d;" glyph-name="Zcaron" horiz-adv-x="485" d="M267 732H222L131 842H176L245 772L315 842H358L267 732ZM264 42L645 645V647H289V693H711V652L328 49V47H708V0H264V42Z" />
<glyph unicode="&#x17e;" glyph-name="zcaron" horiz-adv-x="411" d="M488 585H441L348 713H393L465 626L536 713H581L488 585ZM32 40L320 461V463H46V507H385V468L95 46V44H383V0H32V40Z" />
<glyph unicode="&#x192;" glyph-name="florin" horiz-adv-x="384" d="M44 454H134L157 586Q170 673 211 709T317 746Q343 746 360 742T388 734V693Q376 696 362 698T327 701Q277 701 249 673T209 579L189 454H306V407H181L108 -35Q94 -118 58 -150T-33 -182Q-59
-182 -75 -178T-102 -168V-128Q-91 -132 -77 -134T-47 -137Q-9 -137 17 -114T54 -30L127 407H44V454Z" />
<glyph unicode="&#x1fa;" glyph-name="Aringacute" horiz-adv-x="553" d="M503 693H559L801 0H744L668 219H389L313 0H260L503 693ZM528 619Q522 600 516 583Q511 569 506 555T498 532L405 266H651L560 531Q557 539 552 554T542 583Q536 600 530 619H528ZM308
1030H367L290 909H242L308 1030ZM267 721Q229 721 206 745T182 805Q182 839 205 863T267 888Q303 888 327 864T351 805Q351 770 327 746T267 721ZM267 753Q290 753 303 767T316 805Q316 827 303 841T267 856Q244 856 231 842T217 805Q217 782 230 768T267 753Z"
/>
<glyph unicode="&#x1fb;" glyph-name="aringacute" horiz-adv-x="436" d="M192 -8Q123 -8 82 28T40 131Q40 197 78 232T188 276L328 294V360Q328 423 299 446T205 470Q169 470 139 464T83 450V489Q144 515 224 515Q301 515 341 482T381 372V0H337L332 41H329Q312
22 278 7T192 -8ZM205 33Q246 33 278 46T328 76V253L202 238Q147 231 121 207T95 133Q95 85 124 59T205 33ZM463 579Q426 579 403 603T379 663Q379 697 402 721T463 746Q500 746 523 722T547 663Q547 628 524 604T463 579ZM463 610Q486 610 499 625T512 663Q512
685 499 699T463 714Q440 714 427 700T413 663Q413 640 426 625T463 610ZM502 904H561L484 783H436L502 904Z" />
<glyph unicode="&#x1fc;" glyph-name="AEacute" horiz-adv-x="808" d="M586 855H645L568 734H520L586 855ZM617 693H1024V646H704V381H950V333H704V47H1026V0H649V207H408L295 0H241L617 693ZM433 255H649V649H646L433 255Z" />
<glyph unicode="&#x1fd;" glyph-name="aeacute" horiz-adv-x="723" d="M409 726H469L377 586H330L409 726ZM422 -8Q350 -8 308 28T266 131Q266 196 304 231T416 276L554 291V360Q554 423 525 446T429 470Q394 470 363 464T306 450V489Q337 502 372 508T449 515Q511
515 547 493T596 421Q623 469 666 492T762 515Q860 515 905 456T951 280V250H609V247Q609 138 653 88T788 37Q836 37 871 47T936 73V32Q914 18 875 5T780 -8Q653 -8 597 75Q564 37 523 15T422 -8ZM579 106Q554 162 554 246L556 252L429 238Q372 232 347 207T321
133Q321 84 350 59T433 33Q479 33 514 52T579 106ZM760 472Q730 472 704 462T658 430T625 374T609 292H895Q895 382 862 427T760 472Z" />
<glyph unicode="&#x1fe;" glyph-name="Oslashacute" horiz-adv-x="622" d="M560 -9Q501 -9 454 9T371 62L325 0H273L344 95Q280 185 280 337V357Q280 524 354 613T562 702Q673 702 745 636L787 693H840L773 603Q806 559 824 497T842 357V335Q842 253 823 189T768
81T679 14T560 -9ZM561 36Q670 36 726 114T783 327V361Q783 483 740 558L402 103Q429 71 468 54T561 36ZM338 333Q338 273 347 225T377 140L714 594Q657 656 559 657Q506 657 465 637T395 580T353 488T338 367V333ZM337 855H396L319 734H271L337 855Z" />
<glyph unicode="&#x1ff;" glyph-name="oslashacute" horiz-adv-x="490" d="M246 -8Q154 -8 99 45L63 0H14L74 75Q31 138 31 243V261Q31 323 47 370T91 450T159 498T246 515Q332 515 387 466L419 506H468L413 438Q461 373 461 264V247Q461 185 445 138T401 58T333
9T246 -8ZM247 35Q319 35 363 87T407 241V268Q407 350 381 397L129 83Q150 58 180 47T247 35ZM85 239Q85 161 107 116L357 429Q336 452 308 462T245 472Q172 472 129 420T85 267V239ZM285 726H345L253 586H206L285 726Z" />
<glyph unicode="&#x218;" glyph-name="Scommaaccent" horiz-adv-x="456" d="M441 -42H500L470 -173H428L441 -42ZM459 -10Q399 -10 353 3T274 35V82Q311 62 357 50T456 37Q542 37 581 75T620 180Q620 212 612 234T587 273T546 302T490 326L438 344Q399 357 371
373T323 412T294 463T284 531Q284 568 296 599T334 653T396 689T484 702Q541 702 579 692T643 667V619Q616 633 576 644T483 656Q411 656 375 623T339 535Q339 506 345 485T365 448T402 419T459 394L511 376Q548 362 578 347T631 310T664 258T676 184Q676 96 625
43T459 -10Z" />
<glyph unicode="&#x219;" glyph-name="scommaaccent" horiz-adv-x="368" d="M401 -42H460L430 -173H388L401 -42ZM430 -8Q381 -8 344 1T279 26V70Q308 57 340 47T424 37Q489 37 516 63T544 131Q544 153 539 168T522 195T493 214T450 231L398 247Q345 263 315 292T284
382Q284 442 324 478T443 515Q490 515 520 507T571 487V443Q549 454 516 462T446 470Q391 470 363 449T335 387Q335 348 354 328T417 295L469 279Q502 269 526 257T566 229T589 190T597 135Q597 70 556 31T430 -8Z" />
<glyph unicode="&#x21a;" glyph-name="uni021A" horiz-adv-x="496" d="M212 -42H271L241 -173H199L212 -42ZM472 646H261V693H737V646H526V0H472V646Z" />
<glyph unicode="&#x21b;" glyph-name="uni021B" horiz-adv-x="313" d="M409 -42H468L438 -173H396L409 -42ZM213 -6Q157 -6 128 20T98 103V463H26V507H98V627H151V507H281V463H151V111Q151 73 166 56T227 39Q243 39 260 41T291 49V12Q278 5 259 0T213 -6Z" />
<glyph unicode="&#x237;" glyph-name="uni0237" horiz-adv-x="205" d="M10 -196Q-10 -196 -25 -192T-53 -183V-144Q-41 -147 -29 -149T-2 -152Q77 -152 77 -67V507H130V-69Q130 -128 102 -162T10 -196Z" />
<glyph unicode="&#x2c6;" glyph-name="circumflex" horiz-adv-x="452" d="M205 714H252L344 586H301L228 673L157 586H112L205 714Z" />
<glyph unicode="&#x2c7;" glyph-name="caron" horiz-adv-x="452" d="M248 585H201L108 713H153L225 626L296 713H341L248 585Z" />
<glyph unicode="&#x2d8;" glyph-name="breve" horiz-adv-x="452" d="M227 585Q176 585 145 616T110 698H150Q155 664 174 645T227 626Q260 626 279 645T303 698H344Q341 647 309 616T227 585Z" />
<glyph unicode="&#x2d9;" glyph-name="dotaccent" horiz-adv-x="452" d="M199 677H253V615H199V677Z" />
<glyph unicode="&#x2da;" glyph-name="ring" horiz-adv-x="452" d="M230 579Q193 579 170 603T146 663Q146 697 169 721T230 746Q267 746 290 722T314 663Q314 628 291 604T230 579ZM230 610Q253 610 266 625T279 663Q279 685 266 699T230 714Q207 714 194 700T180
663Q180 640 193 625T230 610Z" />
<glyph unicode="&#x2db;" glyph-name="ogonek" horiz-adv-x="452" d="M241 -198Q194 -198 171 -177T148 -121Q148 -101 156 -83T176 -50T202 -22T229 0H275Q243 -27 220 -55T197 -116Q197 -160 252 -160Q263 -160 271 -159T287 -156V-190Q279 -193 268 -195T241 -198Z" />
<glyph unicode="&#x2dc;" glyph-name="tilde" horiz-adv-x="452" d="M96 606Q101 649 123 669T173 690Q189 690 203 684T230 671T255 657T279 651Q294 651 304 661T318 691H355Q350 648 328 628T279 607Q262 607 249 613T222 626T197 640T173 646Q142 646 134
606H96V606Z" />
<glyph unicode="&#x2dd;" glyph-name="hungarumlaut" horiz-adv-x="452" d="M308 726H366L304 586H259L308 726ZM182 726H239L178 586H132L182 726Z" />
</font>
</defs>
</svg>
