<?xml version="1.0" encoding="utf-8"?>
<!-- Generator: Adobe Illustrator 17.0.0, SVG Export Plug-In . SVG Version: 6.00 Build 0)  -->
<!DOCTYPE svg PUBLIC "-//W3C//DTD SVG 1.1//EN" "http://www.w3.org/Graphics/SVG/1.1/DTD/svg11.dtd">
<svg version="1.1" id="Lager_1" xmlns="http://www.w3.org/2000/svg" xmlns:xlink="http://www.w3.org/1999/xlink" x="0px" y="0px"
	 width="58.849px" height="49.539px" viewBox="0 0 58.849 49.539" enable-background="new 0 0 58.849 49.539" xml:space="preserve">
<g>
	<path fill="#FFFFFF" d="M38.636,0c-7.077,0-13.299,3.665-16.908,9.19c-0.502-0.037-1.004-0.077-1.515-0.077
		C9.067,9.113,0,18.18,0,29.326s9.067,20.213,20.213,20.213c7.074,0,13.301-3.66,16.914-9.179c0.499,0.039,1.001,0.065,1.509,0.065
		c11.146,0,20.213-9.067,20.213-20.213C58.849,9.067,49.781,0,38.636,0z M20.213,44.539C11.825,44.539,5,37.714,5,29.326
		s6.825-15.213,15.213-15.213s15.213,6.825,15.213,15.213S28.601,44.539,20.213,44.539z M37.573,16.969v2.057
		c-0.4-0.671-0.835-1.315-1.307-1.933l0.501-0.344l1.172-1.442L37.573,16.969z M39.496,35.382c0.602-1.913,0.929-3.947,0.929-6.056
		c0-0.006-0.001-0.012-0.001-0.018h3.501V26.62h-3.323V11.911h-1.784l-4.133,3.335c-2.107-2.166-4.697-3.848-7.591-4.901
		C29.885,7.081,34.015,5,38.636,5c8.388,0,15.213,6.824,15.213,15.212C53.849,28.31,47.484,34.931,39.496,35.382z"/>
	<polygon fill="#FFFFFF" points="21.881,19.92 20.097,19.92 14.526,24.416 15.87,26.248 18.045,24.758 19.217,23.316 18.851,24.978 
		18.851,34.629 15.455,34.629 15.455,37.317 25.204,37.317 25.204,34.629 21.881,34.629 	"/>
</g>
</svg>
