<?xml version="1.0" encoding="utf-8"?>
<!-- Generator: Adobe Illustrator 17.0.0, SVG Export Plug-In . SVG Version: 6.00 Build 0)  -->
<!DOCTYPE svg PUBLIC "-//W3C//DTD SVG 1.1//EN" "http://www.w3.org/Graphics/SVG/1.1/DTD/svg11.dtd">
<svg version="1.1" id="Default_g_x2B__icon" xmlns="http://www.w3.org/2000/svg" xmlns:xlink="http://www.w3.org/1999/xlink"
	 x="0px" y="0px" width="512.063px" height="511.999px" viewBox="0 0 512.063 511.999" enable-background="new 0 0 512.063 511.999"
	 xml:space="preserve">
<path fill="#FFFFFF" d="M343.038,304.054V192.057h23v111.998L343.038,304.054L343.038,304.054z M298.037,259.056v-22h113v22H298.037
	L298.037,259.056z"/>
<path fill="#FFFFFF" d="M268.619,103.058h-26.94c10.448,8.508,31.16,24.947,31.16,59c0,33.125-19.089,48.825-38.177,63.582
	c-5.912,5.814-12.727,12.104-12.727,21.962c0,9.835,6.814,15.21,11.809,19.257l16.384,12.51
	c19.993,16.58,38.166,31.816,38.166,62.725c0,42.092-42.667,84.955-120.835,84.955c-65.919,0-96.426-31.215-96.426-64.369
	c0-16.133,8.16-38.947,35.008-54.643c28.155-17.01,66.359-19.242,86.808-20.605c-6.376-8.062-13.645-16.564-13.645-30.436
	c0-7.61,2.287-12.098,4.552-17.466c-5.018,0.439-9.998,0.886-14.549,0.886c-48.176,0-75.452-35.39-75.452-70.294
	c0-20.6,6.41-44.937,25.937-61.494c25.917-21.049,59.034-23.585,83.593-23.585l94.763,0.02L268.619,103.058L268.619,103.058z
	 M150.058,307.162c-9.998,3.582-39.084,14.318-39.084,46.121c0,31.801,31.375,54.65,80.002,54.65
	c43.624,0,66.825-20.639,66.825-48.363c0-22.879-15-34.934-49.572-59.129c-3.622-0.459-5.895-0.459-10.423-0.459
	C193.706,299.982,169.148,300.886,150.058,307.162L150.058,307.162z M175.583,101.376c-11.835,0-24.546,4.697-31.84,13.661
	c-7.722,9.41-9.985,22.607-9.985,34.265c0,29.994,17.73,79.709,56.826,79.709c11.356,0,23.606-6.49,30.899-13.661
	c10.449-10.324,11.354-23.509,11.354-31.571C232.838,151.533,213.296,101.376,175.583,101.376L175.583,101.376z"/>
</svg>
