<?xml version="1.0" encoding="utf-8"?>
<!-- Generator: Adobe Illustrator 17.0.0, SVG Export Plug-In . SVG Version: 6.00 Build 0)  -->
<!DOCTYPE svg PUBLIC "-//W3C//DTD SVG 1.1//EN" "http://www.w3.org/Graphics/SVG/1.1/DTD/svg11.dtd">
<svg version="1.1" id="Default_g_x2B__icon" xmlns="http://www.w3.org/2000/svg" xmlns:xlink="http://www.w3.org/1999/xlink"
	 x="0px" y="0px" width="512.063px" height="511.999px" viewBox="0 0 512.063 511.999" enable-background="new 0 0 512.063 511.999"
	 xml:space="preserve">
<g>
	<path fill="#FFFFFF" d="M251.87,251.762v-0.415c-0.089,0.137-0.186,0.28-0.273,0.415H251.87z"/>
	<path fill="#FFFFFF" d="M357.932,127.8H125.19c-11.146,0-20.18,8.813-20.18,19.691V382.95c0,10.874,9.034,19.689,20.18,19.689
		h232.743c11.147,0,20.184-8.815,20.184-19.689V147.491C378.116,136.614,369.079,127.8,357.932,127.8z M187.793,357.867h-41.246
		V233.762h41.246V357.867z M167.171,216.824h-0.269c-13.843,0-22.795-9.538-22.795-21.446c0-12.174,9.224-21.443,23.336-21.443
		c14.109,0,22.795,9.269,23.064,21.443C190.508,207.286,181.553,216.824,167.171,216.824z M336.536,357.867H295.29v-66.394
		c0-16.68-5.968-28.065-20.897-28.065c-11.394,0-18.183,7.676-21.163,15.09c-1.09,2.647-1.359,6.355-1.359,10.063v69.306h-41.25
		c0,0,0.542-112.462,0-124.105h41.25v17.584c5.478-8.456,15.277-20.497,37.176-20.497c27.141,0,47.49,17.738,47.49,55.857V357.867z"
		/>
</g>
<path fill-rule="evenodd" clip-rule="evenodd" fill="#FFFFFF" d="M403.575,355.694h3.174v-7.08h2.317l4.311,7.08h3.335l-4.515-7.327
	c2.36-0.279,4.149-1.743,4.149-4.755c0-3.335-1.951-5.204-6.101-5.204h-6.671V355.694L403.575,355.694z M406.749,341.09h2.317
	c1.951-0.039,4.106,0.083,4.106,2.399c0,2.321-2.155,2.443-4.106,2.443h-2.317V341.09L406.749,341.09z M394.262,347.151
	c0,8.338,6.793,15.131,15.131,15.131c8.338,0,15.131-6.793,15.131-15.131c0-8.338-6.792-15.131-15.131-15.131
	C401.054,332.021,394.262,338.813,394.262,347.151L394.262,347.151z M396.944,347.151c0-6.875,5.573-12.445,12.448-12.445
	c6.875,0,12.445,5.57,12.445,12.445s-5.57,12.448-12.445,12.448C402.517,359.599,396.944,354.026,396.944,347.151L396.944,347.151z"
	/>
</svg>
