<?xml version="1.0" encoding="utf-8"?>
<!-- Generator: Adobe Illustrator 17.1.0, SVG Export Plug-In . SVG Version: 6.00 Build 0)  -->
<!DOCTYPE svg PUBLIC "-//W3C//DTD SVG 1.1//EN" "http://www.w3.org/Graphics/SVG/1.1/DTD/svg11.dtd">
<svg version="1.1" id="Lager_1" xmlns="http://www.w3.org/2000/svg" xmlns:xlink="http://www.w3.org/1999/xlink" x="0px" y="0px"
	 viewBox="0 0 1061.6 710.6" enable-background="new 0 0 1061.6 710.6" xml:space="preserve">
<g>
	<g>
		<path fill="#FFFFFF" d="M0,410.3h22.4l30,86.2h0.5l29.7-86.2h22.6v162.8H81.9v-99h-0.5l-23.1,70H46.6l-22.9-70h-0.5v99H0V410.3z"
			/>
		<path fill="#FFFFFF" d="M192.3,410.3h23.3v162.8h-23.3V410.3z"/>
		<path fill="#FFFFFF" d="M312,410.3h34.5c13.3,0,23.4,3.7,30.4,11.1c7,7.4,10.5,17.7,10.5,31v76.2c0,15.2-3.7,26.5-11.1,33.7
			c-7.4,7.2-18,10.9-31.9,10.9H312V410.3z M335.4,551.2h10.7c6.6,0,11.2-1.6,14-4.9c2.7-3.3,4.1-8.4,4.1-15.4v-78.4
			c0-6.4-1.3-11.4-3.9-14.9c-2.6-3.5-7.3-5.3-14.2-5.3h-10.7V551.2z"/>
		<path fill="#FFFFFF" d="M476.4,410.3h23.3v69.7h28.8v-69.7h23.3v162.8h-23.3v-72.5h-28.8v72.5h-23.3V410.3z"/>
		<path fill="#FFFFFF" d="M669.2,410.3h19.4L725,573.1h-23.3l-6.9-35h-31.8l-6.9,35h-23.3L669.2,410.3z M679.1,457.2h-0.5l-11.4,59
			h23.3L679.1,457.2z"/>
		<path fill="#FFFFFF" d="M887.1,536.8c0,5-1,9.8-2.9,14.4c-1.9,4.6-4.5,8.6-7.9,12c-3.4,3.4-7.3,6.2-11.8,8.2
			c-4.5,2.1-9.3,3.1-14.5,3.1c-4.4,0-8.9-0.6-13.5-1.8c-4.6-1.2-8.7-3.3-12.4-6.3c-3.7-3-6.7-6.9-9-11.8c-2.4-4.9-3.5-11.1-3.5-18.5
			v-89.6c0-5.3,0.9-10.3,2.7-14.9c1.8-4.6,4.4-8.5,7.8-11.9c3.4-3.4,7.4-6,12-7.9c4.6-1.9,9.8-2.9,15.4-2.9c5.3,0,10.3,1,14.9,2.9
			c4.6,1.9,8.5,4.6,11.9,8c3.4,3.4,6,7.5,7.9,12.4c1.9,4.8,2.9,10,2.9,15.7v9.2h-23.3v-7.8c0-4.6-1.3-8.5-3.9-11.9
			c-2.6-3.4-6.1-5-10.5-5c-5.8,0-9.6,1.8-11.5,5.4c-1.9,3.6-2.9,8.1-2.9,13.6v83.2c0,4.7,1,8.7,3.1,11.9c2.1,3.2,5.8,4.8,11.1,4.8
			c1.5,0,3.2-0.3,4.9-0.8c1.8-0.5,3.4-1.4,4.8-2.6c1.4-1.2,2.6-2.9,3.5-5c0.9-2.1,1.4-4.8,1.4-8v-8h23.3V536.8z"/>
		<path fill="#FFFFFF" d="M974.4,410.3h23.3v74.3h0.5l34.1-74.3h23.3l-31.8,65.2l37.7,97.6h-24.7l-26.5-72.3l-12.6,23.6v48.7h-23.3
			V410.3z"/>
	</g>
	<g>
		<text transform="matrix(1 0 0 1 432.3036 710.6208)" fill="#FFFFFF" font-family="'DINCondensed-Bold'" font-size="91">2 0 1 6</text>
	</g>
	<g>
		<path fill="#FFFFFF" d="M790.4,154.4C790.4,154.4,790.4,154.3,790.4,154.4c0-7.1-4.4-13.7-11.9-18.1L552,5.6
			C545.8,2,537.7,0,529.2,0c-8.5,0-16.6,2-22.9,5.6L279.8,136.3c-7.6,4.4-11.9,11-11.9,18.1c0,0.2,0,0.4,0.1,0.7
			c0,0.2-0.1,0.3-0.1,0.5v28.2c0,0.6,0.1,1.1,0.2,1.7c0.8,6.2,5,11.9,11.8,15.8l226.5,130.8c6.4,3.7,14.6,5.6,22.9,5.6
			c8.2,0,16.5-1.9,22.9-5.6l226.5-130.8c7.7-4.4,11.9-11,11.9-18.1c0-0.2,0.1-0.3,0.1-0.5V154.4z M288.2,150.9L514.7,20.1
			c3.7-2.1,9-3.3,14.5-3.3s10.8,1.2,14.5,3.3l226.5,130.8c2.9,1.7,3.5,3.1,3.5,3.5c0,0.4-0.6,1.8-3.5,3.5L543.6,288.7
			c-7.4,4.3-21.6,4.3-29,0L288.2,157.9c-2.9-1.7-3.5-3.1-3.5-3.5C284.7,154,285.3,152.6,288.2,150.9z M770.1,186.8L543.6,317.5
			c-7.7,4.5-21.3,4.5-29,0L288.2,186.8c-2.9-1.7-3.5-3.1-3.5-3.5v-8l221.6,127.9c6.2,3.6,14.4,5.6,22.9,5.6c8.5,0,16.6-2,22.9-5.6
			l221.6-127.9v7.5c0,0,0,0.1,0,0.1c0,0.1,0,0.3,0,0.4C773.7,183.7,772.8,185.2,770.1,186.8z"/>
		<polygon fill="#FFFFFF" points="510.1,121.9 465.1,177.6 483.2,188.1 579.7,162.1 496.6,210 521.7,224.5 656.4,146.8 628.2,130.5 
			512.4,160.7 564.7,93.8 536.6,77.6 401.9,155.4 427,169.9 		"/>
	</g>
</g>
</svg>
