<?xml version="1.0" encoding="utf-8"?>
<!-- Generator: Adobe Illustrator 17.0.0, SVG Export Plug-In . SVG Version: 6.00 Build 0)  -->
<!DOCTYPE svg PUBLIC "-//W3C//DTD SVG 1.1//EN" "http://www.w3.org/Graphics/SVG/1.1/DTD/svg11.dtd">
<svg version="1.1" id="Lager_1" xmlns="http://www.w3.org/2000/svg" xmlns:xlink="http://www.w3.org/1999/xlink" x="0px" y="0px"
	 width="253px" height="170px" viewBox="-447.067 329.229 253 170" enable-background="new -447.067 329.229 253 170"
	 xml:space="preserve">
<g>
	<g>
		<path fill="#FFFFFF" d="M-447.003,427.216h5.338l7.136,20.536h0.109l7.082-20.536h5.393V466h-5.557v-23.587h-0.109l-5.501,16.669
			h-2.778l-5.447-16.669h-0.109V466h-5.556L-447.003,427.216L-447.003,427.216z"/>
		<path fill="#FFFFFF" d="M-401.191,427.216h5.556V466h-5.556V427.216z"/>
		<path fill="#FFFFFF" d="M-372.675,427.216h8.225c3.16,0,5.574,0.881,7.245,2.642c1.67,1.762,2.506,4.222,2.506,7.381v18.14
			c0,3.632-0.881,6.311-2.642,8.034c-1.762,1.726-4.295,2.588-7.599,2.588h-7.735L-372.675,427.216L-372.675,427.216z
			 M-367.119,460.771h2.56c1.561,0,2.669-0.39,3.323-1.171c0.653-0.78,0.98-2.006,0.98-3.677v-18.685
			c0-1.525-0.309-2.705-0.926-3.541c-0.618-0.835-1.743-1.253-3.377-1.253h-2.56V460.771z"/>
		<path fill="#FFFFFF" d="M-333.51,427.216h5.556v16.613h6.864v-16.613h5.556V466h-5.556v-17.268h-6.864V466h-5.556V427.216z"/>
		<path fill="#FFFFFF" d="M-287.589,427.216h4.63l8.661,38.784h-5.556l-1.634-8.334h-7.572l-1.634,8.334h-5.556L-287.589,427.216z
			 M-285.247,438.382h-0.109l-2.724,14.055h5.556L-285.247,438.382z"/>
		<path fill="#FFFFFF" d="M-235.693,457.339c0,1.198-0.227,2.343-0.681,3.432c-0.455,1.09-1.081,2.043-1.879,2.86
			c-0.799,0.816-1.734,1.471-2.805,1.961c-1.072,0.49-2.225,0.735-3.459,0.735c-1.054,0-2.125-0.146-3.214-0.437
			c-1.09-0.29-2.07-0.789-2.942-1.498c-0.872-0.708-1.589-1.643-2.151-2.805c-0.563-1.162-0.844-2.633-0.844-4.412v-21.354
			c0-1.271,0.218-2.451,0.653-3.541c0.436-1.089,1.053-2.033,1.852-2.832c0.798-0.799,1.752-1.425,2.86-1.88
			c1.107-0.453,2.333-0.681,3.677-0.681c1.271,0,2.451,0.228,3.541,0.681c1.089,0.455,2.033,1.09,2.833,1.906
			c0.798,0.817,1.425,1.798,1.879,2.942c0.454,1.144,0.681,2.388,0.681,3.73v2.18h-5.556v-1.853c0-1.089-0.309-2.033-0.926-2.832
			c-0.618-0.799-1.453-1.199-2.506-1.199c-1.38,0-2.297,0.428-2.751,1.28c-0.455,0.854-0.681,1.934-0.681,3.241v19.828
			c0,1.126,0.245,2.07,0.735,2.833c0.49,0.763,1.37,1.144,2.642,1.144c0.363,0,0.753-0.062,1.171-0.19
			c0.417-0.127,0.798-0.336,1.144-0.627c0.345-0.29,0.626-0.689,0.844-1.198c0.218-0.508,0.327-1.144,0.327-1.906v-1.906h5.556
			V457.339z"/>
		<path fill="#FFFFFF" d="M-214.885,427.216h5.556v17.703h0.109l8.117-17.703h5.556l-7.572,15.524l8.988,23.26h-5.883l-6.319-17.214
			l-2.996,5.611V466h-5.556V427.216z"/>
	</g>
	<g>
		<path fill="#FFFFFF" d="M-343.145,496.74l4.052-7.641c0.205-0.382,0.323-0.716,0.352-1.002c0.029-0.287,0.044-0.643,0.044-1.068
			c0-0.19-0.007-0.393-0.022-0.605s-0.055-0.4-0.121-0.562s-0.173-0.298-0.319-0.407c-0.147-0.11-0.36-0.165-0.639-0.165
			c-0.338,0-0.605,0.096-0.804,0.286s-0.297,0.47-0.297,0.837v1.276h-2.246v-1.232c0-0.47,0.088-0.91,0.265-1.321
			c0.176-0.411,0.415-0.771,0.715-1.079c0.301-0.309,0.657-0.554,1.068-0.738c0.411-0.183,0.851-0.274,1.321-0.274
			c0.587,0,1.09,0.106,1.509,0.318c0.418,0.214,0.763,0.504,1.035,0.87c0.271,0.367,0.47,0.786,0.595,1.256s0.187,0.969,0.187,1.497
			c0,0.382-0.007,0.701-0.022,0.958s-0.044,0.503-0.088,0.737c-0.044,0.235-0.118,0.47-0.22,0.705
			c-0.103,0.234-0.242,0.521-0.418,0.858l-3.303,6.364h4.052v2.246h-6.694v-2.114H-343.145z"/>
		<path fill="#FFFFFF" d="M-330.873,486.413c0-0.529,0.092-0.999,0.275-1.41c0.184-0.41,0.43-0.763,0.738-1.057
			c0.308-0.293,0.664-0.518,1.068-0.672s0.826-0.23,1.266-0.23s0.862,0.076,1.267,0.23c0.403,0.154,0.759,0.379,1.068,0.672
			c0.308,0.294,0.554,0.646,0.738,1.057c0.183,0.411,0.275,0.881,0.275,1.41v9.204c0,0.528-0.092,0.999-0.275,1.409
			c-0.184,0.411-0.43,0.764-0.738,1.058c-0.309,0.294-0.665,0.518-1.068,0.672c-0.404,0.153-0.826,0.23-1.267,0.23
			s-0.862-0.077-1.266-0.23c-0.404-0.154-0.76-0.378-1.068-0.672s-0.554-0.646-0.738-1.058c-0.184-0.41-0.275-0.881-0.275-1.409
			V486.413z M-328.626,495.617c0,0.323,0.103,0.592,0.309,0.804c0.206,0.213,0.47,0.319,0.792,0.319s0.587-0.106,0.793-0.319
			c0.206-0.212,0.308-0.48,0.308-0.804v-9.204c0-0.323-0.103-0.591-0.308-0.804s-0.47-0.319-0.793-0.319s-0.587,0.106-0.792,0.319
			c-0.206,0.213-0.309,0.48-0.309,0.804V495.617z"/>
		<path fill="#FFFFFF" d="M-316.15,485.554l-2.246,1.651v-2.378l2.246-1.651h2.246v15.679h-2.246V485.554z"/>
		<path fill="#FFFFFF" d="M-300.767,485.29h-4.448v4.228c0.206-0.205,0.47-0.378,0.793-0.518s0.683-0.209,1.079-0.209
			c0.763,0,1.383,0.235,1.861,0.705c0.477,0.47,0.715,1.159,0.715,2.069v4.052c0,0.528-0.092,0.999-0.275,1.409
			c-0.184,0.411-0.43,0.764-0.738,1.058c-0.309,0.294-0.665,0.518-1.068,0.672c-0.404,0.153-0.826,0.23-1.267,0.23
			s-0.862-0.077-1.266-0.23c-0.404-0.154-0.76-0.378-1.068-0.672s-0.554-0.646-0.738-1.058c-0.184-0.41-0.275-0.881-0.275-1.409
			v-0.66h2.246v0.572c0,0.382,0.106,0.68,0.319,0.892c0.213,0.213,0.488,0.319,0.826,0.319c0.337,0,0.598-0.103,0.782-0.308
			c0.183-0.206,0.275-0.492,0.275-0.859v-3.678c0-0.308-0.099-0.572-0.297-0.792c-0.198-0.221-0.451-0.331-0.759-0.331
			c-0.191,0-0.353,0.033-0.485,0.1c-0.132,0.065-0.242,0.143-0.33,0.231c-0.088,0.088-0.158,0.184-0.209,0.286
			s-0.092,0.184-0.121,0.242h-1.981v-8.456h6.43v2.115H-300.767z"/>
	</g>
	<g>
		<g>
			<path fill="#FFFFFF" d="M-320.956,409.899c-1.961,0-3.922-0.441-5.451-1.323l-53.945-31.146
				c-1.807-1.043-2.844-2.611-2.844-4.302c0-1.104,0.896-2,2-2s2,0.896,2,2c0,0.091,0.155,0.44,0.844,0.838l53.945,31.146
				c1.838,1.061,5.063,1.06,6.901,0l53.945-31.146c0.654-0.377,0.851-0.732,0.843-0.845c-0.069-1.102,0.769-2.052,1.871-2.121
				c1.111-0.057,2.052,0.769,2.121,1.871c0.112,1.792-0.921,3.454-2.835,4.56l-53.945,31.145
				C-317.033,409.458-318.995,409.899-320.956,409.899z"/>
		</g>
		<g>
			<path fill="#FFFFFF" d="M-320.956,403.031c-2.027,0-3.963-0.473-5.451-1.333l-53.945-31.146
				c-1.807-1.043-2.843-2.611-2.843-4.301s1.036-3.258,2.843-4.302l53.945-31.145c1.488-0.859,3.424-1.333,5.451-1.333
				c2.026,0,3.962,0.473,5.451,1.333l53.945,31.146c1.807,1.043,2.843,2.611,2.843,4.301s-1.036,3.258-2.843,4.302l-53.945,31.145
				C-316.993,402.558-318.929,403.031-320.956,403.031z M-320.956,333.473c-1.316,0-2.574,0.29-3.451,0.796l-53.945,31.145
				c-0.688,0.398-0.843,0.747-0.843,0.838s0.155,0.44,0.843,0.837l53.945,31.146c1.754,1.013,5.147,1.013,6.901,0l53.945-31.145
				c0.688-0.398,0.843-0.747,0.843-0.838s-0.155-0.44-0.843-0.837l-53.945-31.146C-318.382,333.763-319.64,333.473-320.956,333.473z
				"/>
		</g>
		<g>
			<path fill="#FFFFFF" d="M-381.195,375.26c-1.104,0-2-0.896-2-2v-6.725c0-1.104,0.896-2,2-2s2,0.896,2,2v6.725
				C-379.195,374.365-380.091,375.26-381.195,375.26z"/>
		</g>
		<g>
			<path fill="#FFFFFF" d="M-260.716,374.997c-1.104,0-2-0.896-2-2v-6.745c0-1.104,0.896-2,2-2s2,0.896,2,2v6.745
				C-258.716,374.101-259.611,374.997-260.716,374.997z"/>
		</g>
	</g>
	<g>
		<g>
			<path fill="#FFFFFF" d="M-351.257,366.486l32.08-18.521l6.689,3.862l-12.461,15.925l27.583-7.194l6.711,3.875l-32.08,18.521
				l-5.973-3.449l19.798-11.431l-22.997,6.2l-4.318-2.493l10.738-13.277l-19.798,11.431L-351.257,366.486z"/>
		</g>
	</g>
</g>
</svg>
