<?xml version="1.0" encoding="utf-8"?>
<!-- Generator: Adobe Illustrator 17.0.0, SVG Export Plug-In . SVG Version: 6.00 Build 0)  -->
<!DOCTYPE svg PUBLIC "-//W3C//DTD SVG 1.1//EN" "http://www.w3.org/Graphics/SVG/1.1/DTD/svg11.dtd">
<svg version="1.1" id="Lager_1" xmlns="http://www.w3.org/2000/svg" xmlns:xlink="http://www.w3.org/1999/xlink" x="0px" y="0px"
	 width="561.841px" height="372px" viewBox="0 0 561.841 372" enable-background="new 0 0 561.841 372" xml:space="preserve">
<g>
	<g>
		<path fill="#00A6CC" d="M-248.783,427.458h22.411l29.956,86.212h0.457l29.729-86.212h22.64v162.818h-23.327v-99.019h-0.457
			l-23.095,69.977h-11.663L-225,491.257h-0.457v99.019h-23.325V427.458H-248.783z"/>
		<path fill="#00A6CC" d="M-56.464,427.458h23.325v162.818h-23.325V427.458z"/>
		<path fill="#00A6CC" d="M63.248,427.458h34.529c13.264,0,23.401,3.698,30.415,11.09c7.01,7.396,10.52,17.723,10.52,30.985v76.151
			c0,15.247-3.698,26.492-11.092,33.728c-7.396,7.244-18.03,10.864-31.901,10.864H63.248V427.458z M86.573,568.322H97.32
			c6.553,0,11.206-1.636,13.951-4.915c2.743-3.276,4.116-8.421,4.116-15.435v-78.439c0-6.404-1.298-11.356-3.889-14.865
			c-2.593-3.505-7.318-5.26-14.179-5.26H86.573V568.322z"/>
		<path fill="#00A6CC" d="M227.666,427.458h23.325v69.743h28.814v-69.743h23.325v162.818h-23.325v-72.49h-28.814v72.49h-23.325
			V427.458z"/>
		<path fill="#00A6CC" d="M420.442,427.458h19.439l36.36,162.818h-23.325l-6.861-34.986h-31.787l-6.861,34.986h-23.325
			L420.442,427.458z M430.275,474.334h-0.457l-11.434,59.002h23.325L430.275,474.334z"/>
		<path fill="#00A6CC" d="M638.304,553.916c0,5.03-0.953,9.835-2.857,14.406c-1.908,4.575-4.538,8.576-7.89,12.008
			c-3.356,3.427-7.281,6.174-11.776,8.232c-4.499,2.058-9.341,3.087-14.521,3.087c-4.424,0-8.919-0.611-13.492-1.833
			c-4.575-1.218-8.691-3.312-12.35-6.289c-3.659-2.972-6.67-6.896-9.032-11.774c-2.365-4.879-3.544-11.053-3.544-18.522v-89.643
			c0-5.334,0.914-10.29,2.743-14.865c1.83-4.571,4.421-8.535,7.775-11.889c3.351-3.354,7.355-5.981,12.006-7.892
			c4.649-1.902,9.794-2.857,15.437-2.857c5.334,0,10.29,0.955,14.863,2.857c4.573,1.91,8.535,4.575,11.891,8.003
			c3.351,3.431,5.981,7.547,7.89,12.352c1.904,4.801,2.857,10.024,2.857,15.661v9.15h-23.325v-7.777
			c0-4.571-1.295-8.535-3.886-11.889c-2.595-3.354-6.1-5.034-10.52-5.034c-5.795,0-9.644,1.796-11.549,5.375
			c-1.908,3.583-2.857,8.117-2.857,13.607v83.239c0,4.727,1.029,8.691,3.087,11.893s5.752,4.801,11.09,4.801
			c1.523,0,3.163-0.262,4.918-0.799c1.751-0.533,3.352-1.41,4.803-2.632c1.447-1.218,2.63-2.894,3.544-5.03
			c0.914-2.132,1.371-4.801,1.371-8.003v-8.003h23.325L638.304,553.916L638.304,553.916z"/>
		<path fill="#00A6CC" d="M725.659,427.458h23.325v74.318h0.457l34.074-74.318h23.325l-31.787,65.172l37.731,97.645h-24.696
			l-26.527-72.265l-12.578,23.557v48.708h-23.325L725.659,427.458L725.659,427.458z"/>
	</g>
	<g>
		<path fill="#00A6CC" d="M187.217,719.329l17.012-32.076c0.861-1.603,1.355-3.005,1.478-4.206c0.123-1.205,0.184-2.698,0.184-4.485
			c0-0.799-0.031-1.648-0.092-2.542c-0.062-0.894-0.232-1.681-0.508-2.357c-0.277-0.676-0.726-1.25-1.341-1.71
			c-0.617-0.463-1.511-0.693-2.681-0.693c-1.418,0-2.542,0.402-3.374,1.201s-1.248,1.972-1.248,3.513v5.358h-9.429v-5.174
			c0-1.972,0.371-3.821,1.111-5.547c0.738-1.726,1.74-3.239,3.003-4.53c1.263-1.295,2.757-2.324,4.485-3.099
			c1.724-0.767,3.573-1.152,5.545-1.152c2.466,0,4.577,0.447,6.334,1.336c1.757,0.898,3.204,2.115,4.344,3.653
			c1.14,1.541,1.972,3.3,2.497,5.272c0.523,1.972,0.785,4.067,0.785,6.285c0,1.603-0.031,2.944-0.092,4.022
			c-0.061,1.078-0.184,2.111-0.369,3.095c-0.184,0.988-0.494,1.972-0.924,2.96c-0.433,0.984-1.017,2.189-1.757,3.604l-13.867,26.717
			h17.009v9.429h-28.103v-8.874H187.217z"/>
		<path fill="#00A6CC" d="M238.735,675.975c0-2.222,0.385-4.194,1.156-5.92c0.771-1.722,1.804-3.202,3.097-4.436
			c1.293-1.23,2.788-2.173,4.483-2.821s3.466-0.968,5.315-0.968s3.62,0.32,5.317,0.968c1.693,0.648,3.187,1.591,4.483,2.821
			c1.293,1.234,2.325,2.714,3.097,4.436c0.769,1.726,1.154,3.698,1.154,5.92v38.639c0,2.218-0.385,4.194-1.154,5.916
			c-0.773,1.726-1.804,3.206-3.097,4.44c-1.295,1.234-2.79,2.173-4.483,2.821c-1.697,0.644-3.468,0.968-5.317,0.968
			s-3.62-0.324-5.315-0.968c-1.695-0.648-3.19-1.587-4.483-2.821s-2.327-2.714-3.097-4.44c-0.771-1.722-1.156-3.698-1.156-5.916
			L238.735,675.975L238.735,675.975z M248.165,714.614c0,1.357,0.43,2.484,1.295,3.374c0.863,0.894,1.972,1.341,3.327,1.341
			s2.466-0.447,3.329-1.341c0.863-0.89,1.293-2.017,1.293-3.374v-38.639c0-1.357-0.43-2.48-1.293-3.374
			c-0.863-0.894-1.974-1.341-3.329-1.341s-2.464,0.447-3.327,1.341c-0.865,0.894-1.295,2.017-1.295,3.374L248.165,714.614
			L248.165,714.614z"/>
		<path fill="#00A6CC" d="M300.542,672.367l-9.429,6.932v-9.983l9.429-6.932h9.429v65.82h-9.429V672.367z"/>
		<path fill="#00A6CC" d="M365.121,671.26h-18.674v17.747c0.863-0.861,1.972-1.587,3.329-2.173c1.355-0.586,2.866-0.877,4.53-0.877
			c3.204,0,5.807,0.988,7.812,2.956c2.001,1.976,3.003,4.87,3.003,8.691v17.009c0,2.218-0.385,4.194-1.154,5.916
			c-0.773,1.726-1.804,3.206-3.097,4.44c-1.295,1.234-2.79,2.173-4.483,2.821c-1.697,0.644-3.468,0.968-5.317,0.968
			s-3.62-0.324-5.315-0.968c-1.695-0.648-3.19-1.587-4.483-2.821s-2.327-2.714-3.097-4.44c-0.771-1.722-1.156-3.698-1.156-5.916
			v-2.771h9.429v2.402c0,1.603,0.447,2.853,1.341,3.743c0.894,0.894,2.05,1.341,3.468,1.341c1.416,0,2.509-0.43,3.282-1.291
			c0.769-0.865,1.154-2.066,1.154-3.608V698.99c0-1.291-0.416-2.402-1.248-3.325c-0.83-0.927-1.894-1.39-3.187-1.39
			c-0.804,0-1.48,0.139-2.035,0.418c-0.553,0.275-1.017,0.599-1.386,0.972c-0.369,0.369-0.664,0.771-0.879,1.201
			s-0.385,0.771-0.508,1.017h-8.318v-35.499h26.992v8.876H365.121z"/>
	</g>
	<g>
		<path fill="#FFFFFF" d="M541.652,171.538c0-0.029-0.008-0.055-0.008-0.084c-0.035-7.064-4.374-13.61-11.93-17.975L303.252,22.733
			c-6.248-3.612-14.375-5.596-22.884-5.596s-16.636,1.984-22.882,5.592L31.018,153.479c-7.586,4.383-11.936,10.962-11.934,18.063
			c0,0.222,0.042,0.44,0.051,0.661c-0.011,0.177-0.053,0.344-0.053,0.524v28.23c0,0.581,0.06,1.149,0.172,1.697
			c0.817,6.227,4.988,11.9,11.766,15.812l226.467,130.75c6.414,3.702,14.648,5.555,22.88,5.555c8.234,0,16.466-1.853,22.882-5.555
			l226.465-130.75c7.665-4.425,11.915-10.981,11.886-18.104c0.011-0.173,0.052-0.337,0.052-0.512V171.538z M39.416,168.02
			L265.883,37.27c3.679-2.124,8.96-3.341,14.484-3.341c5.524,0,10.805,1.218,14.486,3.345l226.465,130.75
			c2.89,1.669,3.54,3.132,3.54,3.513s-0.65,1.845-3.54,3.513L294.853,305.8c-7.359,4.251-21.613,4.251-28.972,0L39.416,175.051
			c-2.89-1.669-3.54-3.132-3.54-3.513C35.874,171.156,36.526,169.689,39.416,168.02z M521.318,203.921l-226.465,130.75
			c-7.716,4.456-21.257,4.46-28.972,0L39.414,203.921c-2.89-1.669-3.54-3.132-3.54-3.513v-8.009l221.613,127.948
			c6.246,3.604,14.373,5.592,22.88,5.592c8.509,0,16.634-1.988,22.882-5.592L524.86,192.399v7.451c0,0.044,0.012,0.084,0.013,0.128
			c0.002,0.135-0.024,0.264-0.015,0.401C524.889,200.85,524.063,202.338,521.318,203.921z"/>
		<polygon fill="#FFFFFF" points="261.35,139.012 216.271,194.752 234.397,205.216 330.94,179.19 247.827,227.176 272.902,241.653 
			407.574,163.9 379.4,147.634 263.604,177.835 315.914,110.98 287.833,94.768 153.16,172.52 178.236,186.997 		"/>
	</g>
</g>
</svg>
