<?xml version="1.0" encoding="utf-8"?>
<!-- Generator: Adobe Illustrator 17.0.0, SVG Export Plug-In . SVG Version: 6.00 Build 0)  -->
<!DOCTYPE svg PUBLIC "-//W3C//DTD SVG 1.1//EN" "http://www.w3.org/Graphics/SVG/1.1/DTD/svg11.dtd">
<svg version="1.1" id="Lager_1" xmlns="http://www.w3.org/2000/svg" xmlns:xlink="http://www.w3.org/1999/xlink" x="0px" y="0px"
	 width="595.28px" height="385px" viewBox="0 0 595.28 385" enable-background="new 0 0 595.28 385" xml:space="preserve">
<g>
	<path fill="#FFFFFF" d="M301.58,132.631v84.299c15.754-1.066,30.371-6.279,42.765-14.561l-0.003-95.738L301.58,132.631z"/>
	<path fill="#FFFFFF" d="M383.493,129.203c0-48.567-39.372-87.938-87.939-87.938s-87.937,39.371-87.937,87.938
		c0,24.947,10.391,47.466,27.077,63.471V85.128l60.856,37.005l60.868-37.006l-0.009,107.553
		C373.099,176.675,383.493,154.153,383.493,129.203z"/>
	<path fill="#FFFFFF" d="M246.756,106.741l-0.003,95.622c12.394,8.283,27.009,13.499,42.765,14.567v-84.189L246.756,106.741z"/>
</g>
<g>
	<path fill="#FFFFFF" d="M343.688,299.535c0,8.457,4.473,13.805,12.543,13.805c5.541,0,8.457-1.555,11.959-5.055l6.318,5.93
		c-5.057,5.057-9.82,7.682-18.473,7.682c-12.348,0-22.166-6.514-22.166-25.277c0-15.945,8.264-25.182,20.902-25.182
		c13.223,0,20.902,9.723,20.902,23.723v4.375h-31.985L343.688,299.535L343.688,299.535z M364.495,285.924
		c-1.557-3.693-5.055-6.223-9.723-6.223c-4.666,0-8.264,2.529-9.818,6.223c-0.973,2.236-1.168,3.695-1.266,6.709h22.168
		C365.759,289.619,365.468,288.16,364.495,285.924z"/>
	<path fill="#FFFFFF" d="M154.877,321.312V273.47l-15.945,33.736h-7.777l-16.334-33.736v47.842h-10.498V252.09h10.498l20.223,41.506
		l19.834-41.506h10.5v69.223L154.877,321.312L154.877,321.312z"/>
	<path fill="#FFFFFF" d="M179.188,262.566v-10.5h10.5v10.5H179.188z M179.481,321.312V273.47h9.916v47.842H179.481z"/>
	<path fill="#FFFFFF" d="M217.066,321.312c-9.236,0-13.515-6.611-13.515-13.709v-26.549h-5.639v-7.584h5.639v-15.547h9.917v15.547
		h9.527v7.584h-9.527v26.064c0,3.596,1.75,5.736,5.444,5.736h4.083v8.457L217.066,321.312L217.066,321.312z"/>
	<path fill="#FFFFFF" d="M247.799,321.312c-9.237,0-13.515-6.611-13.515-13.709v-26.549h-5.639v-7.584h5.639v-15.547h9.917v15.547
		h9.527v7.584h-9.527v26.064c0,3.596,1.75,5.736,5.444,5.736h4.083v8.457L247.799,321.312L247.799,321.312z"/>
	<path fill="#FFFFFF" d="M315.581,321.312V273.47l-15.941,33.736h-7.779l-16.333-33.736v47.842h-10.5V252.09h10.5l20.222,41.506
		l19.832-41.506h10.502v69.223L315.581,321.312L315.581,321.312z"/>
	<path fill="#FFFFFF" d="M411.698,321.312v-5.25c-3.693,4.473-7.68,5.834-13.027,5.834c-4.957,0-9.334-1.652-12.055-4.375
		c-4.959-4.959-5.541-13.416-5.541-20.902c0-7.486,0.582-15.848,5.541-20.807c2.721-2.723,7-4.375,11.957-4.375
		c5.252,0,9.334,1.264,12.932,5.541V252.09h9.916v69.223L411.698,321.312L411.698,321.312z M401.296,280.285
		c-8.943,0-10.305,7.584-10.305,16.334s1.361,16.43,10.305,16.43c8.945,0,10.209-7.68,10.209-16.43
		C411.505,287.869,410.241,280.285,401.296,280.285z"/>
	<path fill="#FFFFFF" d="M433.272,262.594v-10.5h10.5v10.5H433.272z M433.565,321.312V273.47h9.916v47.842H433.565z"/>
	<path fill="#FFFFFF" d="M481.239,321.312v-4.473c-3.598,3.598-7,5.057-13.125,5.057s-10.209-1.459-13.223-4.473
		c-2.527-2.625-3.889-6.416-3.889-10.598c0-8.264,5.736-14.193,17.014-14.193h13.027v-3.5c0-6.223-3.111-9.236-10.791-9.236
		c-5.445,0-8.07,1.264-10.791,4.764l-6.516-6.125c4.668-5.445,9.529-7.098,17.695-7.098c13.514,0,20.318,5.736,20.318,16.916v32.959
		L481.239,321.312L481.239,321.312z M481.044,299.535h-11.568c-5.834,0-8.848,2.625-8.848,7.098c0,4.471,2.818,6.998,9.041,6.998
		c3.791,0,6.611-0.291,9.236-2.818c1.459-1.459,2.139-3.791,2.139-7.291V299.535z"/>
</g>
</svg>
