<?xml version="1.0" encoding="utf-8"?>
<!-- Generator: Adobe Illustrator 17.0.0, SVG Export Plug-In . SVG Version: 6.00 Build 0)  -->
<!DOCTYPE svg PUBLIC "-//W3C//DTD SVG 1.1//EN" "http://www.w3.org/Graphics/SVG/1.1/DTD/svg11.dtd">
<svg version="1.1" id="Layer_1" xmlns="http://www.w3.org/2000/svg" xmlns:xlink="http://www.w3.org/1999/xlink" x="0px" y="0px"
	 width="907.087px" height="572px" viewBox="0 0 907.087 572" enable-background="new 0 0 907.087 572" xml:space="preserve">
<path fill="#FFFFFF" d="M524.546,159.092c0.31,2.078,0.095,4.329-1.424,6.104c-1.591,1.891-43.213,48.078-43.213,48.078
	c-11.732,13.55-14.214,3.56-19.259-7.385c-5.219-11.299-7.63-17.458-12.042-26.999c-4.708-10.226-7.344-15.005-18.173-3.168
	c-12.828,14.072-41.043,46.003-43.224,47.617c-2.071,1.533-4.865,0.562-6.173-1.192c-12.703-16.984-19.192-27.016-22.591-49.266
	c-0.241-1.594-0.835-3.822,1.707-7c35.934-42.654,80.461-59.833,135.801-62.901c2.729-0.304,4.646,1.236,6.145,2.63
	C511.156,114.064,521.341,138.655,524.546,159.092z"/>
<g>
	<path fill="#FFFFFF" d="M385.278,252.287c-0.208-2.844-0.562-3.734,1.41-6.104c1.577-1.908,43.329-48.003,43.329-48.003
		c11.735-13.541,14.197-3.546,19.219,7.399c5.222,11.312,7.63,17.468,12.004,27.016c4.701,10.236,7.351,15.032,18.155,3.195
		c12.862-14.048,40.11-44.088,42.058-45.965c2.722-2.66,6.284-2.227,7.429-0.361c11.68,18.943,15.247,27.558,22.509,49.307
		c0.531,1.523,0.824,3.819-1.727,6.983c-35.981,42.61-80.536,59.709-135.879,62.69c-2.746,0.293-4.65-1.25-6.138-2.647
		C398.596,297.336,386.833,272.913,385.278,252.287z"/>
</g>
<g>
	<g>
		<g>
			<path fill="#FFFFFF" d="M98.333,388.235c-0.597-11.282-1.322-24.975-1.322-34.946h-0.235
				c-2.885,9.368-6.128,19.576-10.206,30.742L72.281,423.3h-7.923l-13.21-38.547c-3.842-11.527-6.966-21.852-9.252-31.464h-0.235
				c-0.235,10.09-0.841,23.534-1.563,35.79l-2.16,34.694h-9.971l5.645-80.928h13.329l13.809,39.139
				c3.358,9.971,6.002,18.854,8.165,27.265h0.238c2.166-8.162,5.045-17.052,8.646-27.265l14.412-39.139h13.326l5.048,80.928h-10.331
				L98.333,388.235z"/>
		</g>
		<g>
			<path fill="#FFFFFF" d="M134.71,354.972c-3.961,0-6.602-3.12-6.602-6.846c0-3.723,2.76-6.721,6.846-6.721
				c4.08,0,6.724,2.998,6.724,6.721c0,3.726-2.639,6.846-6.843,6.846H134.71z M129.665,423.773v-58.112h10.57v58.112H129.665z"/>
		</g>
		<g>
			<path fill="#FFFFFF" d="M172.292,351.732v13.929h15.131v8.049h-15.131v31.335c0,7.202,2.044,11.282,7.927,11.282
				c2.885,0,4.564-0.238,6.124-0.712l0.481,8.039c-2.041,0.719-5.283,1.444-9.364,1.444c-4.923,0-8.884-1.682-11.404-4.442
				c-2.888-3.242-4.088-8.414-4.088-15.257v-31.693h-9.006v-8.049h9.006v-10.689L172.292,351.732z"/>
		</g>
		<g>
			<path fill="#FFFFFF" d="M213.839,351.732v13.929h15.127v8.049h-15.127v31.335c0,7.202,2.044,11.282,7.923,11.282
				c2.885,0,4.564-0.238,6.128-0.712l0.481,8.039c-2.044,0.719-5.283,1.444-9.364,1.444c-4.926,0-8.887-1.682-11.411-4.442
				c-2.885-3.242-4.08-8.414-4.08-15.257v-31.693h-9.01v-8.049h9.01v-10.689L213.839,351.732z"/>
		</g>
		<g>
			<path fill="#FFFFFF" d="M291.29,407.924c0,6.009,0.119,11.288,0.481,15.85h-9.365l-0.6-9.484h-0.246
				c-2.639,4.687-8.884,10.812-19.212,10.812c-9.122,0-20.053-5.171-20.053-25.456V365.66h10.566v32.057
				c0,11.053,3.485,18.612,12.975,18.612c7.081,0,12.004-4.918,13.922-9.725c0.609-1.441,0.964-3.362,0.964-5.402v-35.541h10.57
				v42.262L291.29,407.924L291.29,407.924z"/>
		</g>
		<g>
			<path fill="#FFFFFF" d="M310.621,381.395c0-6.128-0.119-10.934-0.484-15.734h9.368l0.603,9.487h0.235
				c2.888-5.399,9.609-10.805,19.219-10.805c8.043,0,20.53,4.796,20.53,24.737v34.694h-10.566V390.28
				c0-9.368-3.485-17.291-13.448-17.291c-6.846,0-12.249,4.918-14.167,10.801c-0.484,1.328-0.722,3.247-0.722,4.923v35.062h-10.57
				v-42.378h0.003L310.621,381.395L310.621,381.395z"/>
		</g>
		<g>
			<path fill="#FFFFFF" d="M384.109,354.972c-3.961,0-6.605-3.12-6.605-6.846c0-3.723,2.76-6.721,6.846-6.721
				c4.077,0,6.727,2.998,6.727,6.721c0,3.726-2.647,6.846-6.846,6.846H384.109z M379.064,423.773v-58.112h10.566v58.112H379.064z"/>
		</g>
		<g>
			<path fill="#FFFFFF" d="M413.047,365.66l11.411,32.541c1.922,5.41,3.477,10.206,4.683,15.012h0.357
				c1.322-4.807,3.004-9.603,4.923-15.012l11.285-32.541h11.047l-22.815,58.113h-10.086l-22.093-58.112L413.047,365.66
				L413.047,365.66z"/>
		</g>
		<g>
			<path fill="#FFFFFF" d="M473.209,396.515c0.235,14.293,9.245,20.176,19.808,20.176c7.565,0,12.249-1.322,16.092-2.879l1.917,7.44
				c-3.72,1.682-10.202,3.726-19.447,3.726c-17.774,0-28.582-11.891-28.582-29.301c0-17.655,10.444-31.461,27.377-31.461
				c18.973,0,23.899,16.695,23.899,27.384c0,2.16-0.119,3.842-0.365,5.042L473.209,396.515z M504.063,388.96
				c0.122-6.608-2.763-17.171-14.532-17.171c-10.801,0-15.369,9.844-16.211,17.171H504.063z"/>
		</g>
		<g>
			<path fill="#FFFFFF" d="M529.28,383.789c0-6.84-0.119-12.726-0.484-18.129h9.248l0.484,11.411h0.357
				c2.639-7.804,9.133-12.726,16.214-12.726c1.084,0,1.925,0.116,2.888,0.354v9.851c-1.206-0.119-2.285-0.246-3.734-0.246
				c-7.44,0-12.726,5.645-14.167,13.455c-0.235,1.557-0.354,3.239-0.354,5.042v30.974h-10.57L529.28,383.789z"/>
		</g>
		<g>
			<path fill="#FFFFFF" d="M568.781,413.088c3.242,1.928,8.768,4.088,14.055,4.088c7.562,0,11.163-3.723,11.163-8.641
				c0-5.048-3.004-7.811-10.689-10.689c-10.56-3.842-15.489-9.487-15.489-16.449c0-9.368,7.684-17.052,20.06-17.052
				c5.883,0,11.044,1.557,14.164,3.598l-2.52,7.565c-2.282-1.311-6.489-3.358-11.888-3.358c-6.243,0-9.603,3.607-9.603,7.93
				c0,4.915,3.358,7.081,10.924,9.96c9.971,3.726,15.25,8.768,15.25,17.536c0,10.325-8.039,17.533-21.613,17.533
				c-6.363,0-12.246-1.682-16.327-4.085L568.781,413.088z"/>
		</g>
		<g>
			<path fill="#FFFFFF" d="M624.619,354.972c-3.958,0-6.602-3.12-6.602-6.846c0-3.723,2.76-6.721,6.846-6.721
				c4.077,0,6.721,2.998,6.721,6.721c0,3.726-2.64,6.846-6.846,6.846H624.619z M619.573,423.773v-58.112h10.573v58.112H619.573z"/>
		</g>
		<g>
			<path fill="#FFFFFF" d="M662.2,351.732v13.929h15.131v8.049H662.2v31.335c0,7.202,2.05,11.282,7.93,11.282
				c2.879,0,4.561-0.238,6.121-0.712l0.481,8.039c-2.041,0.719-5.28,1.444-9.368,1.444c-4.915,0-8.884-1.682-11.401-4.442
				c-2.885-3.242-4.085-8.414-4.085-15.257v-31.693h-9.003v-8.049h9.003v-10.689L662.2,351.732z"/>
		</g>
		<g>
			<path fill="#FFFFFF" d="M696.329,396.515c0.235,14.293,9.241,20.176,19.811,20.176c7.559,0,12.246-1.322,16.088-2.879l1.922,7.44
				c-3.723,1.682-10.205,3.726-19.454,3.726c-17.774,0-28.579-11.891-28.579-29.301c0-17.655,10.447-31.461,27.384-31.461
				c18.963,0,23.892,16.695,23.892,27.384c0,2.16-0.119,3.842-0.362,5.042L696.329,396.515z M727.183,388.96
				c0.116-6.608-2.763-17.171-14.532-17.171c-10.809,0-15.37,9.844-16.214,17.171H727.183z"/>
		</g>
		<g>
			<path fill="#FFFFFF" d="M765.01,351.732v13.929h15.124v8.049H765.01v31.335c0,7.202,2.041,11.282,7.923,11.282
				c2.879,0,4.561-0.238,6.118-0.712l0.484,8.039c-2.041,0.719-5.283,1.444-9.368,1.444c-4.915,0-8.877-1.682-11.401-4.442
				c-2.888-3.242-4.088-8.414-4.088-15.257v-31.693h-9.006v-8.049h9.006v-10.689L765.01,351.732z"/>
		</g>
		<g>
			<path fill="#FFFFFF" d="M799.129,396.515c0.235,14.293,9.241,20.176,19.808,20.176c7.565,0,12.246-1.322,16.089-2.879l1.925,7.44
				c-3.723,1.682-10.205,3.726-19.447,3.726c-17.774,0-28.59-11.891-28.59-29.301c0-17.655,10.451-31.461,27.384-31.461
				c18.966,0,23.892,16.695,23.892,27.384c0,2.16-0.116,3.842-0.365,5.042L799.129,396.515z M829.984,388.96
				c0.119-6.608-2.76-17.171-14.532-17.171c-10.805,0-15.37,9.844-16.208,17.171H829.984z"/>
		</g>
		<g>
			<path fill="#FFFFFF" d="M867.812,351.732v13.929h15.124v8.049h-15.124v31.335c0,7.202,2.041,11.282,7.919,11.282
				c2.879,0,4.561-0.238,6.128-0.712l0.484,8.039c-2.05,0.719-5.29,1.444-9.368,1.444c-4.926,0-8.887-1.682-11.411-4.442
				c-2.885-3.242-4.084-8.414-4.084-15.257v-31.693h-9.003v-8.049h9.003v-10.689L867.812,351.732z"/>
		</g>
	</g>
	<g>
		<rect x="25.72" y="450.087" fill="#FFFFFF" width="858.397" height="1.43"/>
	</g>
	<g>
		<g>
			<path fill="#FFFFFF" d="M105.909,494.918c-0.252-4.708-0.552-10.416-0.552-14.573h-0.099c-1.198,3.907-2.555,8.162-4.254,12.818
				l-5.961,16.374h-3.305l-5.509-16.075c-1.604-4.807-2.906-9.116-3.856-13.121h-0.099c-0.099,4.207-0.354,9.814-0.65,14.924
				l-0.902,14.47h-4.156l2.351-33.751h5.559l5.756,16.323c1.403,4.156,2.503,7.861,3.407,11.367h0.099
				c0.902-3.407,2.102-7.109,3.607-11.367l6.008-16.323h5.559l2.102,33.751h-4.306L105.909,494.918z"/>
		</g>
		<g>
			<path fill="#FFFFFF" d="M133.099,475.989v33.751h-4.404v-33.751H133.099z"/>
		</g>
		<g>
			<path fill="#FFFFFF" d="M151.677,476.439c2.705-0.402,5.859-0.702,9.313-0.702c6.257,0,10.717,1.403,13.669,4.156
				c3.053,2.755,4.807,6.71,4.807,12.167c0,5.509-1.754,10.015-4.857,13.118c-3.202,3.154-8.414,4.857-14.971,4.857
				c-3.154,0-5.709-0.102-7.96-0.402L151.677,476.439L151.677,476.439z M156.081,506.332c1.104,0.201,2.705,0.201,4.408,0.201
				c9.313,0.052,14.371-5.208,14.371-14.321c0.051-8.063-4.459-13.019-13.669-13.019c-2.255,0-3.955,0.201-5.109,0.45V506.332z"/>
		</g>
		<g>
			<path fill="#FFFFFF" d="M214.166,504.429c1.952,1.25,4.759,2.204,7.76,2.204c4.459,0,7.061-2.303,7.061-5.756
				c0-3.103-1.801-4.956-6.359-6.66c-5.509-2.003-8.911-4.906-8.911-9.613c0-5.256,4.353-9.163,10.914-9.163
				c3.407,0,5.961,0.8,7.412,1.652l-1.203,3.556c-1.053-0.65-3.308-1.604-6.359-1.604c-4.605,0-6.359,2.755-6.359,5.058
				c0,3.154,2.054,4.708,6.713,6.51c5.709,2.252,8.563,4.956,8.563,9.916c0,5.208-3.805,9.763-11.769,9.763
				c-3.253,0-6.809-1.001-8.611-2.204L214.166,504.429z"/>
		</g>
		<g>
			<path fill="#FFFFFF" d="M255.929,509.739l-8.563-33.751h4.608l4.005,17.076c1.001,4.257,1.904,8.414,2.503,11.667h0.099
				c0.552-3.355,1.604-7.361,2.755-11.714l4.506-17.024h4.558l4.105,17.124c0.951,4.057,1.853,8.012,2.351,11.564h0.099
				c0.702-3.703,1.652-7.46,2.705-11.667l4.459-17.024h4.456l-9.565,33.751h-4.558l-4.257-17.526
				c-1.053-4.356-1.754-7.661-2.201-11.067h-0.099c-0.551,3.407-1.352,6.66-2.606,11.016l-4.807,17.577L255.929,509.739
				L255.929,509.739z"/>
		</g>
		<g>
			<path fill="#FFFFFF" d="M321.225,493.916h-13.071v12.167h14.623v3.656H303.75v-33.751h18.275v3.654h-13.872v10.665h13.071
				L321.225,493.916L321.225,493.916z"/>
		</g>
		<g>
			<path fill="#FFFFFF" d="M339.397,476.439c2.705-0.402,5.859-0.702,9.313-0.702c6.257,0,10.717,1.403,13.669,4.156
				c3.056,2.755,4.807,6.71,4.807,12.167c0,5.509-1.754,10.015-4.857,13.118c-3.202,3.154-8.414,4.857-14.974,4.857
				c-3.154,0-5.709-0.102-7.96-0.402v-33.195L339.397,476.439L339.397,476.439z M343.805,506.332c1.1,0.201,2.705,0.201,4.404,0.201
				c9.313,0.052,14.371-5.208,14.371-14.321c0.051-8.063-4.456-13.019-13.669-13.019c-2.252,0-3.955,0.201-5.106,0.45
				L343.805,506.332L343.805,506.332z"/>
		</g>
		<g>
			<path fill="#FFFFFF" d="M401.24,493.916h-13.071v12.167h14.623v3.656h-19.028v-33.751h18.275v3.654h-13.871v10.665h13.071
				L401.24,493.916L401.24,493.916z"/>
		</g>
		<g>
			<path fill="#FFFFFF" d="M419.464,509.739v-33.751h4.807l10.764,17.076c2.456,3.955,4.459,7.46,6.012,10.966l0.15-0.051
				c-0.398-4.506-0.501-8.611-0.501-13.82v-14.17h4.108v33.751h-4.408l-10.717-17.124c-2.354-3.757-4.608-7.609-6.261-11.268
				l-0.15,0.052c0.249,4.254,0.299,8.311,0.299,13.921v14.419H419.464L419.464,509.739z"/>
		</g>
		<g>
			<path fill="#FFFFFF" d="M486.413,475.989v20.03c0,7.511,3.355,10.717,7.865,10.717c4.956,0,8.209-3.305,8.209-10.717v-20.03
				h4.408v19.729c0,10.366-5.46,14.573-12.77,14.573c-6.908,0-12.117-3.907-12.117-14.419v-19.88h4.404v-0.003L486.413,475.989
				L486.413,475.989z"/>
		</g>
		<g>
			<path fill="#FFFFFF" d="M525.469,509.739v-33.751h4.807l10.764,17.076c2.456,3.955,4.459,7.46,6.008,10.966l0.15-0.051
				c-0.398-4.506-0.498-8.611-0.498-13.82v-14.17h4.105v33.751h-4.404l-10.72-17.124c-2.351-3.757-4.605-7.609-6.257-11.268
				l-0.15,0.052c0.249,4.254,0.299,8.311,0.299,13.921v14.419H525.469L525.469,509.739z"/>
		</g>
		<g>
			<path fill="#FFFFFF" d="M573.788,475.989v33.751h-4.404v-33.751H573.788z"/>
		</g>
		<g>
			<path fill="#FFFFFF" d="M599.829,509.739l-11.067-33.751h4.758l5.26,16.623c1.4,4.558,2.65,8.713,3.604,12.617h0.102
				c0.951-3.907,2.303-8.162,3.856-12.57l5.709-16.674h4.657l-12.068,33.751h-4.81V509.739z"/>
		</g>
		<g>
			<path fill="#FFFFFF" d="M648.797,493.916H635.73v12.167h14.62v3.656h-19.028v-33.751h18.276v3.654h-13.867v10.665h13.066
				L648.797,493.916L648.797,493.916z"/>
		</g>
		<g>
			<path fill="#FFFFFF" d="M667.023,476.489c2.204-0.45,5.41-0.753,8.363-0.753c4.657,0,7.712,0.902,9.818,2.804
				c1.649,1.451,2.65,3.757,2.65,6.411c0,4.404-2.855,7.361-6.356,8.563v0.15c2.551,0.902,4.105,3.305,4.956,6.809
				c1.1,4.708,1.905,7.96,2.555,9.265h-4.506c-0.551-0.951-1.305-3.856-2.204-8.063c-1.005-4.657-2.854-6.408-6.812-6.561h-4.105
				v14.62h-4.356L667.023,476.489L667.023,476.489z M671.381,491.811h4.459c4.657,0,7.609-2.555,7.609-6.408
				c0-4.357-3.158-6.257-7.76-6.257c-2.105,0-3.556,0.201-4.309,0.398V491.811L671.381,491.811z"/>
		</g>
		<g>
			<path fill="#FFFFFF" d="M704.432,504.429c1.952,1.25,4.755,2.204,7.76,2.204c4.459,0,7.058-2.303,7.058-5.756
				c0-3.103-1.798-4.956-6.356-6.66c-5.508-2.003-8.914-4.906-8.914-9.613c0-5.256,4.356-9.163,10.917-9.163
				c3.403,0,5.958,0.8,7.412,1.652l-1.203,3.556c-1.053-0.65-3.304-1.604-6.356-1.604c-4.609,0-6.359,2.755-6.359,5.058
				c0,3.154,2.054,4.708,6.71,6.51c5.709,2.252,8.563,4.956,8.563,9.916c0,5.208-3.805,9.763-11.766,9.763
				c-3.256,0-6.813-1.001-8.612-2.204L704.432,504.429z"/>
		</g>
		<g>
			<path fill="#FFFFFF" d="M745.043,475.989v33.751h-4.408v-33.751H745.043z"/>
		</g>
		<g>
			<path fill="#FFFFFF" d="M770.076,479.695h-10.267v-3.706h24.986v3.706h-10.311v30.044h-4.408L770.076,479.695L770.076,479.695z"
				/>
		</g>
		<g>
			<path fill="#FFFFFF" d="M808.925,509.739v-14.321l-10.717-19.43h5.011l4.755,9.313c1.25,2.551,2.303,4.605,3.352,6.959h0.099
				c0.902-2.204,2.105-4.408,3.407-6.959l4.857-9.313h4.906l-11.268,19.378v14.371L808.925,509.739L808.925,509.739z"/>
		</g>
	</g>
</g>
</svg>
