<?xml version="1.0" encoding="utf-8"?>
<!-- Generator: Adobe Illustrator 17.0.0, SVG Export Plug-In . SVG Version: 6.00 Build 0)  -->
<!DOCTYPE svg PUBLIC "-//W3C//DTD SVG 1.1//EN" "http://www.w3.org/Graphics/SVG/1.1/DTD/svg11.dtd">
<svg version="1.1" id="Lager_1" xmlns="http://www.w3.org/2000/svg" xmlns:xlink="http://www.w3.org/1999/xlink" x="0px" y="0px"
	 width="47.421px" height="39.784px" viewBox="0 0 47.421 39.784" enable-background="new 0 0 47.421 39.784" xml:space="preserve">
<g>
	<path fill="#FFFFFF" d="M19.871,21.591L19.871,21.591C19.871,21.591,19.871,21.591,19.871,21.591
		c0.675,0.291,1.383,0.517,2.118,0.672c0.007,0.001,0.013,0.004,0.02,0.005c0.33,0.069,0.666,0.118,1.005,0.157
		c0.044,0.005,0.086,0.015,0.129,0.02c0.382,0.039,0.769,0.06,1.161,0.06c0.376,0,0.748-0.02,1.114-0.057
		c0.293-0.029,0.58-0.078,0.867-0.129c0.066-0.012,0.134-0.017,0.199-0.03c0.698-0.138,1.372-0.343,2.017-0.604
		c0.002-0.001,0.004-0.001,0.006-0.002c0,0,0,0,0,0c4.127-1.669,7.05-5.712,7.05-10.43C35.558,5.048,30.51,0,24.305,0
		C18.1,0,13.052,5.048,13.052,11.253C13.052,15.883,15.865,19.867,19.871,21.591z"/>
	<path fill="#FFFFFF" d="M35.329,23.16c-2.9,2.687-6.768,4.345-11.024,4.345c-4.408,0-8.406-1.77-11.336-4.629
		C5.274,25.224,0,30.557,0,39.784h47.421C47.421,30.912,42.545,25.64,35.329,23.16z"/>
</g>
</svg>
